<?xml version="1.0" encoding="UTF-8"?>
<svg xmlns="http://www.w3.org/2000/svg" version="1.1" viewBox="0 0 2000 800">
  <!-- Generator: Adobe Illustrator 29.8.6, SVG Export Plug-In . SVG Version: 2.1.1 Build 1)  -->
  <defs>
    <style>
      .st0 {
        fill: #997baf;
        stroke: #997baf;
      }

      .st0, .st1 {
        stroke-miterlimit: 10;
        stroke-width: 40px;
      }

      .st1 {
        fill: #7a5098;
        stroke: #7a5098;
      }
    </style>
  </defs>
  <g id="Camada_2">
    <path class="st1" d="M23.5,453.74c132.66,22.28,235.54,19.92,305.82,13.3,58.09-5.48,98.25-11.64,98.25-11.64,136.12-20.92,223.46-54.31,235.83-31.56,7.65,14.05-21.38,34.71-12.64,54.85,9.99,22.94,43.45,12.03,65.93,11.13,154.48-6.14,240.97-79.25,370.54-79.28,53.48,0,44.52,14.27,129.18,27.79,168.51,26.89,267.32-19.63,475.82-51.05,130.37-19.65,289.9-23.82,289.92-23.82v375.8H23.5v-285.51h0Z"/>
  </g>
  <g id="Camada_1">
    <path class="st0" d="M1978.29,446.49c-65.44.24-118.1,5.6-154.68,10.62-55.23,7.57-55.59,7.29-97.13,11.42-118.81,11.81-222.72,22.15-312.72,6.6-11.25-1.94-38.18-6.49-71.51.58-35,7.43-50.54,24.31-69.92,34.88-95.55,52.14-286.08-47.74-353.91-48.17-17.32-.12-32.81,2.83-32.81,2.83-22.7,4.82-34.63,15.1-96.37,24.94-168.51,26.89-267.32-19.63-475.83-51.05-130.37-19.65-289.9-23.82-289.92-23.82v363.79h1958.65c-.14-11.99-1.8-154.12-1.94-166.31-.14-11.99-1.77-154.12-1.91-166.31Z"/>
  </g>
</svg>