<?xml version="1.0" encoding="UTF-8"?>
<svg id="Camada_2" xmlns="http://www.w3.org/2000/svg" version="1.1" viewBox="0 0 2000 800">
  <!-- Generator: Adobe Illustrator 29.8.6, SVG Export Plug-In . SVG Version: 2.1.1 Build 1)  -->
  <defs>
    <style>
      .st0 {
        fill: #552677;
        stroke: #552677;
        stroke-miterlimit: 10;
        stroke-width: 40px;
      }
    </style>
  </defs>
  <path class="st0" d="M1985.57,367.49c-133.51,22.43-237.04,20.05-307.78,13.38-58.46-5.51-98.87-11.72-98.87-11.72-68.51-10.51-124.71-24.19-165.37-32.35-20.69-4.17-45.2-5.1-71.96.59-35.22,7.48-50.86,24.46-70.37,35.1-96.15,52.48-287.9-48.04-356.16-48.48-17.43-.12-33.02,2.84-33.02,2.84-22.84,4.85-34.85,15.2-96.99,25.1-169.59,27.06-269.02-19.76-478.86-51.37-131.2-19.78-291.75-23.97-291.77-23.97v502.51h1971.12c0-137.21.02-274.42.02-411.63Z"/>
</svg>