<?xml version="1.0" encoding="UTF-8"?>
<svg id="Camada_1" xmlns="http://www.w3.org/2000/svg" version="1.1" viewBox="0 0 283.46 283.46">
  <!-- Generator: Adobe Illustrator 29.8.6, SVG Export Plug-In . SVG Version: 2.1.1 Build 1)  -->
  <defs>
    <style>
      .st0 {
        stroke: #ece1d7;
        stroke-width: 20px;
      }

      .st0, .st1 {
        fill: none;
        stroke-miterlimit: 10;
      }

      .st1 {
        stroke: #c74f07;
        stroke-width: 4px;
      }
    </style>
  </defs>
  <path class="st0" d="M160.76,0c-2.33,33.45,5.11,45.29,12.51,49.85,3.67,2.26,5.78,1.78,19.09,5.5,18.25,5.1,27.34,7.67,30.07,11.71,13.76,20.33-24.25,68.3-48.21,65.17-24.95-3.25-26.2-60.8-46.44-60.88-12-.05-27.7,20.13-24.77,35.51,2.2,11.56,10.3,16.02,8.24,25.67-1.84,8.6-11.47,15.89-20.81,17.45-20.2,3.37-33-23.21-44.47-18.75-9.84,3.83-9.57,26.67-9.47,35.6.48,41,20.79,58.55,12.8,73.26-3.76,6.92-14.58,14.66-49.31,12.65"/>
  <path class="st1" d="M72.38,2.6c-.13,10.62-2.03,23.48-10.74,29.04-13.65,8.72-31.96-8.43-43.83,0-10.88,7.74-12.14,32.7-1.38,44.29,17.12,18.46,61.85-.03,78.87-9.12,7.24-3.86,12.45-6.53,18.08-12.24,21.47-21.77,12.85-45.35,26.29-52.72,14.96-8.21,48.31,8.59,54.95,31.42,6.26,21.53-13.35,36.13-4.5,50.23,9.78,15.58,43.87,8.57,48.41,7.65,9.14-1.84,22.99-4.62,26.84-14.26,3.98-9.96-6.04-18.89-1.67-27.15,3.5-6.61,13.79-8.21,22.97-8.35"/>
  <path class="st1" d="M280.23,119.72c3.25,26.35-8.77,51.84-30.46,64.99-20.27,12.29-50.21,14.56-65.8,0-22.66-21.15,2.72-61.24-18.28-79.62-16.79-14.69-58.61-11.45-77.54,17.06-21.89,32.96,1.95,76.89,24.53,84.49,19.54,6.58,33.05-15.78,57.15-8.12,18.98,6.03,34.69,27.54,29.98,40.21-3.84,10.34-20.63,13.02-25.59,13.81-25.29,4.03-32.64-12.32-53.63-7.31-14.08,3.36-28.04,14.84-33.01,29.25-1.25,3.62-1.72,6.8-1.91,8.99"/>
  <path class="st0" d="M210.85,283.46c-.01-4.55-.76-11.13-4.83-17.11-7.33-10.75-18.89-9.97-36.18-19.5-10.73-5.91-25.04-13.7-25.43-23.56-.64-15.98,32.19-37.07,56.02-30.33,21.25,6,22.27,30.45,36.15,30.33,13.54-.12,3.38-54.86,30.21-70.68,6.51-3.84,13.2-4.39,16.69-4.47"/>
</svg>