<?xml version="1.0" encoding="UTF-8"?>
<svg id="Camada_1" xmlns="http://www.w3.org/2000/svg" version="1.1" viewBox="0 0 283.46 283.46">
  <!-- Generator: Adobe Illustrator 29.8.6, SVG Export Plug-In . SVG Version: 2.1.1 Build 1)  -->
  <defs>
    <style>
      .st0 {
        stroke: #57217a;
        stroke-width: 20px;
      }

      .st0, .st1 {
        fill: none;
        stroke-miterlimit: 10;
      }

      .st1 {
        stroke: #c74f07;
        stroke-width: 4px;
      }
    </style>
  </defs>
  <path class="st0" d="M285.39,155.64c-1.09,0-2.62.03-4.46.16-15.79,1.05-39.91,7.98-46.56,20.49-11.54,21.7,33.14,53.33,22.35,72.64-6.04,10.8-28.04,15.23-40.42,7.09-22.57-14.84,3.55-60.41-21.05-86.7-18.22-19.46-57.51-21.16-80.28-3.84-11.65,8.86-23.78,26.34-18.57,37,8.7,17.81,57.85,3.54,61.44,15.22,2.41,7.82-16.47,24.43-37.2,27.06-28.21,3.58-61.82-18.45-64.26-47.91-1.43-17.26,7.9-36.02,21.98-45.1,16.22-10.45,31.43-3.41,38.37-14.24,7-10.92-7.19-22.88,1.07-35.5,8.24-12.57,19.36-8.34,30.35-21.43.89-1.06,15.55-19.06,8.38-36.93-5.53-13.78-22.48-23.63-34.43-19.49-4.7,1.63-7.74,5.13-9.13,6.98-7.74,10.3-.33,20.84-5.19,28.24-6.36,9.68-31.21,8.43-47.99-1.11C37.33,45.48,29.02,17.66,28.86-.9c0-.49,0-.9,0-1.16"/>
  <path class="st1" d="M285.67,249.11c-4.03-.07-9.88.04-16.83.93-38.69,4.94-55.37,26.79-65.5,20.8-11.48-6.78,7.23-36.41-6.05-53.88-19.08-25.1-79.38,7.72-95.55-14.37-12.04-16.44,3.14-58.65,29.07-68.63,30.2-11.63,52.72,31.96,92.56,22.63,22.64-5.3,46.29-26.46,47.08-50.97.07-2.15.43-22.72-13.67-32.6-15.34-10.76-31.32,2.25-74.09,3.95-22.54.9-46.85,1.87-51.67-8.75-6.63-14.61,23.62-51.31,49.05-49.76,8.74.53,15.98,5.53,22.12,1.47,6.06-4,6.65-13.93,6.13-22.01"/>
  <path class="st1" d="M.76,62.77c7.68,1.94,20.77,6.38,32.16,17.38,31.23,30.16,26.99,87.62,13.04,92.8-9.31,3.46-19.36-17.68-29.12-14.16-15.53,5.61-14.55,66.93,3.99,75.15,15.76,6.99,45.44-41.16,58.65-34.48,8.47,4.28-12.55,37.06,0,51.09,12.11,13.54,42.63-3.35,58.02,13.04,5.57,5.94,6.94,13.87,7.17,19.87"/>
</svg>