<?xml version="1.0" encoding="UTF-8"?>
<svg id="Camada_7_cópia" xmlns="http://www.w3.org/2000/svg" version="1.1" viewBox="0 0 1133.86 368.5">
  <!-- Generator: Adobe Illustrator 29.8.6, SVG Export Plug-In . SVG Version: 2.1.1 Build 1)  -->
  <defs>
    <style>
      .st0 {
        fill: #997aaf;
        stroke: #997aaf;
        stroke-miterlimit: 10;
        stroke-width: 40px;
      }
    </style>
  </defs>
  <path class="st0" d="M1112.67,325.27c-38.15.14-68.83,3.27-90.16,6.18-25.34,3.46-36.77,6.54-56.61,6.66-32.49.2-59.02-7.69-76.6-14.55-50.76,20.73-84.13,21.77-105.68,18.4-6.75-1.06-22.25-3.79-41.68.34-20.4,4.33-29.46,14.16-40.76,20.33-55.69,30.39-166.74-27.82-206.28-28.08-10.09-.07-19.12,1.65-19.12,1.65-13.23,2.82-20.19,8.8-56.17,14.54-98.22,15.68-155.81-11.44-277.34-29.76-76-11.45-168.98-13.88-168.99-13.88v118.05h1141.64c-.75-33.29-1.5-66.58-2.26-99.88Z"/>
</svg>