<?xml version="1.0" encoding="UTF-8"?>
<svg id="Camada_7" xmlns="http://www.w3.org/2000/svg" version="1.1" viewBox="0 0 1133.86 368.5">
  <!-- Generator: Adobe Illustrator 29.8.6, SVG Export Plug-In . SVG Version: 2.1.1 Build 1)  -->
  <defs>
    <style>
      .st0 {
        fill: #552678;
        stroke: #552678;
        stroke-miterlimit: 10;
        stroke-width: 40px;
      }
    </style>
  </defs>
  <path class="st0" d="M1112.67,273.52c-77.32,12.99-137.29,11.61-178.25,7.75-33.86-3.19-57.27-6.78-57.27-6.78-39.67-6.09-72.23-14.01-95.78-18.74-11.98-2.41-26.18-2.95-41.68.34-20.4,4.33-29.46,14.16-40.76,20.33-55.69,30.39-166.74-27.82-206.28-28.08-10.09-.07-19.12,1.65-19.12,1.65-13.23,2.82-20.19,8.8-56.17,14.54-98.22,15.68-155.81-11.44-277.34-29.76-76-11.45-168.98-13.88-168.99-13.88v118.05h1141.64v-65.42Z"/>
</svg>