<?xml version="1.0" encoding="UTF-8"?>
<svg id="Camada_1" xmlns="http://www.w3.org/2000/svg" version="1.1" viewBox="0 0 48 48">
  <!-- Generator: Adobe Illustrator 29.8.6, SVG Export Plug-In . SVG Version: 2.1.1 Build 1)  -->
  <defs>
    <style>
      .st0 {
        fill: #dc620b;
      }

      .st1 {
        fill: #fad5ce;
        stroke: #dc620b;
        stroke-linecap: round;
        stroke-linejoin: round;
        stroke-width: .1px;
      }
    </style>
  </defs>
  <path class="st1" d="M45.53,24c0,12.94-11.71,21.19-21.53,22-1.72.14-10.26.62-16.42-5.85-6.03-6.33-5.26-14.59-5.12-16.15C3.35,14.56,10.97,2,24,2c11.89,0,21.53,9.85,21.53,22Z"/>
  <g>
    <g>
      <path class="st0" d="M25.05,14.26c-1.5.83-3.22.71-4.27-.24-1.03-.93-1-2.27-1-2.51.03-1.91,1.66-3.8,3.54-3.9,1.44-.08,2.53.93,3.01,1.38.45.42,1.05.98,1.2,1.89.2,1.2-.51,2.14-.69,2.37-1.02,1.35-2.67,1.44-2.94,1.45"/>
      <path class="st0" d="M22.58,10.09c-.13.03-.33.22-.42.34-.21.25-.41.67-.43.92-.02.18-.06.25.13.22,0,.22.05.47.12.63.07.16.15.25.26.34,0,.12.22.16.21.18.12.14.36.42.66.52.47.15.72.05,1.35.51.86.52,1,1.32.98,2.3-.06.34-1.17.76-1.62.78-.95.13-2.02-.02-2.98-.52-.91-.41-1.74-1.17-2.22-2.07-.48-.9-.64-1.83-.61-2.74.11-1.9,1.05-3.44,2.41-4.49.66-.49,1.46-.89,2.37-1.03.91-.15,1.88,0,2.66.35.79.33,1.43.82,1.95,1.28.43.38,1.13.97,1.57,1.9.45.91.53,2,.3,2.94-.05.24-.13.46-.21.67l-.13.32-.11.23c-.07.15-.15.29-.23.43-.3.51-.79,1.09-1.31,1.47-.53.4-1.06.66-1.66.69-.93.01-1.35-.42-1.69-.99l-.03-.71c.15-.61.44-1.29.73-1.6.4-.39.65-.61.91-1.1.19-.38.16-.6.08-.78-.04-.09-.12-.2-.3-.37-.18-.16-.51-.45-.69-.58-.29-.2-.56-.32-.77-.36-.24-.09-.39-.09-.6-.05-.2.04-.46.18-.69.39Z"/>
    </g>
    <path class="st0" d="M8.42,10.19c-.62.73-1.51,1.9-2.28,3.22-.79,1.3-1.44,2.74-1.86,3.81-.86,2.19-1.57,5.02-1.66,7.85-.14,2.83.39,5.65,1.05,7.75.52,1.65,1.02,2.58,1.26,3.09.27.49.33.55.25.32,1.9,3.58,5.07,6.42,8.83,7.93,3.76,1.53,8,1.77,12,.92.54-.12,1.17-.27,1.85-.45.66-.24,1.41-.43,2.13-.74.36-.15.73-.31,1.1-.46.09-.04.18-.08.27-.12l.03-.02h.01s.03-.02.05-.03c.21-.06.5-.08.73-.13.35-.08.54-.18.91.01.48.24.49.66.57,1.11,0,.15-.36.35-.5.42-.18.09-.36.17-.55.24l-.28.11-.07.03-1.66.7c-2.22.86-4.56,1.44-6.94,1.66-4.75.46-9.73-.57-13.76-3.24-2.01-1.33-3.78-3.03-5.16-5-1.36-1.98-2.39-4.18-3.02-6.47-.65-2.29-.96-4.65-.96-7.02.05-2.37.42-4.71,1.07-6.97.63-2.26,1.64-4.4,2.82-6.4,1.18-2.01,2.64-3.86,4.32-5.46,1.85-1.79,4-3.29,6.35-4.39,2.37-1.07,4.94-1.68,7.54-1.83,5.23-.37,10.44,1.52,14.58,4.59,4.16,3.1,7.34,7.52,8.89,12.51,1.62,5.02.99,10.62-1.22,15.32-2.11,4.76-6.02,8.83-10.84,10.94-1.19.56-2.43.98-3.7,1.32-.63.17-1.27.31-1.92.43l-.97.15-.24.03-.17.03c-.22.04-.44.08-.67.1-.22.03-.42.05-.64-.02-.34-.11-.49-.33-.62-.62v-.36c.08-.31.31-.63.6-.74.3-.11.67-.16,1.04-.22l.14-.02h.07s.26-.04.26-.04c.54-.08,1.09-.17,1.62-.29,4.29-.92,8.27-3.13,11.05-6.36.37-.38.66-.83.99-1.24.33-.41.63-.85.91-1.29.56-.89,1.05-1.83,1.48-2.78.85-1.91,1.45-3.9,1.7-5.9.57-4-.33-7.96-2.03-11.28-.92-1.83-2.08-3.55-3.48-5.05-.65-.79-1.45-1.45-2.19-2.16-.81-.63-1.59-1.3-2.47-1.82-2.08-1.36-4.39-2.37-6.8-2.93-2.41-.58-4.93-.61-7.36-.21-4.88.78-9.36,3.57-12.49,7.46Z"/>
    <path class="st0" d="M19.84,25.86c.04-.1.07-.24.09-.44.02-.24.04-.48.05-.64.06-.8.19-1.76.27-2.48.07-.56.14-.71-.06-.65.03-.18.06-.38.12-.61.03-.12.06-.25.12-.41.02-.07.07-.18.11-.29.03-.08.12-.26.23-.42l.09-.12c.05-.07.11-.13.17-.19.06-.06.12-.12.19-.17.06-.05.12-.1.26-.18.48-.3,1.07-.4,1.65-.27.22.05.35.11.52.19.08.04.16.08.23.13l.12.08c.13.1.32.27.37.33l.21.25.13.19c.09.13.14.22.2.33.42.77.63,1.35.88,1.97.03.34.33,1.01.3,1,.07.47.04,1.08.07,1.58.05.75.19,1.17-.31,1.83-.64.84-1.49.67-2.41.68-.28-.07-.56-.8-.65-1.07-.18-.6-.32-1.23-.47-1.86-.22-.69-.45-1.39-.69-1.95-.06-.13-.12-.26-.15-.32,0,0-.01-.01,0-.02.28-.22.45-.31.65-.51l.14-.14s.07-.06.1-.09c.06-.06.12-.14.17-.22.08-.09.1-.21.1-.22-.04-.01.19.27.64.45.12.06.23.1.36.14l.44.16s0,0-.01.02c-.02.07-.06.21-.09.37-.11.62-.2,1.41-.27,2.13-.04.35-.06.67-.08,1.05-.02.39-.06.9-.14,1.33-.14.85-.42,1.7-.76,2.45-.35.76-.69,1.39-1.08,2.08-.77,1.32-1.59,2.54-2.44,3.74l-1.29,1.79-.61.82-.19.27c-.25.36-.51.72-.77,1.07-.27.35-.5.65-.89.86-.61.32-1.12.25-1.74.06l-.54-.46c-.35-.53-.53-1.32-.26-1.92.32-.73.92-1.49,1.48-2.24,1.24-1.59,2.41-3.18,3.29-4.62.3-.5.59-1.01.84-1.5.16-.28.33-.58.49-.89.16-.3.29-.57.4-.84.22-.53.35-1.05.42-1.59Z"/>
    <path class="st0" d="M26.37,32.99c0-.12-.1-.34-.17-.46-.13-.24-.3-.6-.44-.82-.11-.17-.1-.23-.24-.11-.26-.4-.53-.8-.8-1.19,0-.16-.18-.32-.22-.41-.18-.4-.32-.96-.5-1.39-.28-.66-.56-.98-.34-1.77.26-1.01,1.09-1.22,1.95-1.56.29-.04.86.57,1.05.81.41.53.78,1.13,1.12,1.74.68,1.13,1.29,2.3,1.92,3.41.82,1.45,1.69,2.9,2.44,4.42.27.51.52,1.03.74,1.56.17.41.33.78.31,1.23-.03.71-.36,1.11-.84,1.55l-.68.22c-.64.02-1.39-.23-1.77-.74-.46-.62-.82-1.49-1.2-2.32-.33-.74-.69-1.45-1.06-2.03l-.41-.6c-.27-.51-.55-1.02-.85-1.53Z"/>
    <path class="st0" d="M21.32,21.49c-.29-.08-.89-.15-1.24-.2-.71-.09-1.74-.26-2.41-.37-.52-.09-.63-.14-.59.05-1.24-.22-2.47-.48-3.69-.79-.28-.17-.99-.3-.97-.32-.43-.22-.92-.59-1.35-.86-.65-.4-1.09-.54-1.32-1.34-.29-1.01.36-1.59.9-2.33.22-.18.95.01,1.21.1.58.2,1.16.44,1.76.68,2.72.86,5.56,1.47,8.36,1.68,2.68.18,5.41.05,8.08-.39.67-.11,1.33-.23,2-.37l.92-.21.3-.09c.4-.12.79-.23,1.18-.35.39-.11.73-.22,1.15-.17.65.08,1.03.43,1.45.92l.21.68c.01.63-.28,1.4-.87,1.75-.71.43-1.71.7-2.68.93-2.07.45-4.12.73-5.92.93-.63.08-1.25.13-1.88.19-1.53.04-3.07,0-4.6-.11Z"/>
  </g>
</svg>