<?xml version="1.0" encoding="UTF-8"?>
<svg id="Camada_1" xmlns="http://www.w3.org/2000/svg" version="1.1" viewBox="0 0 48 48">
  <!-- Generator: Adobe Illustrator 29.8.6, SVG Export Plug-In . SVG Version: 2.1.1 Build 1)  -->
  <defs>
    <style>
      .st0 {
        fill: #da6213;
      }
    </style>
  </defs>
  <path class="st0" d="M20.87.43C5.81,2.24-3.15,20.85,1.96,34.5c7.69,20.6,38.03,15.37,44.34-3.41C51.75,14.85,37.61-1.58,20.87.43ZM22.59,6.69c5.98-1.24,10.62,6.61,5.11,9.98-2.36,1.44-5.63,1.95-7.81-.1-3.07-2.9-1.25-9.05,2.7-9.87ZM26.52,22.65c.24,1.04.16,2.64.43,3.57.9,2.98,5.63,8.22,6.62,11.52.93,3.12-.76,4.47-3.41,2.7l-6.43-11.52c-.1,1.25-.85,2.51-1.46,3.59-.98,1.72-4.08,6.71-5.37,7.89-1.37,1.24-3.57,1.08-3.81-.98-.18-1.58,6.23-9.03,7.07-12.5,1.44-5.97-.25-4.27-4.47-5.13-1.35-.27-5.07-1.49-5.49-2.87-.3-.99.01-2.27.98-2.72,1.04-.47,5.97,1.45,7.65,1.75,3.02.55,6.53.76,9.6.51,2.19-.18,7.68-2.42,9.05-.69,3.25,4.08-8.93,4.79-10.97,4.88Z"/>
</svg>