<?xml version="1.0" encoding="UTF-8"?>
<svg id="Camada_1" xmlns="http://www.w3.org/2000/svg" version="1.1" viewBox="0 0 48 48">
  <!-- Generator: Adobe Illustrator 29.8.6, SVG Export Plug-In . SVG Version: 2.1.1 Build 1)  -->
  <defs>
    <style>
      .st0 {
        fill: #d96109;
      }
    </style>
  </defs>
  <path class="st0" d="M40.8,14.06c-.52.64-3.54-.1-4.39-.12-.03,1.49,1.04,5.05-1.46,5.05-2.38,0-1.75-3.62-2.04-5.16-.99.06-3.48.39-4.26-.12-1.12-.72-1.03-2.46.17-2.99.16-.07.97-.29,1.1-.29h2.87c-.23-.58-.09-1.32.01-1.91.13-.81.51-2.57,1.39-2.84.54-.16,2.06-.03,2.2.62.26,1.22-.17,2.97-.1,4.25.52-.13,1.16-.17,1.7-.12.33.06,1.9.54,2.23.7,1.1.48,1.26,2.07.58,2.93Z"/>
  <path class="st0" d="M10.32,13.31c-1.13.58-1.71,1.51-1.06,2.74-1.73.2-1.33,2.93-.77,3.99,1.94,3.65,8.03,1.71,8.47-2.06.42-3.54-3.48-6.25-6.64-4.67ZM12.23,18.11c-.46-.71-.09-1.38-1.38-1.61-.03-.22.23-.09.35-.06.26.04.64.19.87.17.52-.04,1.12-.58,1.77,0,1.07.96-.88,2.62-1.61,1.49ZM34.01,37.58c-.13-.64-.58-.75-.74-1.13-.94-2.39-1.52-5.35-2.33-7.84-.13-.39-.91-2.71-1.09-2.78-.14-.07-1.3.97-1.52,1.17-1.33,1.22-2.48,2.6-3.57,4.03l-6.44-6.42c-.43-.32-1.07-.58-1.61-.45-.16.03-.25.12-.38.2-1.16.8-3.51,5.23-4.52,6.71-.88,1.28-1.83,2.55-2.8,3.77-.49.61-2.1,2.09-2.2,2.73-.09.57.96,1.68,1.58,1.77.71.1.94-.28,1.28-.29.26-.01.86.33,1.19.39,1.81.32,3.89.1,5.71.15,4.86.09,10.15.57,14.99.23,1.29-.09,2.8-.64,2.45-2.23ZM17.25,37.32c-1.45-.28-3.13-.04-4.57-.23-.16-.03-.2.06-.17-.17l4.62-7.09,7.44,7.61-7.32-.12ZM25.96,37.2l2.41-4.22,1.35,4.22h-3.75ZM34.01,37.58c-.13-.64-.58-.75-.74-1.13-.94-2.39-1.52-5.35-2.33-7.84-.13-.39-.91-2.71-1.09-2.78-.14-.07-1.3.97-1.52,1.17-1.33,1.22-2.48,2.6-3.57,4.03l-6.44-6.42c-.43-.32-1.07-.58-1.61-.45-.16.03-.25.12-.38.2-1.16.8-3.51,5.23-4.52,6.71-.88,1.28-1.83,2.55-2.8,3.77-.49.61-2.1,2.09-2.2,2.73-.09.57.96,1.68,1.58,1.77.71.1.94-.28,1.28-.29.26-.01.86.33,1.19.39,1.81.32,3.89.1,5.71.15,4.86.09,10.15.57,14.99.23,1.29-.09,2.8-.64,2.45-2.23ZM17.25,37.32c-1.45-.28-3.13-.04-4.57-.23-.16-.03-.2.06-.17-.17l4.62-7.09,7.44,7.61-7.32-.12ZM25.96,37.2l2.41-4.22,1.35,4.22h-3.75ZM10.32,13.31c-1.13.58-1.71,1.51-1.06,2.74-1.73.2-1.33,2.93-.77,3.99,1.94,3.65,8.03,1.71,8.47-2.06.42-3.54-3.48-6.25-6.64-4.67ZM12.23,18.11c-.46-.71-.09-1.38-1.38-1.61-.03-.22.23-.09.35-.06.26.04.64.19.87.17.52-.04,1.12-.58,1.77,0,1.07.96-.88,2.62-1.61,1.49ZM10.32,13.31c-1.13.58-1.71,1.51-1.06,2.74-1.73.2-1.33,2.93-.77,3.99,1.94,3.65,8.03,1.71,8.47-2.06.42-3.54-3.48-6.25-6.64-4.67ZM12.23,18.11c-.46-.71-.09-1.38-1.38-1.61-.03-.22.23-.09.35-.06.26.04.64.19.87.17.52-.04,1.12-.58,1.77,0,1.07.96-.88,2.62-1.61,1.49ZM34.01,37.58c-.13-.64-.58-.75-.74-1.13-.94-2.39-1.52-5.35-2.33-7.84-.13-.39-.91-2.71-1.09-2.78-.14-.07-1.3.97-1.52,1.17-1.33,1.22-2.48,2.6-3.57,4.03l-6.44-6.42c-.43-.32-1.07-.58-1.61-.45-.16.03-.25.12-.38.2-1.16.8-3.51,5.23-4.52,6.71-.88,1.28-1.83,2.55-2.8,3.77-.49.61-2.1,2.09-2.2,2.73-.09.57.96,1.68,1.58,1.77.71.1.94-.28,1.28-.29.26-.01.86.33,1.19.39,1.81.32,3.89.1,5.71.15,4.86.09,10.15.57,14.99.23,1.29-.09,2.8-.64,2.45-2.23ZM17.25,37.32c-1.45-.28-3.13-.04-4.57-.23-.16-.03-.2.06-.17-.17l4.62-7.09,7.44,7.61-7.32-.12ZM25.96,37.2l2.41-4.22,1.35,4.22h-3.75ZM34.01,37.58c-.13-.64-.58-.75-.74-1.13-.94-2.39-1.52-5.35-2.33-7.84-.13-.39-.91-2.71-1.09-2.78-.14-.07-1.3.97-1.52,1.17-1.33,1.22-2.48,2.6-3.57,4.03l-6.44-6.42c-.43-.32-1.07-.58-1.61-.45-.16.03-.25.12-.38.2-1.16.8-3.51,5.23-4.52,6.71-.88,1.28-1.83,2.55-2.8,3.77-.49.61-2.1,2.09-2.2,2.73-.09.57.96,1.68,1.58,1.77.71.1.94-.28,1.28-.29.26-.01.86.33,1.19.39,1.81.32,3.89.1,5.71.15,4.86.09,10.15.57,14.99.23,1.29-.09,2.8-.64,2.45-2.23ZM17.25,37.32c-1.45-.28-3.13-.04-4.57-.23-.16-.03-.2.06-.17-.17l4.62-7.09,7.44,7.61-7.32-.12ZM25.96,37.2l2.41-4.22,1.35,4.22h-3.75ZM10.32,13.31c-1.13.58-1.71,1.51-1.06,2.74-1.73.2-1.33,2.93-.77,3.99,1.94,3.65,8.03,1.71,8.47-2.06.42-3.54-3.48-6.25-6.64-4.67ZM12.23,18.11c-.46-.71-.09-1.38-1.38-1.61-.03-.22.23-.09.35-.06.26.04.64.19.87.17.52-.04,1.12-.58,1.77,0,1.07.96-.88,2.62-1.61,1.49ZM10.32,13.31c-1.13.58-1.71,1.51-1.06,2.74-1.73.2-1.33,2.93-.77,3.99,1.94,3.65,8.03,1.71,8.47-2.06.42-3.54-3.48-6.25-6.64-4.67ZM12.23,18.11c-.46-.71-.09-1.38-1.38-1.61-.03-.22.23-.09.35-.06.26.04.64.19.87.17.52-.04,1.12-.58,1.77,0,1.07.96-.88,2.62-1.61,1.49ZM34.01,37.58c-.13-.64-.58-.75-.74-1.13-.94-2.39-1.52-5.35-2.33-7.84-.13-.39-.91-2.71-1.09-2.78-.14-.07-1.3.97-1.52,1.17-1.33,1.22-2.48,2.6-3.57,4.03l-6.44-6.42c-.43-.32-1.07-.58-1.61-.45-.16.03-.25.12-.38.2-1.16.8-3.51,5.23-4.52,6.71-.88,1.28-1.83,2.55-2.8,3.77-.49.61-2.1,2.09-2.2,2.73-.09.57.96,1.68,1.58,1.77.71.1.94-.28,1.28-.29.26-.01.86.33,1.19.39,1.81.32,3.89.1,5.71.15,4.86.09,10.15.57,14.99.23,1.29-.09,2.8-.64,2.45-2.23ZM17.25,37.32c-1.45-.28-3.13-.04-4.57-.23-.16-.03-.2.06-.17-.17l4.62-7.09,7.44,7.61-7.32-.12ZM25.96,37.2l2.41-4.22,1.35,4.22h-3.75ZM34.01,37.58c-.13-.64-.58-.75-.74-1.13-.94-2.39-1.52-5.35-2.33-7.84-.13-.39-.91-2.71-1.09-2.78-.14-.07-1.3.97-1.52,1.17-1.33,1.22-2.48,2.6-3.57,4.03l-6.44-6.42c-.43-.32-1.07-.58-1.61-.45-.16.03-.25.12-.38.2-1.16.8-3.51,5.23-4.52,6.71-.88,1.28-1.83,2.55-2.8,3.77-.49.61-2.1,2.09-2.2,2.73-.09.57.96,1.68,1.58,1.77.71.1.94-.28,1.28-.29.26-.01.86.33,1.19.39,1.81.32,3.89.1,5.71.15,4.86.09,10.15.57,14.99.23,1.29-.09,2.8-.64,2.45-2.23ZM17.25,37.32c-1.45-.28-3.13-.04-4.57-.23-.16-.03-.2.06-.17-.17l4.62-7.09,7.44,7.61-7.32-.12ZM25.96,37.2l2.41-4.22,1.35,4.22h-3.75ZM10.32,13.31c-1.13.58-1.71,1.51-1.06,2.74-1.73.2-1.33,2.93-.77,3.99,1.94,3.65,8.03,1.71,8.47-2.06.42-3.54-3.48-6.25-6.64-4.67ZM12.23,18.11c-.46-.71-.09-1.38-1.38-1.61-.03-.22.23-.09.35-.06.26.04.64.19.87.17.52-.04,1.12-.58,1.77,0,1.07.96-.88,2.62-1.61,1.49ZM10.32,13.31c-1.13.58-1.71,1.51-1.06,2.74-1.73.2-1.33,2.93-.77,3.99,1.94,3.65,8.03,1.71,8.47-2.06.42-3.54-3.48-6.25-6.64-4.67ZM12.23,18.11c-.46-.71-.09-1.38-1.38-1.61-.03-.22.23-.09.35-.06.26.04.64.19.87.17.52-.04,1.12-.58,1.77,0,1.07.96-.88,2.62-1.61,1.49ZM34.01,37.58c-.13-.64-.58-.75-.74-1.13-.94-2.39-1.52-5.35-2.33-7.84-.13-.39-.91-2.71-1.09-2.78-.14-.07-1.3.97-1.52,1.17-1.33,1.22-2.48,2.6-3.57,4.03l-6.44-6.42c-.43-.32-1.07-.58-1.61-.45-.16.03-.25.12-.38.2-1.16.8-3.51,5.23-4.52,6.71-.88,1.28-1.83,2.55-2.8,3.77-.49.61-2.1,2.09-2.2,2.73-.09.57.96,1.68,1.58,1.77.71.1.94-.28,1.28-.29.26-.01.86.33,1.19.39,1.81.32,3.89.1,5.71.15,4.86.09,10.15.57,14.99.23,1.29-.09,2.8-.64,2.45-2.23ZM17.25,37.32c-1.45-.28-3.13-.04-4.57-.23-.16-.03-.2.06-.17-.17l4.62-7.09,7.44,7.61-7.32-.12ZM25.96,37.2l2.41-4.22,1.35,4.22h-3.75ZM34.01,37.58c-.13-.64-.58-.75-.74-1.13-.94-2.39-1.52-5.35-2.33-7.84-.13-.39-.91-2.71-1.09-2.78-.14-.07-1.3.97-1.52,1.17-1.33,1.22-2.48,2.6-3.57,4.03l-6.44-6.42c-.43-.32-1.07-.58-1.61-.45-.16.03-.25.12-.38.2-1.16.8-3.51,5.23-4.52,6.71-.88,1.28-1.83,2.55-2.8,3.77-.49.61-2.1,2.09-2.2,2.73-.09.57.96,1.68,1.58,1.77.71.1.94-.28,1.28-.29.26-.01.86.33,1.19.39,1.81.32,3.89.1,5.71.15,4.86.09,10.15.57,14.99.23,1.29-.09,2.8-.64,2.45-2.23ZM17.25,37.32c-1.45-.28-3.13-.04-4.57-.23-.16-.03-.2.06-.17-.17l4.62-7.09,7.44,7.61-7.32-.12ZM25.96,37.2l2.41-4.22,1.35,4.22h-3.75ZM16.96,17.98c.42-3.54-3.48-6.25-6.64-4.67-1.13.58-1.71,1.51-1.06,2.74-1.73.2-1.33,2.93-.77,3.99,1.94,3.65,8.03,1.71,8.47-2.06ZM11.2,16.44c.26.04.64.19.87.17.52-.04,1.12-.58,1.77,0,1.07.96-.88,2.62-1.61,1.49-.46-.71-.09-1.38-1.38-1.61-.03-.22.23-.09.35-.06ZM39.75,23.93c6.02-3.1,9.35-10.57,5.81-16.8C40.95-1,28.46-1.83,23.11,5.91c-.67-.07-1.29-.41-1.96-.46-2.89-.28-6.97-.06-9.96,0-3.1.06-7,.04-9.05,2.89-1.16,1.61-.78,2.51-.52,4.23.39,2.51.39,4.6.38,7.16l-.12,1.87c-.01,6.12-.61,12.21-.81,18.31-.07,2.31-.51,4.26,1.71,5.78,2.44,1.65,8.73,1.29,11.74,1.3l1.29.12h4.33l2.1.12h5.61l1.77.12c2.74.01,7.39.7,9.35-1.58,1.17-1.36.94-2.84.94-4.51l.12-1.52c.01-3.39-.48-6.63-.46-10.06l.12-1.29c0-1.49.12-2.97.06-4.45ZM36.45,42.48c-.07.22-.1.29-.3.41-.75.44-2.58.32-3.48.32-.51-.1-1.01-.1-1.52,0-1.19-.01-2.42-.09-3.62-.12-.54-.1-1.1-.1-1.64,0-1.36-.03-2.73-.12-4.1-.12l-1.75-.12h-3.39l-1.75-.12c-1.2,0-2.42.01-3.62,0-.42-.1-.87-.1-1.29,0-1.35-.04-3.6-.01-4.8-.54-.91-.39-.7-.8-.7-1.7l.12-1.16c.03-6.09.67-12.16.7-18.27l.12-1.16c.01-3.33.2-6.71-.45-9.99,1.1-1.48,2.78-1.44,4.44-1.48l9.12-.13c1.13-.01,2.28-.03,3.39.13-1.28,2-.9,4.58-.26,6.76,1.45,4.9,5.25,8.79,10.41,9.5,1.42.19,2.84.1,4.25-.22-.1.97-.12,1.94-.12,2.91l-.12,1.75v1.75l.12,1.17c.01,1.51.28,2.73.36,4.15.12,2.02-.04,4.23-.09,6.25ZM24.7,11.65c-.04-1.03.33-1.58.43-2.48.13-.99-.23-.8-.78-1.44,1.36.22,1.59-.67,2.28-1.41,8.03-8.48,22.62,1.91,14.59,11.29-6.19,7.22-16.14,3.04-16.51-5.97ZM33.27,36.45c-.94-2.39-1.52-5.35-2.33-7.84-.13-.39-.91-2.71-1.09-2.78-.14-.07-1.3.97-1.52,1.17-1.33,1.22-2.48,2.6-3.57,4.03l-6.44-6.42c-.43-.32-1.07-.58-1.61-.45-.16.03-.25.12-.38.2-1.16.8-3.51,5.23-4.52,6.71-.88,1.28-1.83,2.55-2.8,3.77-.49.61-2.1,2.09-2.2,2.73-.09.57.96,1.68,1.58,1.77.71.1.94-.28,1.28-.29.26-.01.86.33,1.19.39,1.81.32,3.89.1,5.71.15,4.86.09,10.15.57,14.99.23,1.29-.09,2.8-.64,2.45-2.23-.13-.64-.58-.75-.74-1.13ZM17.25,37.32c-1.45-.28-3.13-.04-4.57-.23-.16-.03-.2.06-.17-.17l4.62-7.09,7.44,7.61-7.32-.12ZM25.96,37.2l2.41-4.22,1.35,4.22h-3.75ZM16.96,17.98c.42-3.54-3.48-6.25-6.64-4.67-1.13.58-1.71,1.51-1.06,2.74-1.73.2-1.33,2.93-.77,3.99,1.94,3.65,8.03,1.71,8.47-2.06ZM11.2,16.44c.26.04.64.19.87.17.52-.04,1.12-.58,1.77,0,1.07.96-.88,2.62-1.61,1.49-.46-.71-.09-1.38-1.38-1.61-.03-.22.23-.09.35-.06ZM10.32,13.31c-1.13.58-1.71,1.51-1.06,2.74-1.73.2-1.33,2.93-.77,3.99,1.94,3.65,8.03,1.71,8.47-2.06.42-3.54-3.48-6.25-6.64-4.67ZM12.23,18.11c-.46-.71-.09-1.38-1.38-1.61-.03-.22.23-.09.35-.06.26.04.64.19.87.17.52-.04,1.12-.58,1.77,0,1.07.96-.88,2.62-1.61,1.49ZM34.01,37.58c-.13-.64-.58-.75-.74-1.13-.94-2.39-1.52-5.35-2.33-7.84-.13-.39-.91-2.71-1.09-2.78-.14-.07-1.3.97-1.52,1.17-1.33,1.22-2.48,2.6-3.57,4.03l-6.44-6.42c-.43-.32-1.07-.58-1.61-.45-.16.03-.25.12-.38.2-1.16.8-3.51,5.23-4.52,6.71-.88,1.28-1.83,2.55-2.8,3.77-.49.61-2.1,2.09-2.2,2.73-.09.57.96,1.68,1.58,1.77.71.1.94-.28,1.28-.29.26-.01.86.33,1.19.39,1.81.32,3.89.1,5.71.15,4.86.09,10.15.57,14.99.23,1.29-.09,2.8-.64,2.45-2.23ZM17.25,37.32c-1.45-.28-3.13-.04-4.57-.23-.16-.03-.2.06-.17-.17l4.62-7.09,7.44,7.61-7.32-.12ZM25.96,37.2l2.41-4.22,1.35,4.22h-3.75ZM34.01,37.58c-.13-.64-.58-.75-.74-1.13-.94-2.39-1.52-5.35-2.33-7.84-.13-.39-.91-2.71-1.09-2.78-.14-.07-1.3.97-1.52,1.17-1.33,1.22-2.48,2.6-3.57,4.03l-6.44-6.42c-.43-.32-1.07-.58-1.61-.45-.16.03-.25.12-.38.2-1.16.8-3.51,5.23-4.52,6.71-.88,1.28-1.83,2.55-2.8,3.77-.49.61-2.1,2.09-2.2,2.73-.09.57.96,1.68,1.58,1.77.71.1.94-.28,1.28-.29.26-.01.86.33,1.19.39,1.81.32,3.89.1,5.71.15,4.86.09,10.15.57,14.99.23,1.29-.09,2.8-.64,2.45-2.23ZM17.25,37.32c-1.45-.28-3.13-.04-4.57-.23-.16-.03-.2.06-.17-.17l4.62-7.09,7.44,7.61-7.32-.12ZM25.96,37.2l2.41-4.22,1.35,4.22h-3.75ZM10.32,13.31c-1.13.58-1.71,1.51-1.06,2.74-1.73.2-1.33,2.93-.77,3.99,1.94,3.65,8.03,1.71,8.47-2.06.42-3.54-3.48-6.25-6.64-4.67ZM12.23,18.11c-.46-.71-.09-1.38-1.38-1.61-.03-.22.23-.09.35-.06.26.04.64.19.87.17.52-.04,1.12-.58,1.77,0,1.07.96-.88,2.62-1.61,1.49ZM10.32,13.31c-1.13.58-1.71,1.51-1.06,2.74-1.73.2-1.33,2.93-.77,3.99,1.94,3.65,8.03,1.71,8.47-2.06.42-3.54-3.48-6.25-6.64-4.67ZM12.23,18.11c-.46-.71-.09-1.38-1.38-1.61-.03-.22.23-.09.35-.06.26.04.64.19.87.17.52-.04,1.12-.58,1.77,0,1.07.96-.88,2.62-1.61,1.49ZM34.01,37.58c-.13-.64-.58-.75-.74-1.13-.94-2.39-1.52-5.35-2.33-7.84-.13-.39-.91-2.71-1.09-2.78-.14-.07-1.3.97-1.52,1.17-1.33,1.22-2.48,2.6-3.57,4.03l-6.44-6.42c-.43-.32-1.07-.58-1.61-.45-.16.03-.25.12-.38.2-1.16.8-3.51,5.23-4.52,6.71-.88,1.28-1.83,2.55-2.8,3.77-.49.61-2.1,2.09-2.2,2.73-.09.57.96,1.68,1.58,1.77.71.1.94-.28,1.28-.29.26-.01.86.33,1.19.39,1.81.32,3.89.1,5.71.15,4.86.09,10.15.57,14.99.23,1.29-.09,2.8-.64,2.45-2.23ZM17.25,37.32c-1.45-.28-3.13-.04-4.57-.23-.16-.03-.2.06-.17-.17l4.62-7.09,7.44,7.61-7.32-.12ZM25.96,37.2l2.41-4.22,1.35,4.22h-3.75ZM34.01,37.58c-.13-.64-.58-.75-.74-1.13-.94-2.39-1.52-5.35-2.33-7.84-.13-.39-.91-2.71-1.09-2.78-.14-.07-1.3.97-1.52,1.17-1.33,1.22-2.48,2.6-3.57,4.03l-6.44-6.42c-.43-.32-1.07-.58-1.61-.45-.16.03-.25.12-.38.2-1.16.8-3.51,5.23-4.52,6.71-.88,1.28-1.83,2.55-2.8,3.77-.49.61-2.1,2.09-2.2,2.73-.09.57.96,1.68,1.58,1.77.71.1.94-.28,1.28-.29.26-.01.86.33,1.19.39,1.81.32,3.89.1,5.71.15,4.86.09,10.15.57,14.99.23,1.29-.09,2.8-.64,2.45-2.23ZM17.25,37.32c-1.45-.28-3.13-.04-4.57-.23-.16-.03-.2.06-.17-.17l4.62-7.09,7.44,7.61-7.32-.12ZM25.96,37.2l2.41-4.22,1.35,4.22h-3.75ZM10.32,13.31c-1.13.58-1.71,1.51-1.06,2.74-1.73.2-1.33,2.93-.77,3.99,1.94,3.65,8.03,1.71,8.47-2.06.42-3.54-3.48-6.25-6.64-4.67ZM12.23,18.11c-.46-.71-.09-1.38-1.38-1.61-.03-.22.23-.09.35-.06.26.04.64.19.87.17.52-.04,1.12-.58,1.77,0,1.07.96-.88,2.62-1.61,1.49ZM10.32,13.31c-1.13.58-1.71,1.51-1.06,2.74-1.73.2-1.33,2.93-.77,3.99,1.94,3.65,8.03,1.71,8.47-2.06.42-3.54-3.48-6.25-6.64-4.67ZM12.23,18.11c-.46-.71-.09-1.38-1.38-1.61-.03-.22.23-.09.35-.06.26.04.64.19.87.17.52-.04,1.12-.58,1.77,0,1.07.96-.88,2.62-1.61,1.49ZM34.01,37.58c-.13-.64-.58-.75-.74-1.13-.94-2.39-1.52-5.35-2.33-7.84-.13-.39-.91-2.71-1.09-2.78-.14-.07-1.3.97-1.52,1.17-1.33,1.22-2.48,2.6-3.57,4.03l-6.44-6.42c-.43-.32-1.07-.58-1.61-.45-.16.03-.25.12-.38.2-1.16.8-3.51,5.23-4.52,6.71-.88,1.28-1.83,2.55-2.8,3.77-.49.61-2.1,2.09-2.2,2.73-.09.57.96,1.68,1.58,1.77.71.1.94-.28,1.28-.29.26-.01.86.33,1.19.39,1.81.32,3.89.1,5.71.15,4.86.09,10.15.57,14.99.23,1.29-.09,2.8-.64,2.45-2.23ZM17.25,37.32c-1.45-.28-3.13-.04-4.57-.23-.16-.03-.2.06-.17-.17l4.62-7.09,7.44,7.61-7.32-.12ZM25.96,37.2l2.41-4.22,1.35,4.22h-3.75ZM34.01,37.58c-.13-.64-.58-.75-.74-1.13-.94-2.39-1.52-5.35-2.33-7.84-.13-.39-.91-2.71-1.09-2.78-.14-.07-1.3.97-1.52,1.17-1.33,1.22-2.48,2.6-3.57,4.03l-6.44-6.42c-.43-.32-1.07-.58-1.61-.45-.16.03-.25.12-.38.2-1.16.8-3.51,5.23-4.52,6.71-.88,1.28-1.83,2.55-2.8,3.77-.49.61-2.1,2.09-2.2,2.73-.09.57.96,1.68,1.58,1.77.71.1.94-.28,1.28-.29.26-.01.86.33,1.19.39,1.81.32,3.89.1,5.71.15,4.86.09,10.15.57,14.99.23,1.29-.09,2.8-.64,2.45-2.23ZM17.25,37.32c-1.45-.28-3.13-.04-4.57-.23-.16-.03-.2.06-.17-.17l4.62-7.09,7.44,7.61-7.32-.12ZM25.96,37.2l2.41-4.22,1.35,4.22h-3.75ZM10.32,13.31c-1.13.58-1.71,1.51-1.06,2.74-1.73.2-1.33,2.93-.77,3.99,1.94,3.65,8.03,1.71,8.47-2.06.42-3.54-3.48-6.25-6.64-4.67ZM12.23,18.11c-.46-.71-.09-1.38-1.38-1.61-.03-.22.23-.09.35-.06.26.04.64.19.87.17.52-.04,1.12-.58,1.77,0,1.07.96-.88,2.62-1.61,1.49Z"/>
  <path class="st0" d="M10.32,13.31c-1.13.58-1.71,1.51-1.06,2.74-1.73.2-1.33,2.93-.77,3.99,1.94,3.65,8.03,1.71,8.47-2.06.42-3.54-3.48-6.25-6.64-4.67ZM12.23,18.11c-.46-.71-.09-1.38-1.38-1.61-.03-.22.23-.09.35-.06.26.04.64.19.87.17.52-.04,1.12-.58,1.77,0,1.07.96-.88,2.62-1.61,1.49Z"/>
  <path class="st0" d="M34.01,37.58c-.13-.64-.58-.75-.74-1.13-.94-2.39-1.52-5.35-2.33-7.84-.13-.39-.91-2.71-1.09-2.78-.14-.07-1.3.97-1.52,1.17-1.33,1.22-2.48,2.6-3.57,4.03l-6.44-6.42c-.43-.32-1.07-.58-1.61-.45-.16.03-.25.12-.38.2-1.16.8-3.51,5.23-4.52,6.71-.88,1.28-1.83,2.55-2.8,3.77-.49.61-2.1,2.09-2.2,2.73-.09.57.96,1.68,1.58,1.77.71.1.94-.28,1.28-.29.26-.01.86.33,1.19.39,1.81.32,3.89.1,5.71.15,4.86.09,10.15.57,14.99.23,1.29-.09,2.8-.64,2.45-2.23ZM17.25,37.32c-1.45-.28-3.13-.04-4.57-.23-.16-.03-.2.06-.17-.17l4.62-7.09,7.44,7.61-7.32-.12ZM25.96,37.2l2.41-4.22,1.35,4.22h-3.75Z"/>
  <path class="st0" d="M40.8,14.06c-.52.64-3.54-.1-4.39-.12-.03,1.49,1.04,5.05-1.46,5.05-2.38,0-1.75-3.62-2.04-5.16-.99.06-3.48.39-4.26-.12-1.12-.72-1.03-2.46.17-2.99.16-.07.97-.29,1.1-.29h2.87c-.23-.58-.09-1.32.01-1.91.13-.81.51-2.57,1.39-2.84.54-.16,2.06-.03,2.2.62.26,1.22-.17,2.97-.1,4.25.52-.13,1.16-.17,1.7-.12.33.06,1.9.54,2.23.7,1.1.48,1.26,2.07.58,2.93Z"/>
  <path class="st0" d="M34.01,37.58c-.13-.64-.58-.75-.74-1.13-.94-2.39-1.52-5.35-2.33-7.84-.13-.39-.91-2.71-1.09-2.78-.14-.07-1.3.97-1.52,1.17-1.33,1.22-2.48,2.6-3.57,4.03l-6.44-6.42c-.43-.32-1.07-.58-1.61-.45-.16.03-.25.12-.38.2-1.16.8-3.51,5.23-4.52,6.71-.88,1.28-1.83,2.55-2.8,3.77-.49.61-2.1,2.09-2.2,2.73-.09.57.96,1.68,1.58,1.77.71.1.94-.28,1.28-.29.26-.01.86.33,1.19.39,1.81.32,3.89.1,5.71.15,4.86.09,10.15.57,14.99.23,1.29-.09,2.8-.64,2.45-2.23ZM17.25,37.32c-1.45-.28-3.13-.04-4.57-.23-.16-.03-.2.06-.17-.17l4.62-7.09,7.44,7.61-7.32-.12ZM25.96,37.2l2.41-4.22,1.35,4.22h-3.75Z"/>
  <path class="st0" d="M10.32,13.31c-1.13.58-1.71,1.51-1.06,2.74-1.73.2-1.33,2.93-.77,3.99,1.94,3.65,8.03,1.71,8.47-2.06.42-3.54-3.48-6.25-6.64-4.67ZM12.23,18.11c-.46-.71-.09-1.38-1.38-1.61-.03-.22.23-.09.35-.06.26.04.64.19.87.17.52-.04,1.12-.58,1.77,0,1.07.96-.88,2.62-1.61,1.49Z"/>
</svg>