<?xml version="1.0" encoding="UTF-8"?>
<svg id="Camada_1" xmlns="http://www.w3.org/2000/svg" version="1.1" viewBox="0 0 48 48">
  <!-- Generator: Adobe Illustrator 29.8.6, SVG Export Plug-In . SVG Version: 2.1.1 Build 1)  -->
  <defs>
    <style>
      .st0 {
        fill: #dc620b;
      }
    </style>
  </defs>
  <path class="st0" d="M42.73,33.18c.09-2.06.2-6.34.26-8.8.06-2.53.13-5.62.2-8.68.03-1.53.07-3.05.1-4.49,0-.12,0-.23,0-.34,0-.02,0-.05,0-.07-.03-.04-.09-.01-.12-.02-1.77,0-2.84,0-3.44,0-.61.01-.69.05-.43.14l-26.57-.07c-1.2-.05-2.8-.06-4.49-.07-.55,0-1.12,0-1.68,0-.04,0-.07,0-.1,0-.45-.09-1-.31-1.48-.43-.71-.19-1.16-.17-1.64-.85-.61-.86-.21-1.62.06-2.5.15-.25.94-.3,1.23-.3.38,0,.77.03,1.16.07l.59.06.15.02h.07s1.77.02,1.77.02l7.14.05c9.77.07,19.56.15,29.28.22.26.03.52.06.72.16.21.09.37.16.57.32.39.31.64.73.76,1.16.15.44.14,1.01.12,1.53l-.03,1.18-.08,3.55c-.05,2.36-.1,4.72-.16,7.08-.1,4.71-.2,9.4-.3,14.06-.05,2.65-.1,5.31-.16,7.97,0,.28-.11.48-.15.73-.08.22-.08.49-.22.68l-.64.43-.32.21c-.1.07-.23.07-.35.11l-.71.19c-.26.03-.55,0-.83.01h-1.15s-3.69-.01-3.69-.01c-4.93,0-9.86.02-14.8.03-4.93.04-9.89.08-14.79.26-1.22.05-2.46.1-3.58.22-.25.03-.54.08-.51.08.05-.02-.27.12-.46.18-.25.07-.47.17-.99.19-.25-.01-.74.03-1.38-.48-.31-.25-.53-.66-.61-.96-.08-.31-.08-.53-.07-.71.03-.35.1-.53.15-.69.05-.15.13-.32.12-.3,0-.02.02-.04.02-.06v-.23s.17-7.42.17-7.42l.19-8.16.09-4.08-.02-4.08-.05-8.16v-1.02s0-.1,0-.1v-.02s0-.08,0-.08v-.17c-.05-.45-.08-.9-.09-1.35-.01-.43-.03-.8.13-1.2.26-.63.69-.91,1.29-1.18h.71c.61.16,1.26.63,1.44,1.27.16.53.22,1.17.25,1.83l.02.5v.25c.01.87.02,1.74.02,2.6,0,3.98.06,7.93.02,11.82-.09,3.89-.19,7.72-.28,11.46-.03,1.46-.07,2.9-.1,4.33-.02.71-.03,1.42-.05,2.12l-.02,1.05-.02.87c.03.18-.08.31-.17.46-.08.12-.19.38-.19.31-.47-.19-.88-.32-1.18-.37-.31-.06-.5,0-.49.02.1,0,.17-.79-.08-1.66-.02-.07-.02-.07-.02-.07h0s.01,0,.01,0h.04s.12-.06.12-.06c.24-.12.64-.2.9-.28l.64-.09.55-.05c.37-.04.71-.06,1.06-.08,1.39-.09,2.72-.14,4.04-.18,4.46-.15,8.9-.21,13.34-.27h16.19s2.02,0,2.02,0h.79s0,0,0,0h0s0,0,0,0v-.48s.03-1.01.03-1.01l.16-8.08Z"/>
  <path class="st0" d="M20.77,19.78c-.45-.06-1.38-.09-1.91-.1-1.1-.02-2.69-.05-3.73-.04-.81,0-.99-.03-.88.15l-5.76.11c-.47-.08-1.62.02-1.47-.01-.45-.08-1.01-.28-1.49-.38-.72-.16-1.16-.13-1.66-.78-.65-.83-.28-1.61-.04-2.5.14-.26.93-.34,1.23-.35.38,0,.77,0,1.17.02l.59.04h.15s.07.02.07.02h.39s1.57-.01,1.57-.01c4.18-.01,8.36.04,12.45.09,4.52.06,9.08.11,13.65.26l3.43.12,1.58.06h.33c.43-.01.87-.01,1.3,0,.43.02.81.02,1.2.21.62.3.85.76,1.08,1.36l-.05.71c-.22.6-.75,1.21-1.39,1.35-.78.17-1.76.13-2.71.1-3.24-.18-6.41-.3-9.17-.33h-2.89c-2.34-.06-4.68-.09-7.02-.11Z"/>
  <path class="st0" d="M18.87,9.36c-.06.06-.1.19-.12.26-.04.15-.1.37-.11.52-.01.11-.05.14.13.14l-.07.8c-.1.07-.04.18-.08.31-.12.41-.36.91-.48,1.35-.19.67-.15,1.06-.78,1.57-.8.67-1.59.39-2.5.15-.28-.14-.37-1.03-.36-1.35,0-.71.09-1.43.22-2.13.15-.74.35-1.47.46-2.17.13-.92.15-1.85.18-2.75.04-.55.07-1.09.1-1.6.03-.41.05-.76.24-1.12.31-.57.75-.8,1.36-1.04l.71.03c.6.2,1.23.74,1.35,1.43.16.83.05,1.85-.05,2.81-.05.48-.1.95-.09,1.36l.04.43-.13,1.01Z"/>
  <path class="st0" d="M34.85,9.36c-.06.06-.1.19-.12.26-.04.15-.1.37-.11.52-.01.11-.05.14.13.14l-.07.8c-.1.07-.04.18-.08.31-.12.41-.36.91-.48,1.35-.19.67-.15,1.06-.78,1.57-.8.67-1.59.39-2.5.15-.28-.14-.37-1.03-.36-1.35,0-.71.09-1.43.22-2.13.15-.74.35-1.47.46-2.17.13-.92.15-1.85.18-2.75.04-.55.07-1.09.1-1.6.03-.41.05-.76.24-1.12.31-.57.75-.8,1.36-1.04l.71.03c.6.2,1.23.74,1.35,1.43.16.83.05,1.85-.05,2.81-.05.48-.1.95-.09,1.36l.04.43-.13,1.01Z"/>
</svg>