<?xml version="1.0" encoding="UTF-8"?>
<svg id="Camada_1" xmlns="http://www.w3.org/2000/svg" version="1.1" viewBox="0 0 48 48">
  <!-- Generator: Adobe Illustrator 29.8.6, SVG Export Plug-In . SVG Version: 2.1.1 Build 1)  -->
  <defs>
    <style>
      .st0 {
        fill: #dc620b;
      }

      .st1 {
        stroke: #dc620b;
        stroke-miterlimit: 10;
        stroke-width: 2px;
      }

      .st1, .st2 {
        fill: #fad5ce;
      }
    </style>
  </defs>
  <g>
    <path class="st2" d="M17.89,26.39c-1.96,11.84-3.37,16.38-4.33,18.21-.13.25-1.02,1.91-.83,2.04.15.1.86-.73,1.39-1.34,0,0,4.53-5.26,9.09-8.28.26-.17.47-.17.53-.16.28.02.47.21.51.24.36.33,4.6,5.57,10.59,9.58.16.18.28.25.36.22.6-.23-1.22-8.85-5.25-20.98"/>
    <path class="st0" d="M20.17,40.68c-.72.58-2.13,1.9-2.92,2.7-.81.81-1.78,1.82-2.68,2.87-.24.27-.48.54-.77.83-.07.07-.16.15-.27.24-.08.05-.1.09-.26.17l-.1.05c-.07.03-.15.05-.23.07l-.12.02c-.07,0-.18,0-.28-.02-.2-.04-.37-.13-.49-.26-.13-.13-.24-.32-.28-.48-.03-.13-.02-.13-.03-.2,0-.1,0-.25,0-.27.01-.09.04-.2.06-.25.04-.13.07-.22.11-.32.28-.7.6-1.26.84-1.73.65-1.41.74-1.83.59-1.62,1.24-3.72,2-7.74,2.74-11.7.12-.53.25-1.25.39-2.01.04-.25.09-.5.13-.76,0-.02,0-.03.01-.05.08-.21.24-.47.34-.69.15-.34.18-.55.55-.74.47-.23.82.03,1.23.23.11.09.07.49.04.63-.03.19-.08.38-.13.57l-.08.29-.02.07v.04s-.15.8-.15.8l-.6,3.23c-.42,2.15-.87,4.31-1.4,6.45-.26,1.07-.55,2.14-.88,3.21-.33,1.06-.71,2.15-1.27,3.18-.24.46-.5.96-.64,1.36l-.03.09c.06,0-.17-.04-.27-.05-.15,0-.21-.04-.29-.04-.18,0-.28.05-.25.03,0,0,0-.07-.02-.13-.02-.04-.06-.14-.1-.22l-.17-.27c-.1-.16-.04-.07-.06-.09l.08-.07c.15-.14.33-.33.5-.52.69-.8,1.46-1.64,2.21-2.42,1.52-1.57,3.1-3.07,4.78-4.47.83-.67,1.66-1.33,2.56-1.93.3-.24.8-.48,1.24-.43.46.03.88.28,1.19.64l1.07,1.19c1.76,1.93,3.64,3.75,5.66,5.42,1.01.83,2.04,1.63,3.12,2.36l.41.28c.07.06.14.08.19.14l.09.09c.07-.07-.16.19-.23.32-.09.14-.14.26-.13.32.08.08-.2-.17-.72-.23v-.1c0-.12,0-.26-.02-.41-.06-.6-.17-1.25-.29-1.89-.55-2.81-1.31-5.63-2.1-8.42-.4-1.4-.81-2.79-1.24-4.18l-1.11-3.48c-.1-.24-.2-.49-.29-.73-.07-.2-.14-.37-.12-.59.02-.34.19-.54.43-.75l.34-.11c.32-.01.7.12.89.39.18.26.32.6.44.95l.09.26c.22.7.45,1.4.67,2.1.3.98.6,1.96.9,2.92,1.15,3.89,2.2,7.67,2.92,11.3.09.47.17.92.24,1.37.06.47.13.87.11,1.47-.01.12-.01.21-.07.4-.02.06-.04.12-.07.18-.04.07-.02.08-.15.25-.22.27-.59.43-.89.4-.54-.07-.61-.23-.75-.3-.11-.09-.2-.18-.17-.16l-.53-.36c-.43-.29-.85-.6-1.27-.9-.84-.62-1.65-1.27-2.44-1.93-1.86-1.6-3.62-3.31-5.26-5.12l-1.03-1.15-.57.4c-1,.71-1.96,1.5-2.89,2.32Z"/>
  </g>
  <path class="st1" d="M35.31,22.06l-2.4,1.05c-.45.19-.81.54-1.02.98l-1.14,2.36c-.23.47-.73.73-1.24.65l-2.59-.42c-.48-.08-.97.02-1.39.27l-2.23,1.37c-.44.27-1.01.22-1.39-.13l-1.95-1.75c-.36-.32-.83-.51-1.31-.52l-2.62-.06c-.52-.01-.97-.36-1.1-.86l-.7-2.53c-.13-.47-.42-.88-.82-1.15l-2.17-1.46c-.43-.29-.62-.83-.46-1.32l.78-2.5c.14-.46.12-.96-.07-1.41l-1.04-2.41c-.21-.48-.07-1.03.32-1.36l2.01-1.68c.37-.31.62-.75.7-1.23l.43-2.59c.08-.51.5-.91,1.01-.97l2.6-.33c.48-.06.93-.29,1.25-.65l1.76-1.94c.35-.38.91-.49,1.37-.27l2.36,1.13c.44.21.94.25,1.41.13l2.53-.68c.5-.14,1.03.07,1.3.51l1.38,2.23c.26.41.65.72,1.11.87l2.5.79c.49.16.83.62.82,1.14l-.04,2.62c0,.49.16.96.47,1.33l1.67,2.02c.33.4.36.97.07,1.4l-1.45,2.18c-.27.4-.39.89-.33,1.37l.32,2.6c.06.51-.22,1.01-.69,1.22Z"/>
  <path class="st0" d="M19.01,9.96c-.45.44-1.17,1.57-1.44,2.29-.31.72-.58,1.65-.66,2.58-.1.92.03,1.87.2,2.58.3,1.1.46,1.31.46,1.14.53,1.21,1.42,2.2,2.56,2.83,1.13.63,2.49.86,3.82.74.36,0,.85-.08,1.35-.22.13-.03.25-.07.38-.11l.12-.04s.03,0,.04-.01c.21-.01.48-.01.7-.04.35-.03.51-.15.88.05.47.24.49.66.56,1.12-.01.15-.39.37-.54.43-.19.08-.4.15-.6.22-.1.03-.21.05-.32.08l-.08.02h-.04c-.2.08-.42.15-.64.2-.87.23-1.78.34-2.69.32-1.82-.04-3.67-.67-5.09-1.87-1.44-1.19-2.35-2.91-2.71-4.65-.38-1.73-.27-3.6.3-5.26.55-1.67,1.49-3.19,2.77-4.39.71-.66,1.51-1.23,2.41-1.65.9-.41,1.87-.66,2.85-.74,1.98-.15,3.99.43,5.59,1.54,1.62,1.1,2.91,2.66,3.64,4.5.77,1.82.8,4,.14,5.86-.62,1.86-1.85,3.58-3.55,4.67-.42.28-.87.5-1.32.71-.23.1-.46.19-.7.27l-.45.14-.17.06c-.23.08-.46.14-.69.19-.23.05-.44.09-.67.03-.37-.09-.53-.31-.67-.6v-.36c.08-.31.29-.63.56-.76.27-.12.61-.2.95-.3l.13-.04.06-.02.1-.03c.17-.06.35-.1.51-.17,1.36-.5,2.5-1.42,3.28-2.57.77-1.17,1.23-2.55,1.26-3.85.01-1.3-.36-2.56-1.02-3.61-.69-1.16-1.71-2.13-2.86-2.82-1.41-.81-3.06-1.18-4.63-.87-1.57.28-3.01,1.17-4.07,2.44Z"/>
  <path class="st0" d="M23.83,17.28c-.15.17-.46.39-.63.54-.18.19-.39.23-.63.26-.26.03-.51-.06-.64-.13-.24-.13-.29-.24-.29-.1-.3-.27-.54-.73-.8-1.07l-.39-.57c-.03-.12-.2-.32-.2-.34-.09-.21-.16-.5-.24-.73-.13-.35-.26-.53-.12-.91.18-.49.61-.55,1.05-.68.15,0,.39.3.47.42.18.27.34.56.5.85.15.24.3.49.45.73.11.17.09.15.09.17l.02.06c.04.15.14.03.21-.04.99-1.08,2.16-2.18,3.42-3.07.23-.18.46-.35.71-.51.19-.12.36-.23.58-.26.35-.05.58.08.83.28l.16.32c.06.31,0,.7-.22.94-.27.28-.66.53-1.03.79-.61.41-1.17.86-1.62,1.3l-.45.47c-.19.18-.38.36-.57.55l-.27.29-.39.44Z"/>
</svg>