<?xml version="1.0" encoding="UTF-8"?>
<svg id="Camada_1" xmlns="http://www.w3.org/2000/svg" version="1.1" viewBox="0 0 48 48">
  <!-- Generator: Adobe Illustrator 29.8.6, SVG Export Plug-In . SVG Version: 2.1.1 Build 1)  -->
  <defs>
    <style>
      .st0 {
        fill: #d96213;
        stroke: #dc620b;
        stroke-miterlimit: 10;
        stroke-width: 2px;
      }

      .st1 {
        fill: #dc620b;
      }

      .st2 {
        fill: #fad5ce;
      }
    </style>
  </defs>
  <g>
    <path class="st2" d="M17.89,26.39c-1.96,11.84-3.37,16.38-4.33,18.21-.13.25-1.02,1.91-.83,2.04.15.1.86-.73,1.39-1.34,0,0,4.53-5.26,9.09-8.28.26-.17.47-.17.53-.16.28.02.47.21.51.24.36.33,4.6,5.57,10.59,9.58.16.18.28.25.36.22.6-.23-1.22-8.85-5.25-20.98"/>
    <path class="st1" d="M20.17,40.68c-.72.58-2.13,1.9-2.92,2.7-.81.81-1.78,1.82-2.68,2.87-.24.27-.48.54-.77.83-.07.07-.16.15-.27.24-.08.05-.1.09-.26.17l-.1.05c-.07.03-.15.05-.23.07l-.12.02c-.07,0-.18,0-.28-.02-.2-.04-.37-.13-.49-.26-.13-.13-.24-.32-.28-.48-.03-.13-.02-.13-.03-.2,0-.1,0-.25,0-.27.01-.09.04-.2.06-.25.04-.13.07-.22.11-.32.28-.7.6-1.26.84-1.73.65-1.41.74-1.83.59-1.62,1.24-3.72,2-7.74,2.74-11.7.12-.53.25-1.25.39-2.01.04-.25.09-.5.13-.76,0-.02,0-.03.01-.05.08-.21.24-.47.34-.69.15-.34.18-.55.55-.74.47-.23.82.03,1.23.23.11.09.07.49.04.63-.03.19-.08.38-.13.57l-.08.29-.02.07v.04s-.15.8-.15.8l-.6,3.23c-.42,2.15-.87,4.31-1.4,6.45-.26,1.07-.55,2.14-.88,3.21-.33,1.06-.71,2.15-1.27,3.18-.24.46-.5.96-.64,1.36l-.03.09c.06,0-.17-.04-.27-.05-.15,0-.21-.04-.29-.04-.18,0-.28.05-.25.03,0,0,0-.07-.02-.13-.02-.04-.06-.14-.1-.22l-.17-.27c-.1-.16-.04-.07-.06-.09l.08-.07c.15-.14.33-.33.5-.52.69-.8,1.46-1.64,2.21-2.42,1.52-1.57,3.1-3.07,4.78-4.47.83-.67,1.66-1.33,2.56-1.93.3-.24.8-.48,1.24-.43.46.03.88.28,1.19.64l1.07,1.19c1.76,1.93,3.64,3.75,5.66,5.42,1.01.83,2.04,1.63,3.12,2.36l.41.28c.07.06.14.08.19.14l.09.09c.07-.07-.16.19-.23.32-.09.14-.14.26-.13.32.08.08-.2-.17-.72-.23v-.1c0-.12,0-.26-.02-.41-.06-.6-.17-1.25-.29-1.89-.55-2.81-1.31-5.63-2.1-8.42-.4-1.4-.81-2.79-1.24-4.18l-1.11-3.48c-.1-.24-.2-.49-.29-.73-.07-.2-.14-.37-.12-.59.02-.34.19-.54.43-.75l.34-.11c.32-.01.7.12.89.39.18.26.32.6.44.95l.09.26c.22.7.45,1.4.67,2.1.3.98.6,1.96.9,2.92,1.15,3.89,2.2,7.67,2.92,11.3.09.47.17.92.24,1.37.06.47.13.87.11,1.47-.01.12-.01.21-.07.4-.02.06-.04.12-.07.18-.04.07-.02.08-.15.25-.22.27-.59.43-.89.4-.54-.07-.61-.23-.75-.3-.11-.09-.2-.18-.17-.16l-.53-.36c-.43-.29-.85-.6-1.27-.9-.84-.62-1.65-1.27-2.44-1.93-1.86-1.6-3.62-3.31-5.26-5.12l-1.03-1.15-.57.4c-1,.71-1.96,1.5-2.89,2.32Z"/>
  </g>
  <path class="st0" d="M37.39,13.29l-1.67-2.02c-.31-.37-.47-.85-.47-1.33l.05-2.62c.01-.52-.32-.98-.82-1.14l-2.5-.79c-.46-.15-.85-.46-1.11-.87l-1.38-2.23c-.27-.44-.8-.65-1.3-.51l-2.53.68c-.47.13-.97.08-1.41-.13l-2.36-1.13c-.47-.22-1.03-.11-1.38.28l-1.75,1.94c-.33.36-.77.59-1.26.65l-2.6.33c-.51.06-.92.46-1.01.97l-.42,2.59c-.08.47-.33.91-.71,1.22l-2,1.68c-.4.34-.53.89-.33,1.37l1.04,2.4c.19.45.22.95.07,1.41l-.78,2.5c-.15.5.03,1.04.46,1.33l2.18,1.46c.4.27.69.68.82,1.15l.7,2.52c.13.5.58.85,1.1.86l2.62.06c.49.01.95.19,1.31.52l1.96,1.75c.38.34.95.4,1.39.13l2.23-1.37c.42-.26.91-.35,1.39-.28l2.59.42c.51.08,1.01-.18,1.24-.65l1.14-2.36c.21-.43.57-.78,1.02-.98l2.4-1.04c.47-.21.76-.7.69-1.22l-.31-2.6c-.06-.48.05-.97.32-1.37l1.46-2.18c.29-.43.26-1-.08-1.4ZM31.03,19.32c-.97,1.38-2.19,2.19-3.29,2.67-3.46,1.9-7.35,1.48-9.69-.9-2.1-2.14-2.15-5.04-2.14-5.75.05-4.05,3.07-8.49,7.58-8.93,4.58-.45,8.58,3.41,9.02,7.48.3,2.78-1.14,4.96-1.48,5.43Z"/>
  <g>
    <path class="st2" d="M31.03,19.32c-.97,1.38-2.19,2.19-3.29,2.67-3.46,1.9-7.35,1.48-9.69-.9-2.1-2.14-2.15-5.04-2.14-5.75.05-4.05,3.07-8.49,7.58-8.93,4.58-.45,8.58,3.41,9.02,7.48.3,2.78-1.14,4.96-1.48,5.43Z"/>
    <path class="st1" d="M16.59,14.48c-.04.32-.09.81-.07,1.31.01.51.09,1.03.17,1.41.16.77.47,1.69.99,2.48.5.8,1.19,1.43,1.8,1.83.97.6,1.25.63,1.11.54,1.25.52,2.66.64,4.01.4.68-.11,1.34-.31,1.98-.58.35-.13.57-.28.99-.47.31-.14.61-.3.9-.48.32-.18.72-.47,1.1-.82.1-.09.19-.18.28-.28l.08-.09.02-.02c.11-.07.25-.15.37-.23.17-.12.24-.22.49-.22.31,0,.44.23.6.45.03.08-.11.3-.17.37-.08.1-.16.19-.25.28l-.14.13-.04.03-.02.02c-.14.15-.29.3-.45.44-.63.58-1.35,1.05-2.11,1.41-.67.32-1.48.73-2.27.95-.81.23-1.65.36-2.49.38-1.68.03-3.4-.43-4.79-1.43-1.4-.98-2.37-2.49-2.85-4.07-.47-1.58-.54-3.29-.15-4.88.4-1.77,1.28-3.4,2.51-4.74,1.25-1.32,2.9-2.32,4.74-2.61,1.82-.33,3.75.05,5.35.94,1.62.88,2.94,2.24,3.82,3.86.87,1.61,1.25,3.57.87,5.4-.08.46-.21.9-.37,1.34-.08.22-.16.43-.26.64l-.19.39-.04.1c-.06.13-.11.25-.18.37-.07.12-.12.23-.24.31-.18.13-.34.13-.53.09l-.17-.13c-.12-.15-.2-.37-.15-.55.05-.18.15-.38.24-.58l.32-.71c.57-1.37.73-2.86.41-4.25-.64-2.81-2.88-4.99-5.21-5.82-1.29-.43-2.7-.54-4.01-.19-1.61.37-3.02,1.4-4.08,2.7-1.03,1.32-1.74,2.93-1.93,4.59Z"/>
  </g>
  <path class="st1" d="M23.83,17.28c-.15.17-.46.39-.63.54-.18.19-.39.23-.63.26-.26.03-.51-.06-.64-.13-.24-.13-.29-.24-.29-.1-.3-.27-.54-.73-.8-1.07l-.39-.57c-.03-.12-.2-.32-.2-.34-.09-.21-.16-.5-.24-.73-.13-.35-.26-.53-.12-.91.18-.49.61-.55,1.05-.68.15,0,.39.3.47.42.18.27.34.56.5.85.15.24.3.49.45.73.11.17.09.15.09.17l.02.06c.04.15.14.03.21-.04.99-1.08,2.16-2.18,3.42-3.07.23-.18.46-.35.71-.51.19-.12.36-.23.58-.26.35-.05.58.08.83.28l.16.32c.06.31,0,.7-.22.94-.27.28-.66.53-1.03.79-.61.41-1.17.86-1.62,1.3l-.45.47c-.19.18-.38.36-.57.55l-.27.29-.39.44Z"/>
</svg>