<?xml version="1.0" encoding="UTF-8"?>
<svg id="Camada_1" xmlns="http://www.w3.org/2000/svg" version="1.1" viewBox="0 0 48 48">
  <!-- Generator: Adobe Illustrator 29.8.6, SVG Export Plug-In . SVG Version: 2.1.1 Build 1)  -->
  <defs>
    <style>
      .st0 {
        fill: #dc620b;
      }

      .st1 {
        fill: #d96213;
      }
    </style>
  </defs>
  <path class="st0" d="M31.32,5.77c-.4-.16-.88-.43-1.46-.61-.58-.17-1.21-.42-1.88-.55-.67-.11-1.34-.31-1.99-.35-.65-.04-1.25-.11-1.77-.13-2.1-.03-4.74.36-7.15,1.26-2.43.88-4.6,2.29-6.12,3.61-1.2,1.03-1.81,1.78-2.16,2.16-.34.39-.33.49-.13.37-1.18,1.44-2.15,3.04-2.93,4.72-.74,1.7-1.22,3.49-1.45,5.3-.43,3.63.46,7.27,2.42,10.41.5.87,1.27,1.98,2.24,3.04.24.27.49.54.75.79l.24.24s.04.05.06.07c.24.35.46.87.72,1.25.39.58.72.82.68,1.64-.03,1.04-.78,1.43-1.56,1.96-.28.11-.99-.39-1.22-.6-.31-.27-.61-.56-.89-.88l-.42-.48-.1-.12-.05-.06c-.4-.4-.82-.84-1.2-1.28-1.57-1.77-2.91-3.78-3.91-5.97C-.01,27.16-.27,21.92,1.19,17.38c.71-2.28,1.73-4.46,3.08-6.41,1.35-1.95,2.97-3.7,4.79-5.2,1.84-1.48,3.91-2.67,6.08-3.58,2.19-.9,4.5-1.39,6.82-1.65,2.35-.16,4.72-.04,7.01.5,2.27.57,4.46,1.44,6.45,2.62,4.38,2.66,7.95,6.56,10.13,11.22,1.08,2.32,1.79,4.88,2,7.49.18,2.6-.09,5.2-.8,7.7-.69,2.49-1.89,4.9-3.39,6.98-1.5,2.11-3.42,4.02-5.72,5.4-2.3,1.37-4.9,2.18-7.49,2.51-2.59.31-5.18.2-7.7-.2-1.26-.2-2.5-.47-3.73-.82-.62-.18-1.22-.36-1.86-.6-.37-.14-.43-.17-.53-.18-.11-.01-.24-.01-.34,0-.43.02-1.37.65-2.33,1.36l-.75.54-.39.27-.69.47c-.48.29-.96.61-1.43.87-.48.26-.96.55-1.39.68-.95.44-1.6.4-2.2.27-.3-.07-.6-.24-.93-.52-.26-.31-.4-.5-.49-.78-.18-.51-.28-1.21.05-2.28.16-.52.38-1.08.58-1.62l.15-.43.18-.59.16-.55.08-.3.16-.6c.11-.4.19-.74.45-1.07.41-.52.89-.66,1.53-.77l.69.17c.55.32,1.06.96,1.06,1.65,0,.34-.05.71-.12,1.1-.04.19-.08.39-.13.58l-.08.3-.04.15s0,.02,0,.03v.03s0,.01,0,.01c0,.01,0-.02,0,.03l-.05.14s-.04.09-.04.14c0,.06.09.04.12.02.09-.04.17-.1.25-.15l1.03-.73c.44-.32.89-.64,1.41-.98.52-.33,1.13-.69,1.93-.93.81-.24,1.72-.28,2.59-.06.22.06.43.13.58.19l.36.13.68.23c.47.15.94.28,1.42.41.96.24,1.92.45,2.89.59,1.93.3,3.85.38,5.69.23,3.7-.3,6.96-1.7,9.33-4.04.65-.63,1.25-1.33,1.8-2.07.28-.37.54-.76.8-1.17.24-.39.49-.78.7-1.19.89-1.61,1.51-3.37,1.87-5.18,2.11-8.86-3.89-18.35-12.13-21.93Z"/>
  <g>
    <path class="st1" d="M33.81,20.52c1.51-.22,3.1-.13,4,1.25.72,1.09.59,2.08.09,3.24-.85,1.95-2.41,3.23-4.58,2.18-2.94-1.41-2.85-6.19.49-6.67Z"/>
    <path class="st1" d="M23.16,20.52c1.83-.26,4.05.17,4.39,2.33.26,1.61-1.25,4.4-3,4.66-4.27.65-5.92-6.34-1.4-6.99Z"/>
    <path class="st1" d="M12.37,20.52c.66-.09,2.02-.12,2.61.11,1.39.55,2.01,2.04,1.75,3.45-.15.8-1.19,2.6-1.89,3.03-3.1,1.92-6.74-2.65-4.42-5.48.45-.55,1.24-1.02,1.94-1.12Z"/>
  </g>
</svg>