<?xml version="1.0" encoding="UTF-8"?>
<svg id="Camada_1" xmlns="http://www.w3.org/2000/svg" version="1.1" viewBox="0 0 48 48">
  <!-- Generator: Adobe Illustrator 29.8.6, SVG Export Plug-In . SVG Version: 2.1.1 Build 1)  -->
  <defs>
    <style>
      .st0 {
        fill: #d96213;
      }
    </style>
  </defs>
  <path class="st0" d="M47.16,4.79c.22,1.97-1.84,8.42-2.46,10.75-2.4,8.76-5.29,19.49-8.58,27.82-1.14,2.87-3.05,4.19-6.23,4.19-5.94-.02-8.91-8.74-11-14.34l10.51-10.55c.49-4.88-3.45-3.65-5.87-1.79-.22.18-.43.81-.76,1.12-2.67,2.37-5.04,5.11-7.62,7.66-5.51-2.13-13.78-4.26-14.27-9.81-.31-3.43.38-5.47,3.58-6.83,9-3.85,20.81-7.66,30.28-10.53,2.22-.67,6.76-2.37,8.85-1.97,1.32.29,3.4,2.91,3.56,4.28Z"/>
</svg>