<?xml version="1.0" encoding="UTF-8"?>
<svg id="Camada_1" xmlns="http://www.w3.org/2000/svg" version="1.1" viewBox="0 0 48 48">
  <!-- Generator: Adobe Illustrator 29.8.6, SVG Export Plug-In . SVG Version: 2.1.1 Build 1)  -->
  <defs>
    <style>
      .st0 {
        fill: #d96213;
      }
    </style>
  </defs>
  <path class="st0" d="M47.17,4.77c-.16-1.35-2.24-3.99-3.55-4.26-2.09-.42-6.63,1.28-8.85,1.96-9.47,2.88-21.28,6.68-30.3,10.53-3.19,1.36-3.9,3.42-3.58,6.85.59,6.65,12.3,8.36,17.12,11.1,2.15,5.07,5.07,16.59,11.89,16.6,3.19.01,5.09-1.31,6.23-4.19,3.31-8.34,6.21-19.07,8.6-27.82.63-2.34,2.69-8.79,2.45-10.77ZM43.37,5.08c-1.07,7.73-5.33,19.59-7.82,27.31-.47,1.45-3.26,10.34-3.82,10.74-.49.35-2.48.37-3.09.19-1.27-.37-3.55-4.98-4.13-6.27-.62-1.4-2.37-5.58-2.52-6.88-.03-.3-.03-.51.2-.72l9.28-9.21c.12-3.53-3.12-2.44-5.02-.97-.19.14-.31.59-.58.84-2.53,2.21-4.66,4.83-7.17,7.09-3.42-2.53-7.91-3.14-11.58-5.28-.79-.45-2.08-.99-2.28-1.88-.16-.73-.27-2.76.38-3.15,12.41-4.03,24.46-9.26,37.1-12.58,1-.26,1.21-.37,1.05.77Z"/>
</svg>