<?xml version="1.0" encoding="UTF-8"?>
<svg id="Camada_1" xmlns="http://www.w3.org/2000/svg" version="1.1" viewBox="0 0 48 48">
  <!-- Generator: Adobe Illustrator 29.8.6, SVG Export Plug-In . SVG Version: 2.1.1 Build 1)  -->
  <defs>
    <style>
      .st0 {
        fill: #d96213;
      }
    </style>
  </defs>
  <path class="st0" d="M43.88,3.83c-5.81-5.89-14.21-2.69-19.57,2.39-2.65-2.51-5.81-4.79-9.18-5.6-.78-.19-2.44-.52-3.17-.4C1.24,2-2.57,11.12,3.44,22.27c3.48,6.47,9.5,14.21,14.06,19.73,2.15,2.6,3.89,5.28,7.08,5.77,1.67.25,2.45-1.13,3.5-2.39,4.18-5.04,8.24-10.47,11.91-16.05,4.64-7.07,11.74-17.54,3.87-25.5ZM42.68,13.29c-.28,3.62-5.15,10.86-7.15,13.89-3.45,5.21-7.28,10.06-11.25,14.69-1.35-1.26-2.59-2.69-3.81-4.15-4.29-5.11-10.88-13.62-13.82-19.83-2.68-5.62-1.29-11.41,4.56-11.94,2.96-.27,7.24,1.94,9.42,4.31.6.66.85,1.67,1.34,2.14.34.32.81.37,1.14.6.61.4.86,1.15,1.7.85.33-.13,1.42-1.1,1.61-1.46.21-.4.19-.84.48-1.22,1.51-1.9,6.1-4.32,8.28-4.71,3.86-.68,7.93,1.51,7.51,6.85Z"/>
</svg>