<?xml version="1.0" encoding="UTF-8"?>
<svg id="Camada_1" xmlns="http://www.w3.org/2000/svg" version="1.1" viewBox="0 0 48 48">
  <!-- Generator: Adobe Illustrator 29.8.6, SVG Export Plug-In . SVG Version: 2.1.1 Build 1)  -->
  <defs>
    <style>
      .st0 {
        fill: #fff;
      }

      .st1 {
        fill: #d96213;
      }

      .st2 {
        fill: #fad5ce;
      }
    </style>
  </defs>
  <ellipse class="st2" cx="24.02" cy="24.3" rx="21.13" ry="20.25"/>
  <path class="st1" d="M25.47,36.96l.5.48c.1,1.27.66,1.74-.18,2.9-.33.45-2.19,1.81-2.69,1.68-.27-.07-.55-.7-.6-.97l-.27-4.21c-.85-.1-1.69-.28-2.5-.56-1.2-.39-4.44-2.04-5.16-3.02-1.12-1.51-.11-3.21,1.75-3.06.84.08,2.35,1.33,3.18,1.76,4.35,2.27,12.45,1.81,10.71-5-.3-1.2-.94-2.37-2.33-2.2-1.9.24-3.32,1.31-5.58,1.15-6.55-.48-10.26-7.21-5.79-12.52,1.33-1.57,3.2-2.49,5.18-2.94.06-.92-.62-4.17.02-4.71.7-.6,3.1.45,3.41,1.12.14.3.4,1.75.33,2.08-.1.47-.53,1.02-.89,1.34.09.14.18.15.33.18,1.89.42,3.07.58,4.42,2.08.72.81,1.52,1.74.89,2.85-.16.3-1.52,1.17-1.81,1.17-.47,0-1.69-1.24-2.23-1.52-1.84-1.01-4.46-.87-6.09.49-1.47,1.25-2.46,3.48-.9,5.07,4.15,4.25,9.73-3.33,13.67,2.82,3.9,6.11-.11,13.63-7.38,13.55Z"/>
  <path class="st1" d="M22.58.33C-1.01,2.05-8.07,39.79,15.63,46.55c4.74,1.35,13.11,1,17.39-1.64,3.26-2.01,6.35-3.53,8.94-6.52C55.47,22.86,42.26-1.1,22.58.33ZM31.38,41.08c-1.39.48-3.52.7-4.69,1.28-1.34.66-1.34.75-2.98.91-11.45,1.15-19.68-7.65-19.03-18.9C5.23,15.03,12.73,5.09,22.46,4.22c11.92-1.04,23.1,10.37,21.02,22.33-1.15,6.6-5.75,12.32-12.1,14.53Z"/>
  <path class="st0" d="M25.47,36.96l.5.48c.1,1.27.66,1.74-.18,2.9-.33.45-2.19,1.81-2.69,1.68-.27-.07-.55-.7-.6-.97l-.27-4.21c-.85-.1-1.69-.28-2.5-.56-1.2-.39-4.44-2.04-5.16-3.02-1.12-1.51-.11-3.21,1.75-3.06.84.08,2.35,1.33,3.18,1.76,4.35,2.27,12.45,1.81,10.71-5-.3-1.2-.94-2.37-2.33-2.2-1.9.24-3.32,1.31-5.58,1.15-6.55-.48-10.26-7.21-5.79-12.52,1.33-1.57,3.2-2.49,5.18-2.94.06-.92-.62-4.17.02-4.71.7-.6,3.1.45,3.41,1.12.14.3.4,1.75.33,2.08-.1.47-.53,1.02-.89,1.34.09.14.18.15.33.18,1.89.42,3.07.58,4.42,2.08.72.81,1.52,1.74.89,2.85-.16.3-1.52,1.17-1.81,1.17-.47,0-1.69-1.24-2.23-1.52-1.84-1.01-4.46-.87-6.09.49-1.47,1.25-2.46,3.48-.9,5.07,4.15,4.25,9.73-3.33,13.67,2.82,3.9,6.11-.11,13.63-7.38,13.55Z"/>
  <path class="st1" d="M25.47,36.96l.5.48c.1,1.27.66,1.74-.18,2.9-.33.45-2.19,1.81-2.69,1.68-.27-.07-.55-.7-.6-.97l-.27-4.21c-.85-.1-1.69-.28-2.5-.56-1.2-.39-4.44-2.04-5.16-3.02-1.12-1.51-.11-3.21,1.75-3.06.84.08,2.35,1.33,3.18,1.76,4.35,2.27,12.45,1.81,10.71-5-.3-1.2-.94-2.37-2.33-2.2-1.9.24-3.32,1.31-5.58,1.15-6.55-.48-10.26-7.21-5.79-12.52,1.33-1.57,3.2-2.49,5.18-2.94.06-.92-.62-4.17.02-4.71.7-.6,3.1.45,3.41,1.12.14.3.4,1.75.33,2.08-.1.47-.53,1.02-.89,1.34.09.14.18.15.33.18,1.89.42,3.07.58,4.42,2.08.72.81,1.52,1.74.89,2.85-.16.3-1.52,1.17-1.81,1.17-.47,0-1.69-1.24-2.23-1.52-1.84-1.01-4.46-.87-6.09.49-1.47,1.25-2.46,3.48-.9,5.07,4.15,4.25,9.73-3.33,13.67,2.82,3.9,6.11-.11,13.63-7.38,13.55Z"/>
</svg>