<?xml version="1.0" encoding="UTF-8"?>
<svg id="Camada_1" xmlns="http://www.w3.org/2000/svg" version="1.1" viewBox="0 0 48 48">
  <!-- Generator: Adobe Illustrator 29.8.6, SVG Export Plug-In . SVG Version: 2.1.1 Build 1)  -->
  <defs>
    <style>
      .st0 {
        fill: #d96213;
      }
    </style>
  </defs>
  <path class="st0" d="M22.58.33C-1.01,2.05-8.07,39.79,15.63,46.55c4.74,1.35,13.11,1,17.39-1.64,3.26-2.01,6.35-3.53,8.94-6.51C55.47,22.86,42.26-1.1,22.58.33ZM25.47,36.96l.49.48c.11,1.27.66,1.74-.18,2.89-.33.46-2.19,1.81-2.69,1.69-.27-.07-.54-.71-.6-.97l-.27-4.21c-.85-.11-1.7-.29-2.5-.56-1.21-.39-4.44-2.04-5.16-3.02-1.12-1.51-.11-3.21,1.75-3.06.84.08,2.35,1.33,3.18,1.76,4.35,2.28,12.45,1.81,10.71-4.99-.29-1.21-.94-2.38-2.33-2.21-1.89.24-3.31,1.31-5.57,1.15-6.56-.48-10.26-7.21-5.8-12.51,1.33-1.57,3.21-2.49,5.18-2.95.06-.92-.62-4.16.03-4.71.7-.6,3.1.46,3.4,1.13.14.29.4,1.74.33,2.07-.1.47-.53,1.03-.88,1.34.09.14.18.15.33.19,1.88.42,3.06.58,4.41,2.07.72.81,1.53,1.74.89,2.85-.16.3-1.52,1.17-1.81,1.17-.46,0-1.69-1.23-2.22-1.52-1.84-1.01-4.47-.87-6.09.49-1.46,1.25-2.46,3.48-.9,5.07,4.15,4.24,9.74-3.33,13.68,2.81,3.89,6.11-.12,13.63-7.38,13.55Z"/>
</svg>