<?xml version="1.0" encoding="UTF-8"?>
<svg id="Camada_1" xmlns="http://www.w3.org/2000/svg" version="1.1" viewBox="0 0 48 48">
  <!-- Generator: Adobe Illustrator 29.8.6, SVG Export Plug-In . SVG Version: 2.1.1 Build 1)  -->
  <defs>
    <style>
      .st0 {
        fill: #dc620b;
      }

      .st1 {
        fill: #d96213;
      }

      .st2 {
        fill: #fad5ce;
      }
    </style>
  </defs>
  <g>
    <path class="st1" d="M2.19,5.63c14.55.04,29.1.07,43.65.11.09.03.19.07.27.16.21.21.22.53.22.65,0,.49-.29,15.64-.7,36.35-.22.15-.44.29-.66.44-29.16-.13-40.77.14-41.87.63-.09.04-.94.45-1.16.19-.14-.17.03-.56.25-.93.29-6.97.48-14.12.56-21.47.06-6.13.04-12.13-.05-17.99"/>
    <path class="st0" d="M43.79,31.15c.1-2.16.21-6.64.27-9.22.06-2.65.14-5.89.21-9.1.04-1.6.07-3.2.11-4.7,0-.13,0-.26,0-.38,0-.02,0-.05,0-.07-.04-.03-.09-.01-.13-.02-3.85-.01-4.78-.05-4.22.13l-27.84-.07c-1.26-.05-2.93-.06-4.7-.07-.58,0-1.17,0-1.75,0-.04,0-.07,0-.1,0-.45-.09-1-.31-1.48-.43-.71-.19-1.16-.17-1.64-.85-.61-.86-.21-1.62.06-2.5.15-.25.94-.3,1.23-.3.38,0,.77.03,1.16.07l.59.06.15.02h.07s1.85.02,1.85.02l7.48.05c10.19.07,20.4.14,30.55.2.27.03.56.05.79.13.24.09.41.16.62.3.42.29.72.74.86,1.18.17.44.17,1.04.14,1.6l-.03,1.22-.08,3.72c-.05,2.48-.11,4.95-.16,7.42-.1,4.94-.21,9.85-.31,14.73-.05,2.75-.11,5.5-.16,8.25.02.31-.09.52-.14.78-.08.24-.09.51-.22.72l-.67.45-.34.22c-.11.07-.24.08-.37.12l-.74.2h-.87s-1.14,0-1.14,0h-3.86c-5.15,0-10.31,0-15.48.02-5.16.04-10.34.08-15.48.27-1.27.05-2.58.11-3.75.23-.26.03-.57.09-.54.08l-.17.07-.33.12c-.26.07-.48.17-1.04.19-.24-.01-.78.01-1.42-.55-.3-.27-.5-.69-.56-.97-.07-.31-.06-.51-.05-.69.03-.33.1-.52.16-.68.06-.16.13-.31.12-.3.01-.02.03-.04.02-.07v-.27s.18-7.76.18-7.76l.2-8.57.1-4.28-.02-4.28-.05-8.57v-1.07s0-.16,0-.16v-.02s0-.08,0-.08v-.17c-.05-.45-.08-.9-.09-1.35-.01-.43-.03-.8.13-1.2.26-.63.69-.91,1.29-1.18h.71c.61.16,1.26.63,1.44,1.27.16.53.22,1.17.25,1.83l.02.5v.25c.01.94.02,1.87.02,2.81,0,4.17.06,8.32.02,12.39-.1,4.08-.2,8.09-.29,12.01-.04,1.52-.07,3.02-.11,4.51-.02.74-.03,1.48-.05,2.21l-.03,1.09-.02.85v.26c-.03.08-.09.15-.13.23-.08.14-.2.34-.22.4,0,0,.02.02-.02,0l-.35-.13c-.22-.08-.43-.14-.6-.18-.35-.09-.63-.07-.69-.03-.06.05.07-.06.08-.33.01-.25-.02-.68-.12-1.1l-.04-.17c-.01-.06-.03-.12-.03-.1h0s.04-.01.04-.01l.12-.05s.21-.11.37-.13l.5-.15c.48-.09.89-.13,1.26-.16.39-.04.75-.06,1.11-.09,1.44-.09,2.83-.15,4.2-.19,4.68-.16,9.32-.22,13.98-.28h16.96s2.12,0,2.12,0h.93s0,0,0,0h0s.03-1.65.03-1.65l.16-8.46Z"/>
  </g>
  <path class="st2" d="M37.6,10.01c1.68-1.56,5.49-5.34,7.71-4.77.84.22,2.02,2.18,1.5,3.11-6.77,5.79-13.26,11.95-19.7,18.2-1.4,1.36-2.38,3.47-4.62,2.16-3.54-3.42-7.31-6.52-10.91-9.86-1.9-1.77-3.8-3.57-5.68-5.32-1.33-1.23-4.19-3.96-4.74-5.74s1.15-4.11,2.67-3.22c6.34,6.59,12.93,12.83,19.74,18.81,3.56-2.99,6.79-6.5,10.2-9.73,1.25-1.18,2.72-2.62,3.82-3.64Z"/>
</svg>