<?xml version="1.0" encoding="UTF-8"?>
<svg id="Camada_1" xmlns="http://www.w3.org/2000/svg" version="1.1" viewBox="0 0 48 48">
  <!-- Generator: Adobe Illustrator 29.8.6, SVG Export Plug-In . SVG Version: 2.1.1 Build 1)  -->
  <defs>
    <style>
      .st0 {
        fill: #da6213;
      }
    </style>
  </defs>
  <path class="st0" d="M6.94,47.46c.72-6.3,2.01-12.57,4.1-18.55-.08-.4-1.61-1.73-2.04-2.1-1.66-1.41-7.93-4.95-8.68-6.26-.3-.53-.45-3.54-.28-4.11.27-.89,2.07-1.3,2.92-1.31,3.11-.05,6.94.88,10.06,1.05.73.04,2.83.17,3.31-.16.62-.42,4.15-11.73,5.6-13.86,1.34-1.96,3.25-2.46,4.69-.28,1.87,2.82,3.24,13.64,4.31,14.46.66.5,4.88.81,6.07.88,2.47.15,15.05-.92,9.73,4.87-1.66,1.81-11.06,7.27-11.46,8.32.39,4.16,2.49,8.68,2.91,12.74,1.1,10.66-9.15-1.25-12.15-2.8-5.05-2.6-8.15,1.86-12.14,4.16-.81.47-6.57,3.35-6.96,2.95Z"/>
</svg>