<?xml version="1.0" encoding="UTF-8"?>
<svg id="Camada_1" xmlns="http://www.w3.org/2000/svg" version="1.1" viewBox="0 0 48 48">
  <!-- Generator: Adobe Illustrator 29.8.6, SVG Export Plug-In . SVG Version: 2.1.1 Build 1)  -->
  <defs>
    <style>
      .st0 {
        fill: #dc620b;
      }

      .st1 {
        fill: #fad5ce;
      }
    </style>
  </defs>
  <path class="st1" d="M9.92,45.01c.63-5.7,1.77-11.38,3.6-16.79-.07-.36-1.41-1.57-1.8-1.9-2.84-2.49-7.63-5.67-7.63-5.67-1.35-.96-2.03-1.44-1.96-1.96.14-1.04,2.8-1.46,3.15-1.51,4.13-.65,5.95,1.63,9.52.92.61-.12,2.09-.42,3.38-1.54,3.45-3.01,1.31-8.24,4.93-12.55.36-.43,1.53-1.82,2.38-1.54.62.21.8,1.21.88,1.62,2.1,11.4,3.25,12.98,4.19,13.68.41.31,2.27.38,5.96.5,6.54.22,9.01.04,9.48,1.19.27.65-.13,1.53-1.08,2.59-1.46,1.64-9.73,6.59-10.08,7.54.26,2.56.72,6.21,1.54,10.61.48,2.58.89,4.38.23,4.74-1.14.63-4.1-3.28-9.9-6.35-4.44-2.35-7.17,1.68-10.68,3.76-.71.42-5.78,3.03-6.12,2.67Z"/>
  <path class="st0" d="M45.57,20.07s.03,0,.02-.01h0s.1,0-.19-.03c-.4-.04-.83-.07-1.27-.08-1.8-.06-3.65-.12-5-.17-1.4-.06-2.95-.13-4.58-.25-.82-.06-1.65-.13-2.53-.27-.45-.08-.89-.14-1.46-.37-.14-.06-.31-.15-.45-.25-.14-.1-.22-.18-.32-.27-.2-.17-.38-.37-.55-.58-.67-.86-.94-1.83-1.15-2.67-.2-.85-.33-1.65-.48-2.42-.29-1.54-.6-2.97-.93-4.22-1.02-3.92-1.43-4.68-1.3-4.16-.1-.27-.2-.54-.31-.8l-.17-.39h0s-.11.21-.17.31c-.12.25-.24.51-.35.77-.23.54-.45,1.09-.66,1.65-.83,2.25-1.66,4.56-2.53,6.83l-1.29,3.43c-.11.29-.22.58-.37.9-.07.16-.16.33-.29.54-.15.22-.33.41-.48.53-.61.56-1.45.9-2.18.98-1.48.18-2.69-.05-3.91-.19-1.21-.16-2.39-.3-3.59-.42-1.29-.15-3.03-.31-4.82-.33-.45,0-.89,0-1.33.04l-.37.03s-.03,0-.04,0c-.2-.02-.45-.09-.65-.1-.31,0-.34.02-.62-.16-.19-.1-.43-.06-.6-.17-.18-.09-.29-.38-.34-.65.01-.13.21-.35.4-.47.2-.14.38-.2.48-.24.25-.08.49-.12.72-.14.12-.01.23-.02.34-.02l2.18-.08c2.7.05,5.29.34,7.92.67,1.29.16,2.6.38,3.71.3.54-.05.98-.17,1.32-.45.08-.07.19-.16.22-.2.03-.04.08-.11.14-.23.11-.24.24-.54.35-.84l2.76-7.31c.45-1.23.89-2.46,1.38-3.69.25-.62.5-1.24.81-1.87.1-.18.13-.27.29-.53.15-.28.34-.49.53-.72.2-.2.42-.35.65-.44.24-.04.51-.13.77-.05.49.12.87.55,1.17,1.07l.21.39.11.24c.08.16.14.32.2.48.25.64.46,1.28.66,1.91.39,1.27.73,2.54,1.04,3.82.31,1.28.57,2.58.81,3.86.25,1.26.44,2.59.91,3.52.11.24.25.43.42.62.15.17.4.39.48.42.32.15,1.02.26,1.62.33,1.24.15,2.53.22,3.81.3,2.57.15,5.12.19,7.72.29.33.02.66.03.99.06l.25.02.35.04c.3.03.56.11.82.19.51.17.92.42,1.08.88.22.47.06.9-.23,1.32-.16.21-.35.41-.57.6l-.33.28-.2.16-.78.6-1.57,1.14c-2.46,1.71-4.92,3.42-7.39,5.14l-.9.65c-.28.21-.61.46-.77.62-.01-.08-.36.68-1.25.63-.39-.05-.56-.2-.67-.22-.03,0-.05-.02-.08-.02h-.02s0,0,0,0c-.35.1,3.05-.91,1.61-.48h0s0,.04,0,.04l.03.14.26,1.1c.35,1.47.7,2.94,1.05,4.42h0c.56,2.41,1.18,4.8,1.69,7.23l.19.92.09.47.09.55c.07.55.14,1.13.02,1.56-.11.41-.35.79-.81.92-.4.14-.81.06-1.27-.2-.23-.11-.45-.28-.68-.44-.11-.08-.23-.17-.33-.25l-.19-.15-1.43-1.2-2.83-2.37c-.96-.78-1.89-1.58-2.86-2.21-.97-.64-2-1.13-3.08-1.34-.52-.1-1.13-.16-1.59-.11-.53.06-1.11.18-1.64.35-2.17.67-3.99,2.28-6.07,3.75-1.05.73-2.15,1.39-3.29,1.97-.36.2-1.69.81-2.65,1.2l-.78.32-.39.16s-.04,0-.03-.04l.02-.1.03-.21.27-1.67.27-1.58.17-.92.35-1.84c.24-1.22.5-2.45.78-3.67.28-1.22.59-2.44.95-3.66.19-.61.38-1.22.61-1.83.12-.31.24-.61.39-.92.13-.29.36-.68.39-.77.11-.31.07-.61-.15-1-.22-.39-.62-.8-1.04-1.19-.86-.78-1.86-1.49-2.85-2.21-2.01-1.43-4.07-2.82-6.1-4.3l-.79-.59-.03-.02-.06-.04-.12-.08c-.16-.11-.32-.23-.48-.36-.18-.15-.36-.3-.48-.55-.1-.23-.15-.43-.13-.69.02-.24.18-.45.35-.51l.34.1c.31.22.54-.15.76,0,.22.1.51.32.82.54.65.48,1.31.97,1.96,1.45,2.1,1.52,4.24,2.94,6.35,4.51,1.04.82,2.12,1.57,3.01,2.88.45.63.72,1.71.4,2.62-.07.22-.2.46-.27.59-.06.13-.13.24-.19.37-.12.26-.23.53-.34.81-.84,2.26-1.39,4.72-1.91,7.11-.26,1.2-.49,2.4-.71,3.59l-.2,1.09s-.03.11.03.06l.48-.23c.51-.26,1.02-.53,1.51-.82.99-.57,1.9-1.21,2.82-1.9.93-.69,1.86-1.41,2.91-2.02,1.04-.62,2.19-1.12,3.38-1.39.33-.08.66-.13.99-.18.36-.03.76-.06,1.09-.03.69.03,1.37.15,2.03.34,1.32.39,2.49,1.06,3.53,1.81,2.03,1.52,3.84,3.08,5.72,4.66l1.16.97-.04-.23c-.1-.56-.22-1.13-.34-1.71-.49-2.31-1.08-4.61-1.61-6.91h0s-1.22-5.15-1.22-5.15l-.08-.32-.02-.08v-.04s-.01-.02-.01-.02c0,0-.06,0,.2-.07l.55-.17.14-.04c-.84.28,1.31-.43,1.08-.36v-.02s.01-.08.01-.08c0-.06,0-.12,0-.18-.01-.13-.06-.3-.19-.46-.13-.17-.36-.3-.56-.32-.41-.03-.48.1-.49.09.48-.5.8-.68,1.18-.99.73-.54,1.46-1.05,2.19-1.56l4.37-3.02,2.15-1.52,1.05-.78.51-.39.41-.33Z"/>
</svg>