<?xml version="1.0" encoding="UTF-8"?>
<svg id="Camada_1" xmlns="http://www.w3.org/2000/svg" version="1.1" viewBox="0 0 48 48">
  <!-- Generator: Adobe Illustrator 29.8.6, SVG Export Plug-In . SVG Version: 2.1.1 Build 1)  -->
  <defs>
    <style>
      .st0 {
        fill: #dc620b;
      }
    </style>
  </defs>
  <path class="st0" d="M45.39,20.1s.03,0,.02-.01c-.03,0,.06,0-.17-.03-.4-.04-.82-.07-1.26-.08-1.78-.06-3.62-.12-4.96-.17-1.39-.06-2.93-.13-4.55-.25-.81-.06-1.64-.13-2.52-.26-.44-.08-.88-.14-1.45-.37-.31-.13-.61-.36-.77-.52-.2-.17-.38-.37-.55-.57-.67-.86-.94-1.82-1.14-2.65-.2-.84-.33-1.64-.48-2.4-.29-1.53-.6-2.94-.92-4.19-1.01-3.89-1.42-4.65-1.29-4.12-.1-.27-.2-.54-.31-.79l-.17-.38c.08-.17-.31.58-.5,1.06-.23.53-.44,1.08-.65,1.64-.83,2.24-1.65,4.52-2.51,6.78l-1.28,3.4c-.11.29-.22.57-.37.89-.07.16-.15.33-.29.54-.14.21-.33.41-.47.53-.6.56-1.44.9-2.16.99-1.47.18-2.68-.05-3.89-.18-1.2-.16-2.37-.3-3.57-.41-1.28-.15-3-.31-4.78-.33-.44,0-.89,0-1.32.04l-.37.03s-.03,0-.05,0c-.2-.02-.45-.09-.65-.1-.31,0-.34.02-.62-.17-.19-.1-.43-.06-.6-.17-.18-.09-.29-.38-.34-.65.01-.13.21-.35.4-.47.2-.14.38-.2.48-.23.25-.08.49-.12.72-.14.12-.01.23-.02.34-.02l2.17-.08c2.68.06,5.25.34,7.86.67,1.28.16,2.58.38,3.68.3.54-.05.97-.17,1.3-.45.08-.07.19-.15.21-.19.03-.04.08-.11.14-.23.11-.24.23-.54.35-.83l2.74-7.26c.45-1.22.88-2.44,1.37-3.67.25-.61.49-1.23.81-1.85.11-.24.44-.84.82-1.25.38-.4.89-.58,1.41-.48.49.12.86.55,1.16,1.07l.21.39.11.25c.08.16.13.32.2.48.25.64.46,1.27.66,1.9.38,1.26.73,2.52,1.03,3.8.31,1.27.57,2.56.81,3.83.25,1.25.44,2.57.9,3.49.11.24.25.43.42.61.15.17.39.39.48.41.32.15,1.02.26,1.6.33,1.23.14,2.51.22,3.78.3,2.55.15,5.08.19,7.66.28.33.02.65.03.99.06l.25.02.39.06c.26.03.53.09.79.18.5.17.9.42,1.06.88.21.46.06.89-.22,1.31-.16.21-.35.41-.57.6-.11.1-.21.19-.33.28l-.21.17-.78.6-1.56,1.13c-2.44,1.7-4.88,3.4-7.33,5.1l-.89.65c-.27.21-.61.46-.77.62-.01-.09-.36.68-1.25.63-.39-.05-.56-.2-.67-.22-.03,0-.05-.02-.08-.02h-.02s0,0,0,0c-.35.1,3.05-.91,1.61-.48h0s0,.04,0,.04l.03.14.26,1.09c.35,1.46.69,2.92,1.04,4.38h0c.55,2.39,1.17,4.76,1.67,7.18l.19.91.09.46.09.56c.07.54.14,1.12.02,1.54-.11.4-.35.78-.81.91-.4.14-.8.06-1.25-.19-.22-.1-.45-.28-.67-.44-.11-.08-.23-.16-.33-.25l-.2-.16-1.42-1.2-2.81-2.35c-.95-.77-1.88-1.56-2.84-2.2-.96-.64-1.98-1.12-3.05-1.33-.51-.1-1.12-.16-1.58-.11-.53.06-1.1.17-1.63.34-2.15.66-3.96,2.26-6.03,3.72-1.04.73-2.14,1.38-3.27,1.96-.36.2-1.68.81-2.64,1.19l-.77.32-.39.16c-.1.07-.02-.08-.03-.12l.03-.21.27-1.65.27-1.58.17-.91.35-1.82c.24-1.21.5-2.43.77-3.64.28-1.21.58-2.42.94-3.63.19-.6.37-1.21.61-1.82.12-.3.24-.61.38-.91.12-.29.36-.68.39-.77.11-.31.07-.6-.14-.99-.22-.39-.61-.79-1.03-1.18-.85-.77-1.84-1.48-2.83-2.19-2-1.42-4.04-2.8-6.05-4.27l-.78-.59-.03-.02-.06-.04-.12-.08c-.16-.11-.32-.23-.48-.36-.18-.15-.36-.3-.48-.55-.1-.23-.15-.43-.13-.69.02-.24.18-.45.35-.51l.34.1c.31.22.54-.16.76,0,.22.1.51.32.82.54.65.48,1.3.96,1.95,1.44,2.09,1.5,4.21,2.92,6.31,4.47,1.03.81,2.11,1.55,2.99,2.87.45.63.71,1.71.39,2.61-.07.21-.2.46-.27.58-.06.12-.13.24-.19.37-.12.25-.23.53-.34.8-.83,2.25-1.38,4.68-1.89,7.05-.25,1.19-.49,2.38-.71,3.57l-.2,1.06s-.03.1.03.06l.47-.23c.51-.26,1.01-.53,1.5-.82.98-.57,1.88-1.2,2.8-1.89,1.8-1.36,3.83-2.86,6.25-3.39.32-.08.65-.13.98-.18.36-.03.76-.06,1.08-.03.68.03,1.36.15,2.02.34,1.31.38,2.47,1.06,3.5,1.8,2.02,1.51,3.81,3.06,5.68,4.63l1.14.95-.03-.21c-.1-.56-.21-1.13-.34-1.7-.49-2.29-1.07-4.57-1.6-6.86h0s-1.21-5.11-1.21-5.11l-.08-.32-.02-.08v-.04s-.01-.02-.01-.02h0s.02-.02.08-.04l.14-.04.55-.17.14-.04c-.84.28,1.3-.43,1.07-.36v-.02s.01-.08.01-.08c0-.06,0-.12,0-.18-.02-.13-.06-.3-.19-.46-.13-.17-.36-.3-.56-.32-.41-.03-.48.1-.49.1.48-.49.79-.68,1.17-.98.73-.54,1.45-1.04,2.18-1.55l4.34-3,2.14-1.51,1.05-.77.51-.39.39-.31Z"/>
</svg>