<?xml version="1.0" encoding="UTF-8"?>
<svg id="Camada_1" xmlns="http://www.w3.org/2000/svg" version="1.1" viewBox="0 0 48 48">
  <!-- Generator: Adobe Illustrator 29.8.6, SVG Export Plug-In . SVG Version: 2.1.1 Build 1)  -->
  <defs>
    <style>
      .st0 {
        fill: #da6213;
        stroke: #dc620b;
        stroke-miterlimit: 10;
        stroke-width: .1px;
      }
    </style>
  </defs>
  <path class="st0" d="M9.14,11.48c-1.84,7.28,4.4,13.93,7.12,20.36.9,1.27,1.47,2.76,1.74,4.3.23,0,.37,0,.41.02.12.06.37,1,.92,1.37.51.33,1.17.29,1.58.53.65.41,1.21,1.39,2.05,1.51,0,0,.9.23,4.48-3.36.23-.37.63-1.02,1.17-1.82.9-1.33,1.62-2.25,1.76-2.41,1.49-1.82,9.23-12.58,8.86-18.21-1.06-16.04-25.96-18.5-30.08-2.29ZM25.79,20.42c-8.76,3.17-10.89-10.58-3.21-12.01,7.94-1.47,10.66,9.29,3.21,12.01Z"/>
  <path class="st0" d="M41.04,46.18c-6.59,2.05-29.81,1.78-36.15-.88-3.25-1.35-4.95-3.74-3.13-7.1,1.33-2.46,4.34-3.64,6.87-4.38,1.23-.37,2.19-.47,2.41-.49.98-.12,2.19-.2,3.56-.27.7.98,1.17,2.15,1.39,3.42l.39,1.82.84-.06c.25.35.55.72,1,1,.57.39,1.17.51,1.56.59.04,0,.08.02.12.02.08.08.16.16.25.27.51.51,1.29,1.29,2.31,1.43l.27.06h.25c.9,0,2.39-.45,5.89-3.95l.18-.18.12-.2c.23-.35.61-.98,1.13-1.74.84-1.23,1.51-2.11,1.64-2.27,0,0,.04-.04.1-.12.51.02.92.04,1.19.04,3.29.35,6.71.94,9.64,2.25,6.94,3.15,4.34,8.86-1.82,10.74Z"/>
</svg>