<?xml version="1.0" encoding="UTF-8"?>
<svg id="Camada_1" xmlns="http://www.w3.org/2000/svg" version="1.1" viewBox="0 0 48 48">
  <!-- Generator: Adobe Illustrator 29.8.6, SVG Export Plug-In . SVG Version: 2.1.1 Build 1)  -->
  <defs>
    <style>
      .st0 {
        fill: #fff;
      }

      .st1 {
        fill: #d96213;
      }
    </style>
  </defs>
  <path class="st1" d="M29.36,11.5c-1.13-2.07-3.53-3.47-5.9-3.18-4.52.54-7.11,5.94-4.73,9.85,3.87,6.35,14.54.53,10.63-6.67ZM22.35,16.14c-1.22-1.5-.17-3.77,1.61-3.86.65-.04,1.82.67,2.05,1.24.86,2.04-1.64,5.09-3.66,2.62Z"/>
  <path class="st1" d="M34.15,33.3c-.65-.1-4.3-.18-4.3-.69,4.93-7.19,12.84-15.44,7.47-24.6C28.94-6.32,6.13,1.23,9.22,17.68l7.19,14.79c-4.65.29-17.38,2.63-15.07,9.68,1.38,4.2,10.94,4.84,14.67,5.08,4.42.29,9.81.42,14.24.27,4.63-.16,14.08-.45,16.23-5.37,2.83-6.46-8.17-8.21-12.33-8.83ZM13.55,17.82c-2.66-6.58,3.14-12.92,9.66-13.43,4.17-.33,8.67,2.07,10.72,5.7,2.47,4.39,1.35,6.88-.98,10.88-2.9,4.97-6.98,9.72-10.35,14.4-.15,0-1.39-2.26-1.59-2.63-2.38-4.29-5.65-10.44-7.46-14.92ZM29.7,43.26c-6.32.14-14.55.45-20.71-.86-7.05-1.5-2.95-3.7,1.31-4.85,2.58-.7,5.29-.72,7.83-1.59.53.49.81,1.24,1.45,1.64.57.35,1.16.31,1.56.54.61.36.54,1.29,1.79,1.39,1.82.15,4.12-3.26,4.4-3.29.4-.04,2.05.8,2.7.91,1.18.21,2.58.14,3.85.37,3.02.54,6.84.84,9.12,2.99-3.24,3.3-9,2.65-13.3,2.75Z"/>
  <path class="st0" d="M29.36,11.5c-1.13-2.07-3.53-3.47-5.9-3.18-4.52.54-7.11,5.94-4.73,9.85,3.87,6.35,14.54.53,10.63-6.67ZM22.35,16.14c-1.22-1.5-.17-3.77,1.61-3.86.65-.04,1.82.67,2.05,1.24.86,2.04-1.64,5.09-3.66,2.62Z"/>
  <path class="st1" d="M29.36,11.5c-1.13-2.07-3.53-3.47-5.9-3.18-4.52.54-7.11,5.94-4.73,9.85,3.87,6.35,14.54.53,10.63-6.67ZM22.35,16.14c-1.22-1.5-.17-3.77,1.61-3.86.65-.04,1.82.67,2.05,1.24.86,2.04-1.64,5.09-3.66,2.62Z"/>
</svg>