<?xml version="1.0" encoding="UTF-8"?>
<svg id="Camada_1" xmlns="http://www.w3.org/2000/svg" version="1.1" viewBox="0 0 48 48">
  <!-- Generator: Adobe Illustrator 29.8.6, SVG Export Plug-In . SVG Version: 2.1.1 Build 1)  -->
  <defs>
    <style>
      .st0 {
        fill: #d96213;
      }

      .st1 {
        fill: #fad5ce;
      }
    </style>
  </defs>
  <path class="st0" d="M47.74,12.89c-3.81-3.85-7.71-7.62-11.2-11.76-1.97-.09-3.69.05-4.1,2.28-.98-.36-1.28-1-2.39-1.38C9.78-4.85-8.07,21.62,4.32,38.67c13.41,18.47,44.47,3.92,41.32-18.49-.21-1.42-.47-4.66-2.3-4.45,1.22-.94,2.85-1.5,4.08-2.39.18-.13.44.05.32-.45ZM35.42,6.01l6.1,6.09-13.75,7.91,7.65-14ZM20.79,28.68c2.1,1.03,3.72.63,5.65-.52,1.88-1.12,1.94-2.39,2.75-4.26l5.58-3.11c.53,6.35-3.32,11.44-9.39,13.05-6.15,1.65-12.45-1.62-13.15-8.28-.88-8.47,6.61-16.41,15.28-13.59-.58.73-2.82,5.73-3.15,5.93-.16.09-2.22.2-3.14.63-3.97,1.86-4.61,8.1-.43,10.15ZM41.75,26.34c-.48,4.54-4.61,10.2-8.34,12.67-7.97,5.3-20.38,5.63-26.25-2.93C-1.42,23.58,9.61,3.44,25.01,5c1.84.18,3.84,1.22,5.61,1l-1.42,2.85c-3.85-2.45-9.36-1.35-13.09.94-11.18,6.87-10.67,25.36,3.35,28.27,11.05,2.29,21.46-8.38,18.97-19.43l3.09-1.73c-.38,3.16.56,6.26.23,9.44Z"/>
  <path class="st1" d="M41.75,26.34c-.48,4.54-4.61,10.2-8.34,12.67-7.97,5.3-20.38,5.63-26.25-2.93C-1.42,23.58,9.61,3.44,25.01,5c1.84.18,3.84,1.22,5.61,1l-1.42,2.85c-3.85-2.45-9.36-1.35-13.09.94-11.18,6.87-10.67,25.36,3.35,28.27,11.05,2.29,21.46-8.38,18.97-19.43l3.09-1.73c-.38,3.16.56,6.26.23,9.44Z"/>
  <path class="st1" d="M25.38,33.84c-6.15,1.65-12.45-1.62-13.15-8.28-.88-8.47,6.61-16.41,15.28-13.59-.58.73-2.82,5.73-3.15,5.93-.16.09-2.22.2-3.14.63-3.97,1.86-4.61,8.1-.43,10.15,2.1,1.03,3.72.63,5.65-.52,1.88-1.12,1.94-2.39,2.75-4.26l5.58-3.11c.53,6.35-3.32,11.44-9.39,13.05Z"/>
  <polygon class="st1" points="41.52 12.1 27.77 20.01 35.42 6.01 41.52 12.1"/>
</svg>