<?xml version="1.0" encoding="UTF-8"?>
<svg id="Camada_1" xmlns="http://www.w3.org/2000/svg" version="1.1" viewBox="0 0 48 48">
  <!-- Generator: Adobe Illustrator 29.8.6, SVG Export Plug-In . SVG Version: 2.1.1 Build 1)  -->
  <defs>
    <style>
      .st0 {
        fill: #dc620b;
      }

      .st1 {
        fill: #d96213;
      }

      .st2 {
        fill: #fad5ce;
        stroke: #fad5ce;
        stroke-miterlimit: 10;
        stroke-width: .1px;
      }
    </style>
  </defs>
  <g>
    <path class="st1" d="M4.61,20.29c-.22,8.1-.43,16.19-.65,24.29h0l-.23.34c13.11.07,26.22.13,39.32.2.11.11.26.22.37.19.26-.09.08-1.03.05-1.17-.17-.97-.22-7.33-.04-23.84.47,1.27.95,2.53,1.42,3.8.17-.15.33-.3.5-.45-1.41-2.81-3.46-5.98-6.49-9.34-4.73-5.25-10.43-9.39-15.5-12.49l2.86,1.29c-.69-.61-1.83-1.46-2.86-1.29-.7.11-1.07.65-1.18.8-.99,1.35-9.13,9.98-20.94,22.36.17.15.33.3.5.45"/>
    <path class="st0" d="M44.39,40.97c0,.55.02,1.24.03,2,.02.38.02.78.08,1.09.04.24.08.48.08.8-.01.17.02.32-.12.71-.04.14-.31.61-.83.71-.49.08-.71-.08-.84-.14-.13-.06.02-.02-.13-.04h-.66c-.44,0-.87-.01-1.28-.02-.84,0-1.62-.01-2.28-.02-5.41-.04-13.24-.09-18.35-.12-3.98-.02-4.89-.04-4.33.05l-7.1-.04-3.55-.02h-.89s-.44,0-.44,0h-.03s-.01,0-.01,0c-1.69-3.23-.47-.9-.84-1.62h0s.03-.05.03-.05l.02-.03.04-1.46.38-14.19c.04-1.36.1-3.01.15-4.79.02-.58.03-1.18.05-1.77,0-.02,0-.04,0-.05.05-.23.17-.5.24-.73.1-.35.1-.58.44-.81.44-.29.81-.09,1.25.06.12.08.14.47.13.62,0,.24-.03.48-.06.72l-.02.18v.05s0,.02,0,.02h0s-.01.46-.01.46l-.14,4.72c-.16,5.58-.33,11.17-.49,16.74h.44s0,0,0,0c7.07.05,14.13.1,21.15.15,3.51.02,7.01.04,10.5.07,1.74.01,3.49.02,5.22.03h.76s.3,0,.3,0c.05,0,.1,0,.14.01l.11.1.11.1.02.02h0c.13-.2-.16.31-.14.27l-.07.13c-.08.16-.07.29-.07.26.01,0-.11-.11-.28-.15-.11-.04-.19-.05-.33-.08-.1-.02-.05-.01-.06-.01,0,0,0,0,0,0,0-.03,0-.11,0-.19-.01-.18-.04-.31-.08-.59-.1-1-.09-1.81-.12-2.7,0-1.21-.02-2.41-.03-3.6.02-3.93.04-7.86.05-11.81l.03-2.96.02-1.48v-.74s.01-.37.01-.37v-.19s0-.02,0-.02h0c.73-.14-1.63.28,1.63-.3h0s.02.05.02.05l.03.09,1.04,2.77.26.69.07.17h0c-.6-.14,1.35.35-1.35-.32h0s.02-.02.02-.02l.03-.03.07-.06.28-.25.07-.06.02-.02h0c-.38,2-.11.55-.19,1h0s-.02-.05-.02-.05l-.08-.16-.17-.32-.34-.64h0c-.68-1.24-1.43-2.43-2.25-3.6h0s-.41-.57-.41-.57h0c-3.22-4.43-7.28-8.24-11.69-11.57-1.1-.83-2.23-1.63-3.38-2.4-.57-.39-1.15-.77-1.74-1.14l-.88-.55-.44-.27-.22-.14-.06-.03h-.01c1.64-3.11.46-.87.83-1.56h0s.03.02.03.02l.12.05,1.92.86.48.22.24.11.06.03c-1.89,2.93-.53.81-.95,1.46h0s-.01-.01-.01-.01l-.02-.02-.09-.08c-.24-.2-.49-.39-.74-.55-.5-.32-1.02-.48-1.31-.4-.15.04-.29.12-.43.27-.04.04-.07.08-.11.14l-.18.23c-.12.16-.24.29-.36.43h0c-.75.87-1.5,1.69-2.26,2.52h0c-3.83,4.16-7.71,8.26-11.59,12.37l-5.69,5.99-.1.13-.43.5c-.07.08-.14.16-.21.22-.04.03-.07.06-.12.09l-.03.02h-.02s0,.01,0,.01c.05,1.22-.07-1.66-.06-1.36h0s0,0,0,0h0s0,0,0,0h0s0,.01,0,.01l.04.07c.15.31.1.56,0,.87l-.24.27c-.27.17-.66.25-.96.11h-.01s0,0,0,0h0s0,0,0,0l-.05-1.16h0s0,0,0,0v-.02s.04-.05.04-.05l.06-.09c.04-.06.08-.12.13-.18.09-.12.19-.24.3-.36l.16-.18.74-.79c5.71-6.01,11.37-11.94,16.68-17.69h0c.78-.85,1.52-1.66,2.22-2.47h0c.12-.13.23-.27.32-.39l.15-.2c.07-.09.15-.2.24-.29.35-.38.87-.71,1.44-.81,1.18-.19,2.04.3,2.72.72.34.23.66.47.95.73l.05.05h0c.93-1.42-1.26,1.95-1.03,1.6h0s-.02-.01-.02-.01h-.03s-.12-.07-.12-.07l-.24-.11-.48-.22c-.64-.29-1.28-.57-1.91-.86h-.03s-.01-.02-.01-.02h0s0,0,0,0c1.81-3.42.5-.95.91-1.71l.06.03.11.07.22.14.44.27.88.56c.58.38,1.15.76,1.72,1.13,1.13.76,2.23,1.54,3.3,2.33,3.84,2.87,7.45,6.11,10.53,9.84,1.68,2.05,3.21,4.24,4.49,6.58h0s.41.76.41.76l.2.38.02.05v.02s.02.01.02.01h0c.05-.26-.44,2.34-.24,1.24l-.08.07-.16.14-.16.14-.08.07-.02.02h0c.36.1-3.14-.76-1.66-.4h0s-.02-.06-.02-.06l-.15-.39-.29-.78-.59-1.57-.29-.78-.07-.2h0c4-.71,1.11-.2,2-.36h0s0,.03,0,.03v.05s0,.1,0,.1v.42s-.07,6.69-.07,6.69c-.03,4.46-.07,8.93-.02,13.37Z"/>
  </g>
  <path class="st2" d="M23.69,25.72c7.59-.13,11.01,3.34,12.63,9.64.56,2.19,1.15,6.29.89,8.47-.36,3.09-4.05,3.17-4.8.83-.46-1.42-.16-3.73-.28-5.25-.47-6.19-2.62-10.15-10.3-9.12-1.96.26-3.06.74-3.93,2.41-.53,1-.84,3.45-.96,4.64-.22,2.32.19,5.86-.76,7.93-.55,1.2-2.54,1.48-3.75,1.02-.53-.2-.74-1.74-.78-2.27-.37-4.47.17-12.87,4.13-16.05,2.11-1.7,5.14-2.21,7.9-2.26Z"/>
</svg>