<?xml version="1.0" encoding="UTF-8"?>
<svg id="Camada_1" xmlns="http://www.w3.org/2000/svg" version="1.1" viewBox="0 0 48 48">
  <!-- Generator: Adobe Illustrator 29.8.6, SVG Export Plug-In . SVG Version: 2.1.1 Build 1)  -->
  <defs>
    <style>
      .st0 {
        fill: #dc620b;
      }
    </style>
  </defs>
  <g>
    <path class="st0" d="M13.36,16.16c-.29.23-.84.77-1.15,1.09-.64.65-1.56,1.59-2.16,2.19-.46.48-.59.57-.4.63l-3.28,3.45c-.34.22-.94.94-.9.86-.38.27-.92.51-1.33.77-.31.2-.54.38-.8.49-.13.06-.26.1-.41.12h-.03s-.01,0-.01,0h0s0,0,0,0c-.03-.7.06,1.57-.06-1.57h0s0,0,0,0h0s0,.07,0,.07c0,.04,0,.08,0,.13,0,.09,0,.18-.01.28-.11,1.05-.92,1.35-1.7,1.83-.07.02-.16,0-.26-.03h-.04s0-.02,0-.02h0s-.11-2.79-.11-2.79h0s0,0,0,0h0s0,0,0,0v-.02s.05-.08.05-.08l.1-.16c.14-.21.32-.42.42-.52.27-.27.55-.54.85-.8l.45-.39.11-.1.06-.05.22-.22.91-.9c2.42-2.41,4.84-4.82,7.14-7.23,2.54-2.67,5.06-5.42,7.52-8.2.61-.69,1.23-1.4,1.79-2.07l.21-.25.17-.22c.19-.25.29-.37.45-.54.08-.08.16-.15.24-.22l.1-.09c.16-.13.32-.25.5-.35.7-.41,1.56-.54,2.37-.39.41.08.79.2,1.13.37.26.14.49.31.67.52.55.67.47,1.22.3,1.85l-.47.53c-.54.34-1.29.54-1.76.47-.35-.07-.38,0-.44.02-.06.03-.1.06-.13.1l-.33.41-.68.79c-.44.5-.88.99-1.31,1.47-.84.95-1.65,1.86-2.43,2.73l-1.56,1.81-3.98,4.22Z"/>
    <path class="st0" d="M32.63,12.13c-.19-.25-.66-.68-.93-.93-.56-.51-1.39-1.22-1.95-1.67-.44-.34-.52-.45-.57-.26-1.05-.81-2.12-1.59-3.21-2.34-.22-.26-.9-.65-.84-.64-.32-.32-.65-.8-.98-1.15-.49-.53-.87-.75-.92-1.57-.07-1.05.66-1.49,1.36-2.1.26-.14.98.25,1.23.41.33.21.65.45.96.7l.47.38.12.1.06.05.23.16.91.66c2.41,1.79,4.74,3.72,6.91,5.71,2.41,2.2,4.73,4.57,6.8,7.2.52.66,1.02,1.33,1.49,2.02l.66.97.2.28c.26.37.52.75.75,1.14.23.39.44.73.49,1.18.02.24.01.44-.03.63l-.34,1.81h0c-.38,0-.73-.12-1.13-.3l-.48-.53c-.17-.35-.26-.79-.22-1.21h0s-.28,1.45-.28,1.45c-.24-.08-.46-.21-.64-.38-.54-.55-1.02-1.35-1.52-2.11-1.17-1.85-2.49-3.55-3.77-4.93-.45-.48-.91-.94-1.38-1.4-1.09-1.16-2.24-2.28-3.43-3.34Z"/>
    <path class="st0" d="M40.44,31.44c.06-.24.09-.74.1-1.03.02-.59.07-1.45.08-2.01,0-.44.04-.54-.14-.48l.03-3.11c.09-.26.04-.85.07-.86.1-.45.32-1,.45-1.47.19-.71.18-1.16.86-1.63.86-.6,1.62-.2,2.5.08.25.15.29.94.29,1.24-.01.64-.09,1.3-.17,1.97-.13,2.57-.28,5.17-.32,7.7-.04,2.42,0,4.86.04,7.3l.03,1.83.02.86.02.32c.03.43.05.86.06,1.29,0,.43.02.8-.15,1.2-.09.21-.19.37-.32.51l-1.24,1.48h0c-.34-.19-.57-.48-.82-.84l-.13-.7c.04-.39.19-.82.44-1.16h0s-1,1.19-1,1.19c-.17-.19-.31-.41-.37-.65-.21-.77-.23-1.76-.24-2.72,0-1.75,0-3.46-.05-4.95l-.08-1.56.04-3.79Z"/>
    <path class="st0" d="M27.42,42.06c.49.05,1.51.07,2.09.07,1.2,0,2.95.02,4.08.02.88,0,1.09.03.96-.15l6.31-.05c.29.04.66.05,1.07.04.56,0,.42-.01.53,0,.45.09,1.01.3,1.48.42.72.18,1.16.16,1.65.83.62.85.23,1.62-.04,2.5-.15.25-.94.31-1.23.31-.38,0-.77-.02-1.16-.05l-.59-.05h-.15s-.07-.02-.07-.02h-.42s-1.69-.02-1.69-.02c-4.52-.05-9.05-.11-13.47-.08-4.9.03-9.83.13-14.78.24l-3.71.08-1.71.04-.32.03c-.43.04-.86.06-1.29.08-.43.02-.8.04-1.21-.12-.17-.07-.32-.15-.45-.25l-1.51-1.08h0c.14-.4.41-.69.76-1.01l.68-.22c.42-.02.9.09,1.29.33h0s-1.23-.88-1.23-.88h0c.17-.15.37-.26.58-.33.63-.19,1.42-.24,2.2-.27l.99-.02c1.12-.01,2.24-.03,3.33-.04,2.19-.03,4.29-.07,6.21-.13l3.15-.12,7.68-.06Z"/>
    <path class="st0" d="M3.15,31.44c.06-.24.09-.74.1-1.03.02-.59.07-1.45.08-2.01,0-.44.04-.54-.14-.48l.03-3.11c.09-.26.04-.85.07-.86.1-.45.32-1,.45-1.47.19-.71.18-1.16.86-1.63.86-.6,1.62-.2,2.5.08.25.15.29.94.29,1.24-.01.64-.09,1.3-.17,1.97-.13,2.57-.28,5.17-.32,7.7-.04,2.42,0,4.86.04,7.3l.03,1.83.02.86.02.32c.03.43.05.86.06,1.29,0,.43.02.8-.15,1.2-.09.21-.19.37-.32.51l-1.24,1.48h0c-.34-.19-.57-.48-.82-.84l-.13-.7c.04-.39.19-.82.44-1.16h0s-1,1.19-1,1.19c-.17-.19-.31-.41-.37-.65-.21-.77-.23-1.76-.24-2.72,0-1.75,0-3.46-.05-4.95l-.08-1.56.04-3.79Z"/>
  </g>
  <path class="st0" d="M21.08,29.54c-.41.02-1.15.25-1.5.47-.38.21-.79.51-1.09.89-.31.37-.56.88-.74,1.34-.26.74-.33.93-.13.86-.54,1.83-.7,3.86-.65,5.91-.04.28-.03.65,0,1.05.03.55.04.4.03.52-.06.43-.22.97-.29,1.44-.1.7-.02,1.12-.6,1.69-.74.74-1.56.5-2.47.36-.28-.11-.45-.93-.49-1.24-.05-.4-.07-.81-.08-1.22v-.62s0-.16,0-.16v-.08s-.02-.47-.02-.47c-.03-.63-.04-1.26-.03-1.89.04-2.53.37-5.12,1.37-7.65.49-1.28,1.47-2.68,2.73-3.52,1.25-.88,2.69-1.3,4-1.49.73-.1,1.43-.14,2.08-.17.68-.04,1.4-.05,2.13,0,1.45.09,2.96.39,4.39,1.08,1.42.66,2.76,1.83,3.57,3.24.41.69.7,1.36.96,2.02.27.67.48,1.35.67,2.04.37,1.38.59,2.78.7,4.18.03.35.04.7.06,1.05l.02.88.02.35c.02.46.03.92.01,1.38-.02.46-.03.86-.24,1.26-.33.64-.81.86-1.43,1.04l-.7-.1c-.58-.26-1.15-.81-1.28-1.43-.12-.62-.12-1.35-.12-2.09v-.94c-.03-1.1-.12-2.17-.3-3.2-.18-1.03-.44-2.01-.78-2.91-.36-.92-.74-1.71-1.19-2.21-.49-.56-1.15-1-1.92-1.29-.92-.4-2.01-.59-3.17-.61-.57-.02-1.18.02-1.84.06-.62.04-1.18.1-1.69.21Z"/>
</svg>