<?xml version="1.0" encoding="UTF-8"?>
<svg id="Camada_1" xmlns="http://www.w3.org/2000/svg" version="1.1" viewBox="0 0 48 48">
  <!-- Generator: Adobe Illustrator 29.8.6, SVG Export Plug-In . SVG Version: 2.1.1 Build 1)  -->
  <defs>
    <style>
      .st0 {
        fill: #fff;
      }

      .st1 {
        fill: none;
      }

      .st2 {
        fill: #d96213;
      }

      .st3 {
        fill: #fad5ce;
      }
    </style>
  </defs>
  <rect class="st3" x="3.57" y="2.5" width="41.33" height="43.63" rx="6" ry="6"/>
  <path class="st2" d="M22.59,11.48c-9.35.95-14.35,13.87-8.51,21.17,4.98,6.23,14.76,4.81,19.6-.83,7.37-8.59-.14-21.46-11.09-20.35ZM16.02,28.08c-1.78-3.86-.03-8.41,3.13-11.05,4.41-3.67,10.86-1.24,13.01,3.72,4.19,9.66-11.57,17.27-16.14,7.33Z"/>
  <path class="st2" d="M36.35,5.44c-3.35.4-5.18,4.68-3.05,7.35.93,1.18,2.8,1.92,4.25,1.29.49-.21,1.03-.55,1.63-.81,3.77-1.67,1.76-8.4-2.82-7.84ZM37.15,11.06c-.06.08-.63-.3-.7-.38-.35-.38-.19-1.75.58-1.36.55.28.02,1.24.12,1.74Z"/>
  <path class="st2" d="M47.31,29.51c.17-6.45.35-12.84,0-19.28-.12-2.38-.07-3.68-1.43-5.77-2.2-3.38-5.3-4.2-9.14-4.17-5.05.05-10.15.26-15.2.35-4.01.08-8.4-.17-12.35.12C4.45,1.12.78,4.85.49,9.58l.51,29.46c.31,4.39,3.87,8.2,8.3,8.55,4.55.36,10.02-.2,14.66-.27,2.44-.03,4.9-.07,7.33-.12,4.84-.1,11.61,1,14.65-3.74,1.85-2.88,1.26-10.33,1.36-13.95ZM44.22,29.39c-.08,3.12.1,6.59-.11,9.65-.29,3.91-2.84,4.9-6.37,5.08-4.49.24-9.26.04-13.77.11-4.5.07-10,.64-14.41.27-2.99-.26-5.23-2.79-5.47-5.73-.28-3.62-.04-7.65-.11-11.33-.1-5.21-.32-10.47-.39-15.68-.03-2.02-.04-3.78,1.23-5.47,2.41-3.17,5.89-2.36,9.39-2.44,7.54-.18,15.12-.39,22.66-.49,2.69-.03,5.04.43,6.51,2.93.94,1.63.75,2.41.85,4.17.34,6.32.14,12.58-.01,18.91Z"/>
  <path class="st1" d="M44.23,10.48c-.1-1.76.09-2.55-.85-4.17-1.47-2.5-3.82-2.96-6.51-2.93-7.55.09-15.13.31-22.66.49-3.5.08-6.98-.72-9.39,2.44-1.27,1.69-1.26,3.45-1.23,5.47.07,5.21.29,10.47.39,15.68.07,3.68-.17,7.7.11,11.33.24,2.94,2.47,5.47,5.47,5.73,4.41.37,9.91-.2,14.41-.27,4.51-.07,9.28.12,13.77-.11,3.53-.19,6.08-1.17,6.37-5.08.22-3.06.03-6.53.11-9.65.16-6.33.35-12.59.01-18.91ZM33.68,31.83c-4.84,5.64-14.62,7.06-19.6.83-5.84-7.3-.84-20.22,8.51-21.17,10.94-1.12,18.46,11.75,11.09,20.35ZM39.17,13.28c-.6.26-1.14.6-1.63.81-1.45.62-3.31-.11-4.25-1.29-2.12-2.67-.3-6.95,3.05-7.35,4.58-.56,6.59,6.17,2.82,7.84Z"/>
  <path class="st0" d="M22.59,11.48c-9.35.95-14.35,13.87-8.51,21.17,4.98,6.23,14.76,4.81,19.6-.83,7.37-8.59-.14-21.46-11.09-20.35ZM16.02,28.08c-1.78-3.86-.03-8.41,3.13-11.05,4.41-3.67,10.86-1.24,13.01,3.72,4.19,9.66-11.57,17.27-16.14,7.33Z"/>
  <path class="st0" d="M36.35,5.44c-3.35.4-5.18,4.68-3.05,7.35.93,1.18,2.8,1.92,4.25,1.29.49-.21,1.03-.55,1.63-.81,3.77-1.67,1.76-8.4-2.82-7.84ZM37.15,11.06c-.06.08-.63-.3-.7-.38-.35-.38-.19-1.75.58-1.36.55.28.02,1.24.12,1.74Z"/>
  <path class="st2" d="M22.59,11.48c-9.35.95-14.35,13.87-8.51,21.17,4.98,6.23,14.76,4.81,19.6-.83,7.37-8.59-.14-21.46-11.09-20.35ZM16.02,28.08c-1.78-3.86-.03-8.41,3.13-11.05,4.41-3.67,10.86-1.24,13.01,3.72,4.19,9.66-11.57,17.27-16.14,7.33Z"/>
  <path class="st2" d="M36.35,5.44c-3.35.4-5.18,4.68-3.05,7.35.93,1.18,2.8,1.92,4.25,1.29.49-.21,1.03-.55,1.63-.81,3.77-1.67,1.76-8.4-2.82-7.84ZM37.15,11.06c-.06.08-.63-.3-.7-.38-.35-.38-.19-1.75.58-1.36.55.28.02,1.24.12,1.74Z"/>
  <path class="st1" d="M16.02,28.08c-1.78-3.86-.03-8.41,3.13-11.05,4.41-3.67,10.86-1.24,13.01,3.72,4.19,9.66-11.57,17.27-16.14,7.33Z"/>
  <path class="st1" d="M37.15,11.06c-.06.08-.63-.3-.7-.38-.35-.38-.19-1.75.58-1.36.55.28.02,1.24.12,1.74Z"/>
</svg>