<?xml version="1.0" encoding="UTF-8"?>
<svg id="Camada_1" xmlns="http://www.w3.org/2000/svg" version="1.1" viewBox="0 0 48 48">
  <!-- Generator: Adobe Illustrator 29.8.6, SVG Export Plug-In . SVG Version: 2.1.1 Build 1)  -->
  <defs>
    <style>
      .st0 {
        fill: #dc620b;
      }

      .st1 {
        fill: none;
        stroke: #dc620b;
        stroke-miterlimit: 10;
        stroke-width: 3px;
      }
    </style>
  </defs>
  <path class="st1" d="M38.63,45.46l-28.25.49c-4.19.07-7.65-3.26-7.72-7.45l-.49-28.25c-.07-4.19,3.26-7.65,7.45-7.72l28.25-.49c4.19-.07,7.65,3.26,7.72,7.45.08,4.73.17,9.46.25,14.19-.3,5.33-.37,9.51-.38,12.35-.01,3.12.05,5.33-1.5,7.11-1.55,1.78-3.9,2.2-5.33,2.32Z"/>
  <path class="st0" d="M17.96,18.22c-.54.48-1.4,1.76-1.74,2.57-.39.82-.72,1.89-.86,2.95-.15,1.05-.09,2.12.08,2.96.28,1.28.41,1.54.51,1.32.5,1.42,1.38,2.59,2.55,3.41,1.17.81,2.63,1.24,4.13,1.27.41.04.96.04,1.54-.06l.44-.08s.07-.01.11-.02h.02s.02-.01.02-.01c.03,0,.06-.01.08-.01.39,0,.9.08,1.33.05.65-.06,1-.22,1.7.16.92.49.98,1.32,1.09,2.25-.03.31-.84.75-1.16.86-.41.17-.86.27-1.29.39l-.68.11-1.11.19c-1.16.16-2.35.18-3.53.01-2.36-.32-4.68-1.41-6.37-3.17-1.7-1.76-2.69-4.05-3.03-6.3-.18-1.13-.21-2.29-.1-3.44.13-1.14.39-2.25.77-3.31.78-2.11,2.01-4.04,3.67-5.57.92-.84,1.96-1.58,3.12-2.12,1.16-.53,2.42-.87,3.7-1.01,1.28-.11,2.58,0,3.82.29,1.25.31,2.42.83,3.5,1.48,1.09.65,2.04,1.49,2.89,2.41.85.93,1.57,1.98,2.11,3.13.55,1.15.95,2.39,1.11,3.69.16,1.3.07,2.63-.22,3.89-.29,1.26-.77,2.44-1.4,3.55-.64,1.12-1.48,2.14-2.47,3.01-.5.43-1.03.81-1.58,1.16-.28.16-.57.32-.86.47l-.57.27c-.11.06-.23.11-.34.17-.46.22-.94.4-1.43.54-.48.14-.92.24-1.41.15-.77-.15-1.12-.59-1.42-1.17v-.71c.17-.61.54-1.27,1.04-1.54.5-.27,1.12-.47,1.73-.72l.23-.09s.08-.03.11-.05l.13-.06c.19-.08.37-.17.55-.27,1.44-.77,2.57-1.95,3.31-3.39.76-1.45,1.11-3.03.98-4.48-.11-1.45-.71-2.85-1.49-4.02-.91-1.25-2.09-2.34-3.45-3.02-1.62-.9-3.47-1.18-5.22-.85-1.74.35-3.36,1.33-4.59,2.77Z"/>
  <path class="st0" d="M36.43,9.48c-.05-.02-.12,0-.15.04-.07.06-.18.18-.2.28-.02.07-.06.08.12.11-.01.07-.02.11-.02.16,0,.07.02.13.03.16-.07.06-.02.03-.04.05-.08.05-.17.29-.07.44.2.22.38.21.94.71.38.3.67.6.8.99.14.39.13.86.08,1.35-.06.16-.41.37-.84.49-.43.13-.94.13-1.21.1-1.21-.1-2.5-.91-3.06-2.06-.3-.56-.44-1.11-.49-1.64-.05-.53,0-1.12.15-1.61.29-1,.84-1.86,1.68-2.52.54-.43,1.23-.73,1.96-.83.73-.11,1.48.02,2.14.29,1.29.57,2.28,1.63,2.62,3.16.23,1.04,0,2.08-.47,2.89-.38.67-.93,1.22-1.65,1.44-1.13.28-1.63-.2-2-.75v-.71c.16-.61.34-1.31.36-1.56.04-.16.03-.24.07-.39.03-.16.02-.24,0-.29,0-.13-.28-.42-.45-.4-.06,0-.1.04-.12.06-.05,0-.05-.01-.16.07Z"/>
</svg>