<?xml version="1.0" encoding="UTF-8"?>
<svg id="Camada_1" xmlns="http://www.w3.org/2000/svg" version="1.1" viewBox="0 0 48 48">
  <!-- Generator: Adobe Illustrator 29.8.6, SVG Export Plug-In . SVG Version: 2.1.1 Build 1)  -->
  <defs>
    <style>
      .st0 {
        fill: #fff;
      }

      .st1 {
        fill: none;
      }

      .st2 {
        fill: #d96213;
      }

      .st3 {
        fill: #fad5ce;
      }
    </style>
  </defs>
  <path class="st2" d="M22.59,11.49c-9.35.95-14.35,13.87-8.51,21.17,4.98,6.23,14.76,4.81,19.59-.83,7.37-8.59-.14-21.46-11.09-20.34ZM16.02,28.08c-1.78-3.86-.03-8.4,3.13-11.04,4.41-3.66,10.86-1.24,13.01,3.72,4.19,9.66-11.56,17.27-16.14,7.33Z"/>
  <path class="st2" d="M36.35,5.45c-3.35.4-5.18,4.68-3.05,7.35.93,1.18,2.79,1.91,4.24,1.29.49-.21,1.02-.55,1.63-.81,3.77-1.67,1.76-8.39-2.82-7.84ZM37.14,11.07c-.06.08-.63-.3-.7-.38-.35-.38-.19-1.75.58-1.36.55.28.02,1.24.12,1.74Z"/>
  <path class="st2" d="M45.94,43.45c-3.04,4.74-9.81,3.63-14.65,3.74-2.43.05-4.89.09-7.33.12-4.64.07-10.11.63-14.66.27-4.43-.35-7.99-4.16-8.3-8.55L.5,9.58C.79,4.85,4.46,1.13,9.19.77c3.95-.29,8.34-.04,12.35-.12,5.05-.09,10.14-.3,15.19-.35,3.84-.03,6.95.8,9.14,4.17,1.36,2.09,1.3,3.38,1.43,5.77.35,6.44.17,12.82,0,19.27-.09,3.61.5,11.06-1.36,13.94Z"/>
  <path class="st1" d="M44.22,10.49c-.1-1.76.09-2.55-.85-4.17-1.47-2.49-3.82-2.96-6.51-2.93-7.55.09-15.12.31-22.66.49-3.5.08-6.98-.72-9.39,2.44-1.27,1.69-1.26,3.45-1.23,5.47.07,5.21.29,10.46.39,15.67.07,3.67-.17,7.7.11,11.32.24,2.94,2.47,5.47,5.47,5.72,4.41.37,9.91-.2,14.41-.27,4.51-.07,9.27.12,13.77-.11,3.53-.19,6.08-1.17,6.37-5.08.22-3.06.03-6.53.11-9.65.16-6.32.35-12.59.01-18.9ZM33.67,31.83c-4.83,5.64-14.62,7.06-19.59.83-5.84-7.3-.84-20.22,8.51-21.17,10.94-1.12,18.46,11.75,11.09,20.34ZM39.16,13.28c-.6.26-1.14.6-1.63.81-1.45.62-3.31-.11-4.24-1.29-2.12-2.67-.3-6.95,3.05-7.35,4.58-.56,6.58,6.17,2.82,7.84Z"/>
  <path class="st0" d="M22.59,11.49c-9.35.95-14.35,13.87-8.51,21.17,4.98,6.23,14.76,4.81,19.59-.83,7.37-8.59-.14-21.46-11.09-20.34ZM16.02,28.08c-1.78-3.86-.03-8.4,3.13-11.04,4.41-3.66,10.86-1.24,13.01,3.72,4.19,9.66-11.56,17.27-16.14,7.33Z"/>
  <path class="st0" d="M36.35,5.45c-3.35.4-5.18,4.68-3.05,7.35.93,1.18,2.79,1.91,4.24,1.29.49-.21,1.02-.55,1.63-.81,3.77-1.67,1.76-8.39-2.82-7.84ZM37.14,11.07c-.06.08-.63-.3-.7-.38-.35-.38-.19-1.75.58-1.36.55.28.02,1.24.12,1.74Z"/>
  <path class="st3" d="M22.59,11.49c-9.35.95-14.35,13.87-8.51,21.17,4.98,6.23,14.76,4.81,19.59-.83,7.37-8.59-.14-21.46-11.09-20.34ZM16.02,28.08c-1.78-3.86-.03-8.4,3.13-11.04,4.41-3.66,10.86-1.24,13.01,3.72,4.19,9.66-11.56,17.27-16.14,7.33Z"/>
  <path class="st3" d="M36.35,5.45c-3.35.4-5.18,4.68-3.05,7.35.93,1.18,2.79,1.91,4.24,1.29.49-.21,1.02-.55,1.63-.81,3.77-1.67,1.76-8.39-2.82-7.84ZM37.14,11.07c-.06.08-.63-.3-.7-.38-.35-.38-.19-1.75.58-1.36.55.28.02,1.24.12,1.74Z"/>
  <path class="st1" d="M16.02,28.08c-1.78-3.86-.03-8.4,3.13-11.04,4.41-3.66,10.86-1.24,13.01,3.72,4.19,9.66-11.56,17.27-16.14,7.33Z"/>
  <path class="st1" d="M37.14,11.07c-.06.08-.63-.3-.7-.38-.35-.38-.19-1.75.58-1.36.55.28.02,1.24.12,1.74Z"/>
</svg>