<?xml version="1.0" encoding="UTF-8"?>
<svg id="Camada_1" xmlns="http://www.w3.org/2000/svg" version="1.1" viewBox="0 0 48 48">
  <!-- Generator: Adobe Illustrator 29.8.6, SVG Export Plug-In . SVG Version: 2.1.1 Build 1)  -->
  <defs>
    <style>
      .st0 {
        fill: #d96213;
      }
    </style>
  </defs>
  <path class="st0" d="M25.85,30.97l-.18-6.88c.23,2.23.2,4.6.18,6.88Z"/>
  <path class="st0" d="M41.25,15.09c-.71-.5-6.08-.1-7.28-.01-8.42.51-17.69-.7-26.01,0-.31.02-.86.07-1.09.26-.28.24-.5,1.58-.44,1.96.18,1.35,1.6,1.51,1.63,1.63.11.4-.05,1.42.01,1.99.53,4.98,1.65,9.31,1.69,14.46.02,3.55-1.14,7.93,2.66,10.08,2.12,1.2,8.81,1.54,11.35,1.4.64-.03,1.27-.31,1.87-.34,2.37-.12,5.15.05,7.47-.18,2.41-.24,3.88-1.94,4.45-4.21,1.28-7.13,1.39-14.71,2.65-21.82.05-.27.23-1.32.33-1.45.2-.23.92-.16.97-.21.13-.13.1-3.3-.26-3.55ZM19.22,35.53v.21c-.02,1.27-.06,4.66-1.48,4.78-.12.01-.23.02-.33.02-.62,0-.78-.1-.82-.8-.03-.65.07-1.51.17-2.35.08-.68.17-1.37.18-1.98.05-1.95.05-4.08,0-6.35-.01-.73-.1-1.56-.18-2.36-.1-1-.21-2.03-.18-2.84.02-.31.15-.75.26-.93.11-.01.33-.03.66-.03.55,0,.98.04,1.19.08.1.25.3,1.18.35,1.93.26,3.33.23,6.92.18,10.62ZM25.21,40.06c-.22.34-.44.46-.89.46h-.16c-.54-.04-.69-.1-.73-.13,0,0-.03-.05-.04-.18-.14-1.29.01-2.95.15-4.56.1-1.12.2-2.18.21-3.15.01-1.26-.09-2.61-.19-3.92-.08-.97-.15-1.98-.18-2.9v-.38c-.09-1.62.05-2.18.18-2.36.17-.01.57-.03,1.1-.03.29,0,.52.01.68.02.14.34.31.94.33,1.16l.18,6.88c0,.91-.02,1.81-.02,2.7,0,.47.03.97.06,1.48.09,1.76.18,3.59-.68,4.91ZM31.79,36.81c-.05.5-.6,2.54-.77,2.87-.14.25-.59.43-1.06.43-.41,0-.73-.14-.78-.27-.05-1.39.06-2.86.16-4.29.09-1.17.18-2.39.18-3.57.01-1.14-.1-2.39-.21-3.71-.15-1.83-.31-3.73-.15-5.19.04-.3.13-.54.2-.65.18-.01.57-.03,1.08-.03.27,0,.49.01.65.01.15.4.33,1.1.36,1.34.22,2.21.2,4.55.17,6.8-.01.88-.02,1.75-.01,2.61,0,.55.05,1.09.11,1.61.07.72.13,1.39.07,2.04Z"/>
  <path class="st0" d="M40.67,9.21c-.93-.25-1.48.08-2.29.1-2.63.05-5.27-.06-7.9-.01.18-1.03.77-2.22.63-3.27-.04-.33-.34-.57-.31-1.06.02-.38.31-.58.35-.86.43-3.05-.95-3.04-3.48-2.97-1.54.03-3.2.38-4.76.35-1.17-.02-4.97-.79-5.77-.01-.3.29-.46,1.63-.35,2.05.18.67.81,1.55.91,2.5.05.42-.26.84-.31,1.31-.05.64.05,1.32.01,1.96-2.42-.12-4.83.09-7.23.18-.94.03-1.76-.21-2.85.03-1.13.25-1.16,2.82.04,3.45,2.07,1.11,6.22.65,8.59.58,8.3-.22,16.93.41,25.17-.62.15-.01.27.09.4.12v-3.32c0-.1-.69-.47-.85-.51ZM26.74,10.37h-6.63l.13-1.01c.06-.51.2-.99.33-1.45.22-.78.41-1.45.21-2.08l-.24-.78.75-.32c.36-.15.74-.23,1.16-.23.35,0,.67.06.96.1.23.04.45.08.64.08.16,0,.42-.04.71-.08.58-.08,1.23-.16,1.71-.16.33,0,.72.03,1.02.3.54.46.43,1.25.24,2.68-.08.55-.2,1.49-.15,1.74l.52,1.25-1.36-.04Z"/>
</svg>