<?xml version="1.0" encoding="UTF-8"?>
<svg id="Camada_1" xmlns="http://www.w3.org/2000/svg" version="1.1" viewBox="0 0 48 48">
  <!-- Generator: Adobe Illustrator 29.8.6, SVG Export Plug-In . SVG Version: 2.1.1 Build 1)  -->
  <defs>
    <style>
      .st0 {
        fill: #dc620b;
      }

      .st1 {
        fill: #d96213;
      }

      .st2 {
        fill: #db6006;
      }
    </style>
  </defs>
  <path class="st0" d="M13.82,15.64c-.22.2-.48.48-.74.81-.28.32-.56.69-.82,1.09-.55.77-1,1.64-1.29,2.3-.6,1.33-1.1,3.07-1.18,4.82-.1,1.74.27,3.49.74,4.76.37,1,.7,1.56.88,1.86.19.29.23.32.19.17,1.3,2.13,3.4,3.71,5.78,4.55,2.38.85,5.02,1.03,7.56.59.69-.08,1.6-.3,2.54-.6.24-.06.47-.17.7-.25l.21-.08s.03-.01.05-.01c.22-.03.5-.02.73-.07.35-.06.54-.15.9.05.46.26.46.68.52,1.14-.02.15-.38.34-.52.4-.18.08-.37.16-.57.22l-.3.08-.08.02h-.04c-.35.13-.71.29-1.08.39-1.47.48-2.99.77-4.54.87-3.08.2-6.27-.39-9.01-1.96-1.36-.79-2.59-1.81-3.59-3.04-1-1.22-1.73-2.65-2.22-4.13-.48-1.49-.72-3.03-.72-4.59.03-1.56.32-3.09.8-4.55.48-1.46,1.18-2.83,2.05-4.08.86-1.25,1.87-2.4,3.04-3.36,1.28-1.08,2.73-1.96,4.29-2.6,1.56-.64,3.24-.98,4.91-1.09,1.68-.13,3.38.08,5.01.49,1.63.42,3.2,1.08,4.63,1.98,2.84,1.78,5.26,4.37,6.51,7.59.62,1.6.96,3.35.85,5.08-.1,1.74-.59,3.42-1.32,4.96-1.44,3.1-4.13,5.62-7.25,6.98-.78.33-1.58.64-2.4.85-.41.12-.82.21-1.24.29l-.62.12-.16.02-.17.04c-.22.05-.45.09-.67.12-.22.03-.42.05-.64-.01-.34-.11-.5-.33-.63-.62v-.36c.08-.31.3-.63.6-.74.29-.11.66-.17,1.02-.23.47-.09.93-.18,1.4-.26,2.7-.6,5.18-1.94,6.99-3.87,1.79-1.92,2.95-4.44,3.23-6.88.28-2.46-.48-4.85-1.7-6.82-.68-1.08-1.53-2.05-2.46-2.93-.95-.86-2.01-1.59-3.13-2.21-2.75-1.44-5.94-2.11-9-1.59-1.53.24-3.01.72-4.38,1.45-1.36.74-2.6,1.7-3.67,2.84Z"/>
  <g>
    <path class="st2" d="M26.89,29.37c-2.85,1.42-6.06,1.1-7.99-.67-1.73-1.59-1.77-3.75-1.77-4.28.05-3.01,2.53-6.32,6.26-6.65,3.78-.34,7.08,2.54,7.44,5.57.25,2.07-.94,3.69-1.22,4.05-1.86,2.4-4.83,2.47-5.19,2.48"/>
    <path class="st0" d="M19.88,20.54c-.36.3-.95,1.1-1.19,1.61-.26.51-.49,1.19-.56,1.87-.09.67.01,1.36.15,1.87.25.79.37.94.38.8.82,1.73,2.86,2.66,4.89,2.53.28,0,.65-.03,1.03-.11.55-.13.35-.08.43-.1.2-.02.47.03.69,0,.34-.02.52-.11.87.09.46.26.46.68.51,1.14-.02.15-.41.36-.57.41-.2.07-.41.14-.62.18l-.32.07-.08.02h-.04s-.51.12-.51.12c-.69.13-1.4.18-2.11.15-1.41-.07-2.86-.51-4.03-1.4-1.19-.87-2.02-2.22-2.34-3.61-.35-1.38-.21-2.91.3-4.2.5-1.31,1.34-2.45,2.41-3.34,1.18-.98,2.67-1.59,4.21-1.72,1.54-.12,3.11.23,4.45.98,1.34.75,2.49,1.85,3.22,3.26.36.7.6,1.48.68,2.3.07.82-.04,1.64-.29,2.39-.48,1.5-1.5,2.84-2.85,3.7-.33.21-.68.4-1.04.56-.18.07-.36.16-.54.22l-.36.12-.17.06c-.23.08-.46.15-.7.2-.24.05-.44.09-.68.03-.37-.09-.53-.31-.68-.6v-.36c.08-.3.28-.63.55-.76.27-.12.6-.21.94-.31l.66-.22c1.02-.39,1.88-1.05,2.46-1.9.59-.86.91-1.87.88-2.8-.04-.92-.43-1.81-.97-2.55-.62-.79-1.43-1.46-2.35-1.87-2.21-1.11-5.02-.66-6.7,1.16Z"/>
  </g>
  <path class="st1" d="M25.3,10.14l-4.78-.16c0-.2.17-1.49.12-1.55-.06-.07-.19-.02-.2-.07.06-.74,0-1.52.08-2.25.09-.92.41-1.66.68-2.53.19-.61.23-1.26.66-1.77.5-.6,1.22-.91,2-.85.33.03,1.51.36,1.77.53s.35.9.36,1.2c.04,1.09-.18,2.15-.29,3.23-.13,1.32-.27,2.66-.35,3.98,0,.08,0,.17-.05.24Z"/>
  <path class="st1" d="M26.08,37.86l-4.78.16c0,.2.17,1.49.12,1.55-.06.07-.19.02-.2.07.06.74,0,1.52.08,2.25.09.92.41,1.66.68,2.53.19.61.23,1.26.66,1.77.5.6,1.22.91,2,.85.33-.03,1.51-.36,1.77-.53s.35-.9.36-1.2c.04-1.09-.18-2.15-.29-3.23-.13-1.32-.27-2.66-.35-3.98,0-.08,0-.17-.05-.24Z"/>
  <path class="st1" d="M10.14,23.68l-.16,4.78c-.2,0-1.49-.17-1.55-.12-.07.06-.02.19-.07.2-.74-.06-1.52,0-2.25-.08-.92-.09-1.66-.41-2.53-.68-.61-.19-1.26-.23-1.77-.66-.6-.5-.91-1.22-.85-2,.03-.33.36-1.51.53-1.77s.9-.35,1.2-.36c1.09-.04,2.15.18,3.23.29,1.32.13,2.66.27,3.98.35.08,0,.17,0,.24.05Z"/>
  <path class="st1" d="M37.86,22.89l.16,4.78c.2,0,1.49-.17,1.55-.12.07.06.02.19.07.2.74-.06,1.52,0,2.25-.08.92-.09,1.66-.41,2.53-.68.61-.19,1.26-.23,1.77-.66.6-.5.91-1.22.85-2-.03-.33-.36-1.51-.53-1.77s-.9-.35-1.2-.36c-1.09-.04-2.15.18-3.23.29-1.32.13-2.66.27-3.98.35-.08,0-.17,0-.24.05Z"/>
</svg>