<?xml version="1.0" encoding="UTF-8"?>
<svg id="Camada_1" xmlns="http://www.w3.org/2000/svg" version="1.1" viewBox="0 0 48 48">
  <!-- Generator: Adobe Illustrator 29.8.6, SVG Export Plug-In . SVG Version: 2.1.1 Build 1)  -->
  <defs>
    <style>
      .st0 {
        fill: #fff;
      }

      .st1 {
        fill: #d96213;
      }
    </style>
  </defs>
  <path class="st1" d="M19.53,23.1c-3.8-2.67-3.3-8.49-.25-11.49-3.07,2.98-3.58,8.81.22,11.49.58.41,1.2.72,1.84.92-.63-.21-1.24-.52-1.81-.92Z"/>
  <path class="st1" d="M40.1,9.07C32.7-3.18,14.53-3.05,7.67,9.64c-2.64,4.86-2.67,8.99-.44,13.98,3.23,7.27,7.56,14.53,11.13,21.65.37.93,1.73.7,2.09.89.33.19.66,1.59,1.72,1.81,1.28.26,3.06-1.26,3.88-2.17,2.77-3.11,5.8-7.66,8.2-11.17,5.35-7.77,11.57-16.05,5.85-25.56ZM30.58,19.84c-1,2.28-3.11,3.85-5.44,4.34-1.03.23-2.11.25-3.15.01-.22-.05-.43-.11-.65-.17-.64-.2-1.26-.51-1.84-.92-3.8-2.68-3.29-8.51-.22-11.49.1-.11.21-.21.32-.3.59-.5,1.26-.91,2-1.18.41-.15.85-.26,1.31-.32,1.11-.14,2.17-.03,3.14.27.19.06.37.12.55.2.36.14.71.31,1.03.51h.01c.27.16.52.34.76.53.13.1.25.2.37.3.19.17.36.35.53.53.08.08.17.18.25.28.07.1.15.2.23.3,1.45,1.93,1.94,4.57.8,7.11Z"/>
  <path class="st0" d="M19.53,23.1c-3.8-2.67-3.3-8.49-.25-11.49-3.07,2.98-3.58,8.81.22,11.49.58.41,1.2.72,1.84.92-.63-.21-1.24-.52-1.81-.92Z"/>
  <path class="st0" d="M19.53,23.1c-3.8-2.67-3.3-8.49-.25-11.49-3.07,2.98-3.58,8.81.22,11.49.58.41,1.2.72,1.84.92-.63-.21-1.24-.52-1.81-.92Z"/>
</svg>