<?xml version="1.0" encoding="UTF-8"?>
<svg id="Camada_1" xmlns="http://www.w3.org/2000/svg" version="1.1" viewBox="0 0 48 48">
  <!-- Generator: Adobe Illustrator 29.8.6, SVG Export Plug-In . SVG Version: 2.1.1 Build 1)  -->
  <defs>
    <style>
      .st0 {
        fill: #fff;
      }

      .st1 {
        fill: #d96213;
      }
    </style>
  </defs>
  <path class="st1" d="M22.91,9.81c-5.94.75-8.41,9.76-3.4,13.29,3.79,2.68,9.23.86,11.06-3.26,2.31-5.19-2.1-10.74-7.65-10.03ZM26.72,18.66c-.18.25-1.99,1.95-2.13,1.97-.43.09-2.52-.72-2.89-1.05-1.92-1.71-.78-5.38,1.6-5.79,2.81-.48,5.11,2.44,3.41,4.87Z"/>
  <path class="st1" d="M40.1,9.07C32.7-3.18,14.53-3.05,7.67,9.64c-2.63,4.87-2.66,9-.44,13.99,3.24,7.27,7.57,14.53,11.13,21.65.37.92,1.73.69,2.09.89.33.19.66,1.59,1.72,1.81,1.28.26,3.06-1.26,3.88-2.17,2.78-3.11,5.8-7.66,8.2-11.17,5.35-7.77,11.57-16.06,5.85-25.56ZM38.52,18.07c-.36,4.63-7.1,13.51-9.98,17.49-2.11,2.93-4.28,5.84-6.61,8.59-.01-.45-.22-.85-.42-1.24-3.42-6.99-7.8-14.13-10.89-21.23-1.13-2.62-1.46-4.31-.73-7.15,1.66-6.46,8.41-11.02,15.02-10.58,7.04.46,14.18,6.68,13.6,14.13Z"/>
  <path class="st0" d="M22.91,9.81c-5.94.75-8.41,9.76-3.4,13.29,3.79,2.68,9.23.86,11.06-3.26,2.31-5.19-2.1-10.74-7.65-10.03ZM26.72,18.66c-.18.25-1.99,1.95-2.13,1.97-.43.09-2.52-.72-2.89-1.05-1.92-1.71-.78-5.38,1.6-5.79,2.81-.48,5.11,2.44,3.41,4.87Z"/>
  <path class="st1" d="M22.91,9.81c-5.94.75-8.41,9.76-3.4,13.29,3.79,2.68,9.23.86,11.06-3.26,2.31-5.19-2.1-10.74-7.65-10.03ZM26.72,18.66c-.18.25-1.99,1.95-2.13,1.97-.43.09-2.52-.72-2.89-1.05-1.92-1.71-.78-5.38,1.6-5.79,2.81-.48,5.11,2.44,3.41,4.87Z"/>
</svg>