<?xml version="1.0" encoding="UTF-8"?>
<svg id="Camada_1" xmlns="http://www.w3.org/2000/svg" version="1.1" viewBox="0 0 48 48">
  <!-- Generator: Adobe Illustrator 29.8.6, SVG Export Plug-In . SVG Version: 2.1.1 Build 1)  -->
  <defs>
    <style>
      .st0 {
        fill: #fff;
      }

      .st1 {
        fill: #d96213;
      }

      .st2 {
        fill: #fad5ce;
      }
    </style>
  </defs>
  <path class="st1" d="M28.77,11.62c-.12-.1-.24-.2-.37-.3-.24-.19-.49-.37-.76-.53h-.01c-.32-.19-.67-.37-1.03-.51-.18-.08-.36-.14-.55-.2-.97-.3-2.03-.41-3.14-.27-.46.06-.9.17-1.31.32-.74.27-1.41.67-2,1.18-.11.09-.22.19-.32.3-3.07,2.98-3.58,8.81.22,11.49.58.41,1.2.72,1.84.92.22.07.43.12.65.17,1.04.24,2.12.22,3.15-.01,2.32-.51,4.41-2.07,5.42-4.34,1.36-3.06.38-6.25-1.79-8.22ZM26.72,18.66s-.15.18-.31.32c-.05.05-.1.1-.16.16-.06.05-.12.11-.18.18-.13.13-.27.26-.41.39-.07.06-.14.12-.21.19-.07.05-.13.1-.19.16-.11.11-.21.2-.31.28h-.01c-.14.14-.24.23-.31.27h-.01s-.02.02-.03.02h-.02c-.17.03-.6-.08-1.09-.24-.29-.1-.6-.22-.88-.34h0c-.1-.05-.2-.09-.29-.13h-.01c-.09-.05-.17-.09-.25-.13h0c-.07-.04-.13-.08-.19-.11h-.01s-.09-.07-.12-.1c-1.18-1.05-1.21-2.85-.5-4.17.1-.19.22-.37.35-.54.07-.09.16-.19.24-.27.07-.08.14-.14.22-.2.15-.12.3-.23.46-.32h.01c.08-.05.17-.09.26-.13.17-.08.35-.13.54-.16.57-.1,1.12-.06,1.62.1.21.06.41.14.61.24t.01,0c.13.07.26.15.38.23.12.09.23.18.34.28.1.1.2.2.3.31.84.98,1.07,2.42.17,3.71Z"/>
  <path class="st1" d="M40.1,9.07C32.7-3.18,14.53-3.05,7.67,9.64c-2.64,4.86-2.67,8.99-.44,13.98,3.23,7.27,7.56,14.53,11.13,21.65.37.93,1.73.7,2.09.89.33.19.66,1.59,1.72,1.81,1.28.26,3.06-1.26,3.88-2.17,2.77-3.11,5.8-7.66,8.2-11.17,5.35-7.77,11.57-16.05,5.85-25.56ZM38.52,18.07c-.36,4.63-7.1,13.51-9.97,17.49-2.12,2.93-4.29,5.84-6.61,8.59v-.03c-.02-.44-.22-.83-.42-1.22-3.42-6.99-7.8-14.12-10.89-21.23-1.14-2.62-1.47-4.3-.73-7.14,1.02-3.97,3.96-7.22,7.6-9.05.85-.42,1.73-.76,2.63-1.02.32-.09.64-.17.97-.24.39-.08.78-.14,1.17-.2.87-.11,1.75-.14,2.62-.08.63.04,1.27.13,1.9.26.19.04.38.08.57.13.38.09.76.2,1.13.33.19.07.38.14.56.2.32.12.64.26.96.4,5,2.28,8.96,7.19,8.51,12.81Z"/>
  <path class="st2" d="M30.01,5.26c-.32-.14-.64-.28-.96-.4-.18-.06-.37-.13-.56-.2-.38-.12-.75-.23-1.13-.33-.19-.05-.38-.09-.57-.13-.63-.13-1.27-.22-1.9-.26-.87-.06-1.75-.03-2.62.08-.39.06-.78.12-1.17.2-.33.07-.65.15-.97.24-.9.26-1.79.6-2.63,1.02-3.66,1.81-6.61,5.08-7.63,9.05-.74,2.84-.41,4.52.73,7.14,3.09,7.11,7.46,14.24,10.89,21.23.2.4.41.8.42,1.25.01,0,.02-.02.03-.03,2.31-2.74,4.47-5.64,6.57-8.56,2.88-3.98,9.62-12.86,9.98-17.49.44-5.61-3.5-10.51-8.48-12.81ZM30.58,19.84c-1,2.28-3.11,3.85-5.44,4.34-1.03.23-2.11.25-3.15.01-.22-.05-.43-.1-.65-.17-.63-.21-1.24-.52-1.81-.92-3.8-2.67-3.3-8.49-.25-11.49.1-.11.21-.21.32-.3.59-.51,1.26-.91,2-1.18.41-.15.85-.26,1.31-.32,1.11-.14,2.17-.03,3.14.27.19.06.37.12.55.2.36.14.71.31,1.03.51h.01c.27.16.52.33.76.53.13.1.25.2.37.3,2.19,1.95,3.18,5.15,1.81,8.22Z"/>
  <path class="st0" d="M28.77,11.62c-.12-.1-.24-.2-.37-.3-.24-.19-.49-.37-.76-.53h-.01c-.32-.19-.67-.37-1.03-.51-.18-.08-.36-.14-.55-.2-.97-.3-2.03-.41-3.14-.27-.46.06-.9.17-1.31.32-.74.27-1.41.67-2,1.18-.11.09-.22.19-.32.3-3.07,2.98-3.58,8.81.22,11.49.58.41,1.2.72,1.84.92.22.07.43.12.65.17,1.04.24,2.12.22,3.15-.01,2.32-.51,4.41-2.07,5.42-4.34,1.36-3.06.38-6.25-1.79-8.22ZM26.72,18.66s-.15.18-.31.32c-.05.05-.1.1-.16.16-.06.05-.12.11-.18.18-.13.13-.27.26-.41.39-.07.06-.14.12-.21.19-.07.05-.13.1-.19.16-.11.11-.21.2-.31.28h-.01c-.14.14-.24.23-.31.27h-.01s-.02.02-.03.02h-.02c-.17.03-.6-.08-1.09-.24-.29-.1-.6-.22-.88-.34h0c-.1-.05-.2-.09-.29-.13h-.01c-.09-.05-.17-.09-.25-.13h0c-.07-.04-.13-.08-.19-.11h-.01s-.09-.07-.12-.1c-1.18-1.05-1.21-2.85-.5-4.17.1-.19.22-.37.35-.54.07-.09.16-.19.24-.27.07-.08.14-.14.22-.2.15-.12.3-.23.46-.32h.01c.08-.05.17-.09.26-.13.17-.08.35-.13.54-.16.57-.1,1.12-.06,1.62.1.21.06.41.14.61.24t.01,0c.13.07.26.15.38.23.12.09.23.18.34.28.1.1.2.2.3.31.84.98,1.07,2.42.17,3.71Z"/>
  <path class="st1" d="M28.77,11.62c-.12-.1-.24-.2-.37-.3-.24-.19-.49-.37-.76-.53h-.01c-.32-.19-.67-.37-1.03-.51-.18-.08-.36-.14-.55-.2-.97-.3-2.03-.41-3.14-.27-.46.06-.9.17-1.31.32-.74.27-1.41.67-2,1.18-.11.09-.22.19-.32.3-3.07,2.98-3.58,8.81.22,11.49.58.41,1.2.72,1.84.92.22.07.43.12.65.17,1.04.24,2.12.22,3.15-.01,2.32-.51,4.41-2.07,5.42-4.34,1.36-3.06.38-6.25-1.79-8.22ZM26.72,18.66s-.15.18-.31.32c-.05.05-.1.1-.16.16-.06.05-.12.11-.18.18-.13.13-.27.26-.41.39-.07.06-.14.12-.21.19-.07.05-.13.1-.19.16-.11.11-.21.2-.31.28h-.01c-.14.14-.24.23-.31.27h-.01s-.02.02-.03.02h-.02c-.17.03-.6-.08-1.09-.24-.29-.1-.6-.22-.88-.34h0c-.1-.05-.2-.09-.29-.13h-.01c-.09-.05-.17-.09-.25-.13h0c-.07-.04-.13-.08-.19-.11h-.01s-.09-.07-.12-.1c-1.18-1.05-1.21-2.85-.5-4.17.1-.19.22-.37.35-.54.07-.09.16-.19.24-.27.07-.08.14-.14.22-.2.15-.12.3-.23.46-.32h.01c.08-.05.17-.09.26-.13.17-.08.35-.13.54-.16.57-.1,1.12-.06,1.62.1.21.06.41.14.61.24t.01,0c.13.07.26.15.38.23.12.09.23.18.34.28.1.1.2.2.3.31.84.98,1.07,2.42.17,3.71Z"/>
  <path class="st0" d="M21.83,19.68c-.06-.04-.11-.07-.14-.1-1.18-1.05-1.2-2.85-.48-4.17-.71,1.32-.68,3.12.5,4.17.03.03.07.06.12.1Z"/>
</svg>