<?xml version="1.0" encoding="UTF-8"?>
<svg id="Camada_1" xmlns="http://www.w3.org/2000/svg" version="1.1" viewBox="0 0 48 48">
  <!-- Generator: Adobe Illustrator 29.8.6, SVG Export Plug-In . SVG Version: 2.1.1 Build 1)  -->
  <defs>
    <style>
      .st0 {
        fill: #f0c4a3;
      }

      .st1 {
        fill: #d96213;
      }

      .st2 {
        fill: #e69559;
      }
    </style>
  </defs>
  <path class="st1" d="M45.58,43.02c-3.89-5.25-8.59-10.16-12.42-15.43-.23-.31-.42-.65-.64-.97,1.64-2.57,2.77-5.4,2.91-8.49.09-.62.09-1.25,0-1.87-.31-7.61-6.97-14.65-14.43-15.79C7.65-1.58-1.96,13.38,2.8,25.27c3.39,8.49,12.85,11.2,21.04,8.02,1.06-.41,1.61-1.22,2.69-1.4,1.06.99,2.06,2.06,3.05,3.12,3.53,3.76,6.93,7.66,10.4,11.47,2.57,2.82,7.23.02,5.6-3.46ZM31.5,17.95c-.2,4-2.78,8.1-6.28,10.02-1.55.85-3.18,1.15-4.77,1.83-2,.87-5.09.69-7.23.05-3.48-1.04-5.18-3.27-6.86-6.26-.48-.86-.87-3.21-.93-4.21.07-.41.07-.83,0-1.25.28-6.61,5.56-13.53,12.5-13.84.32-.08.66-.08.98,0,6.3.27,12.31,5.87,12.59,12.24.09.47.09.95,0,1.42Z"/>
  <path class="st0" d="M-6.67-53.87c-.03-.64-.03-1.38,0-2.02.24.51.24,1.54,0,2.02Z"/>
  <path class="st2" d="M15.11-78.25c-.51-.02-1.07-.02-1.59,0,.37-.25,1.25-.24,1.59,0Z"/>
</svg>