<?xml version="1.0" encoding="UTF-8"?>
<svg id="Camada_1" xmlns="http://www.w3.org/2000/svg" version="1.1" viewBox="0 0 48 48">
  <!-- Generator: Adobe Illustrator 29.8.6, SVG Export Plug-In . SVG Version: 2.1.1 Build 1)  -->
  <defs>
    <style>
      .st0 {
        fill: #d76213;
      }

      .st1 {
        fill: #d76214;
      }
    </style>
  </defs>
  <path class="st0" d="M31.69,8.99c1.19-.17,3.04,2.01,3.87,2.85.25.26.37.59.58.82.68.73,2.97,2.27,2.42,3.46-8.42,8.52-16.14,17.7-24.75,26.04l-.31.18c-1.25-.88-1.67-2.28-2.64-3.39l-4.99-4.22,9.21-9.73c5.28-5.3,10.57-10.58,15.99-15.74.17-.14.4-.26.61-.29Z"/>
  <path class="st0" d="M42.35,12.02l-6.8-7.08c1.61-1.1,3.43-3.28,5.45-3.5,5.71-.64,6.36,6.47,2.61,9.78-.22.19-1.03.94-1.26.81Z"/>
  <path class="st0" d="M12.4,43.25c-.35.36-1.02.55-1.5.73-1.02.4-8.48,2.95-8.86,2.59.62-2.41,1.01-4.92,1.7-7.32.12-.43.78-2.55,1.07-2.65.53-.17.9.69,1.26,1.01,1.18,1.07,2.39,2.16,3.53,3.26.5.48,1.78,1.99,2.23,2.25.2.11.36.14.58.12Z"/>
  <path class="st1" d="M34.24,6.3c1.29-.29,2.97,1.76,3.81,2.66.34.36.55.91.83,1.22.73.82,1.72,1.32,2.28,2.45.82,1.65-.6,2.47-1.96,1.32-1.49-1.26-3.03-3.11-4.48-4.48-.66-.62-1.92-1.03-1.55-2.18.1-.31.74-.92,1.06-.99Z"/>
</svg>