<?xml version="1.0" encoding="UTF-8"?>
<svg id="Camada_1" xmlns="http://www.w3.org/2000/svg" version="1.1" viewBox="0 0 48 48">
  <!-- Generator: Adobe Illustrator 29.8.6, SVG Export Plug-In . SVG Version: 2.1.1 Build 1)  -->
  <defs>
    <style>
      .st0 {
        fill: #d96213;
      }
    </style>
  </defs>
  <path class="st0" d="M23.14,46.91c-.36,0-.75-.04-1.16-.12-.69-.13-1.86-.46-2.27-.64-.21-.36-.42-1.63-.4-3.07.03-1.96.23-3.99.43-5.95.17-1.7.35-3.47.42-5.21.02-.5.01-.99,0-1.49,0-.42-.01-.83,0-1.25l.04-1.28s-1.29.04-1.29.04c-.41,0-.78-.05-1.15-.09-.47-.06-.96-.11-1.45-.11-.32,0-.6.02-.85.08-.07.01-.49.11-.78.49-.17,0-.38,0-.65,0-1.01,0-2.21-.05-2.78-.08-2.33-.12-5.83-1.17-7.5-1.68-2.01-.6-2.98-2.09-2.75-4.19.05-.46.49-2.14.7-2.69.27-.15,1.03-.34,1.74-.39.46-.03.93-.05,1.42-.05,1.81,0,3.81.21,5.74.41,1.36.14,2.65.28,3.89.34,1.77.1,3.14.15,4.42.15h1.42s-.02-1.22-.02-1.22c-.01-.74,0-1.48,0-2.23,0-.78.02-1.55,0-2.33-.02-.83-.05-1.67-.08-2.52-.02-.61-.04-1.22-.06-1.83-.02-.7-.08-1.41-.14-2.11-.26-3.13-.31-5.12,1.94-6.47.62-.37,1.25-.56,1.89-.56,1.03,0,2,.48,2.82,1.37,1.25,1.37,1.36,4.79,1.43,6.83l.02.44c.01.34,0,1.21-.02,2.3-.1,7.56.03,7.67.59,8.15l.35.3h.46c1.08-.04,2.17-.05,3.25-.06,1.32-.01,2.64-.03,3.96-.07.63-.02,1.34-.08,2.1-.15,1.01-.09,2.05-.18,3.05-.18,1.63,0,2.76.26,3.46.79,1.36,1.03,1.96,2.42,1.66,3.83-.34,1.56-1.69,2.78-3.52,3.18-1.28.28-2.75.4-4.79.4-.87,0-1.75-.02-2.62-.04-.87-.02-1.74-.04-2.58-.04-.45,0-.89,0-1.32.02-.37.01-.74.05-1.12.09-.4.04-.81.09-1.21.09-.16,0-.32,0-.48-.03l-1.55-.2.2,1.55c.03.26-.02.66-.08,1.04-.09.58-.18,1.23-.06,1.89.05.25.18.51.39.7,0,.54,0,1.07.02,1.59.02.8.04,1.56,0,2.31-.12,2.11-1.13,5.49-1.56,6.94-.6,2.01-1.76,2.99-3.55,2.99Z"/>
</svg>