<?xml version="1.0" encoding="UTF-8"?>
<svg id="Camada_1" xmlns="http://www.w3.org/2000/svg" version="1.1" viewBox="0 0 48 48">
  <!-- Generator: Adobe Illustrator 29.8.6, SVG Export Plug-In . SVG Version: 2.1.1 Build 1)  -->
  <defs>
    <style>
      .st0 {
        fill: #d96213;
      }
    </style>
  </defs>
  <path class="st0" d="M11.94,29.39c-.72,0-1.37-.03-1.97-.1-1.12-.13-6.02-1.49-7-1.94-1.03-.48-1.79-1.32-2.17-2.46-.53-1.56-.34-3.52.5-5.12.45-.85,1.58-.96,2.58-1.05h.1c.6-.07,1.28-.1,2.02-.1,2.38,0,5.15.3,7.83.59,2.23.24,4.33.47,6.19.53,1.26.04,2.56.06,3.99.06,2.9,0,5.84-.09,8.69-.17,2.42-.07,4.92-.15,7.37-.17.41,0,.78-.07,1.14-.14.36-.07.74-.14,1.16-.14h0c.12,0,.24,0,.37.02,2.19.2,3.99,1.63,4.58,3.65.53,1.82-.09,3.64-1.68,4.88-1.61,1.26-5.3,1.4-7.94,1.4-1.15,0-2.3-.03-3.32-.06-.86-.02-1.68-.05-2.36-.05-.16,0-.32,0-.47,0-1.47.03-3.05.04-4.83.04-1.89,0-3.81-.01-5.66-.03h-1.96c-1.17-.01-2.39.08-3.57.17-1.18.09-2.4.18-3.58.18Z"/>
</svg>