<?xml version="1.0" encoding="UTF-8"?>
<svg id="Camada_1" xmlns="http://www.w3.org/2000/svg" version="1.1" viewBox="0 0 48 48">
  <!-- Generator: Adobe Illustrator 29.8.6, SVG Export Plug-In . SVG Version: 2.1.1 Build 1)  -->
  <defs>
    <style>
      .st0 {
        fill: #dc620b;
      }
    </style>
  </defs>
  <path class="st0" d="M21.07,10.79c-.47-.08-1.44-.12-2-.13-1.15-.03-2.81-.08-3.89-.08-.85,0-1.04-.06-.92.22h-6.03c-.5-.14-1.67-.05-1.6-.09-.68-.14-1.51-.46-2.22-.65-1.07-.28-1.74-.26-2.46-1.26-.92-1.28-.32-2.43.09-3.75.22-.38,1.41-.45,1.85-.45.96.01,1.96.11,2.95.22,4.98.15,10.01.33,14.89.36,4.68.02,9.4-.07,14.12-.17l3.55-.08,1.65-.04.49-.04c.65-.05,1.29-.09,1.94-.11.64-.02,1.2-.05,1.81.2.95.39,1.35,1.05,1.75,1.93v1.07c-.27.91-.99,1.88-1.95,2.16-1.16.33-2.64.37-4.07.4-3.39.02-6.7.04-9.58.15l-3.02.14h-7.34Z"/>
  <path class="st0" d="M21.07,27.1c-.47-.08-1.44-.12-2-.13-1.15-.03-2.81-.08-3.89-.08-.85,0-1.04-.06-.92.22h-6.03c-.5-.14-1.67-.05-1.6-.09-.68-.14-1.51-.46-2.22-.65-1.07-.28-1.74-.26-2.46-1.26-.92-1.28-.32-2.43.09-3.75.22-.38,1.41-.45,1.85-.45.96.01,1.96.11,2.95.22,4.98.15,10.01.33,14.89.36,4.68.02,9.4-.07,14.12-.17l3.55-.08,1.65-.04.49-.04c.65-.05,1.29-.09,1.94-.11.64-.02,1.2-.05,1.81.2.95.39,1.35,1.05,1.75,1.93v1.07c-.27.91-.99,1.88-1.95,2.16-1.16.33-2.64.37-4.07.4-3.39.02-6.7.04-9.58.15l-3.02.14h-7.34Z"/>
  <path class="st0" d="M20.58,43.4c-.47-.08-1.44-.12-2-.13-1.15-.03-2.81-.08-3.89-.08-.85,0-1.04-.06-.92.22h-6.03c-.5-.14-1.67-.05-1.6-.09-.68-.14-1.51-.46-2.22-.65-1.07-.28-1.74-.26-2.46-1.26-.92-1.28-.32-2.43.09-3.75.22-.38,1.41-.45,1.85-.45.96.01,1.96.11,2.95.22,4.98.15,10.01.33,14.89.36,4.68.02,9.4-.07,14.12-.17l3.55-.08,1.65-.04.49-.04c.65-.05,1.29-.09,1.94-.11.64-.02,1.2-.05,1.81.2.95.39,1.35,1.05,1.75,1.93v1.07c-.27.91-.99,1.88-1.95,2.16-1.16.33-2.64.37-4.07.4-3.39.02-6.7.04-9.58.15l-3.02.14h-7.34Z"/>
</svg>