<?xml version="1.0" encoding="UTF-8"?>
<svg id="Camada_1" xmlns="http://www.w3.org/2000/svg" version="1.1" viewBox="0 0 48 48">
  <!-- Generator: Adobe Illustrator 29.8.6, SVG Export Plug-In . SVG Version: 2.1.1 Build 1)  -->
  <defs>
    <style>
      .st0 {
        fill: #dc620b;
      }

      .st1 {
        fill: #fad5ce;
        stroke: #dc620b;
        stroke-miterlimit: 10;
        stroke-width: .2px;
      }
    </style>
  </defs>
  <ellipse class="st1" cx="23.73" cy="24.4" rx="19.98" ry="20.23"/>
  <g>
    <path class="st0" d="M10.21,11.44c-.3.3-.62.72-.98,1.2-.18.24-.37.49-.56.75-.17.27-.35.56-.52.84-.37.56-.69,1.16-.97,1.74-.31.56-.53,1.12-.73,1.59-.8,1.91-1.48,4.39-1.65,6.87-.23,2.46.16,4.97.67,6.83.4,1.46.77,2.3.98,2.75.22.44.28.48.28.25,1.47,3.19,3.99,5.8,7.12,7.34,3.12,1.55,6.77,2.05,10.31,1.58.48-.05,1.04-.14,1.65-.24.6-.16,1.26-.28,1.91-.51.33-.11.66-.22.99-.33.08-.03.17-.05.25-.09l.03-.02h.02s.06-.03.09-.04c.42-.08.97-.07,1.44-.13.68-.13,1.04-.33,1.77.05.94.48.97,1.32,1.12,2.23-.02.29-.76.73-1.05.86-.37.19-.77.31-1.17.44l-.61.19-.15.05-1.68.56c-2.18.66-4.47,1.03-6.77,1.07-4.59.09-9.31-1.29-13.02-4.17-1.85-1.43-3.43-3.2-4.64-5.18-1.21-1.98-2.05-4.15-2.58-6.35-1.07-4.39-.86-9.12.54-13.36.31-1.08.77-2.09,1.19-3.12.51-.99.98-2,1.59-2.93,1.16-1.89,2.54-3.65,4.18-5.16,1.79-1.69,3.84-3.14,6.1-4.2,2.28-1.03,4.74-1.65,7.24-1.83,2.5-.22,5.03.13,7.42.83,2.39.72,4.67,1.79,6.69,3.24,4.02,2.88,7.29,6.89,8.98,11.62.85,2.35,1.34,4.89,1.29,7.43-.04,2.54-.58,5.04-1.45,7.38-1.72,4.65-5.06,8.9-9.49,11.41-1.1.62-2.24,1.18-3.43,1.61-.59.23-1.19.4-1.79.59l-1.15.3-.34.1c-.45.13-.91.24-1.37.32-.46.08-.87.15-1.32.02-.71-.2-1.03-.64-1.31-1.22v-.71c.17-.61.58-1.27,1.14-1.51.56-.24,1.26-.38,1.96-.55l.26-.06.13-.03.26-.06c.47-.12.94-.23,1.39-.39,3.68-1.14,6.91-3.4,9.07-6.42,2.19-2.99,3.53-6.64,3.73-10.11.24-3.49-.79-6.85-2.37-9.71-.9-1.56-2.01-2.99-3.24-4.3-1.29-1.26-2.68-2.42-4.22-3.33-3.71-2.23-8.13-3.3-12.35-2.47-4.2.73-8.08,3.12-10.86,6.51Z"/>
    <path class="st0" d="M19.78,23.26c.04-.38.02-1.16.01-1.61-.03-.93-.07-2.28-.09-3.14-.03-.68,0-.84-.18-.73l-.23-4.86c.07-.4-.03-1.36,0-1.26.07-.46.26-1.02.36-1.5.15-.72.12-1.16.76-1.68.82-.65,1.61-.29,2.5-.06.26.14.35.93.36,1.22.01.38,0,.77,0,1.16l-.03.59v.15s-.01.07-.01.07v.32s.04,1.31.04,1.31c.04,1.75.08,3.5.12,5.22.05,1.64.11,3.26.16,4.85,0,.05,0,.11.01.16l.14.07c1.49.74,2.98,1.47,4.49,2.22,1.58.76,3.16,1.53,4.75,2.3l2.38,1.15.58.28.14.06.28.12c.37.15.73.31,1.09.48.39.18.73.33,1.01.66.45.52.49,1.03.46,1.68l-.32.64c-.43.46-1.16.82-1.81.7-.79-.15-1.68-.57-2.54-.99-2.44-1.22-4.84-2.41-6.94-3.4l-2.21-1.01-3.55-1.8-1-.51-.5-.25c-.12-.02-.08-.14-.09-.23v-.28s-.11-2.09-.11-2.09Z"/>
  </g>
</svg>