<?xml version="1.0" encoding="UTF-8"?>
<svg id="Camada_1" xmlns="http://www.w3.org/2000/svg" version="1.1" viewBox="0 0 48 48">
  <!-- Generator: Adobe Illustrator 29.8.6, SVG Export Plug-In . SVG Version: 2.1.1 Build 1)  -->
  <defs>
    <style>
      .st0 {
        fill: #dc620b;
      }

      .st1 {
        fill: #d96213;
      }

      .st2 {
        fill: #fad5ce;
      }
    </style>
  </defs>
  <g>
    <g>
      <path class="st1" d="M41.34,35.59c-2.47,3.53-5.58,5.58-8.41,6.78-8.81,4.85-18.72,3.78-24.68-2.29-5.35-5.45-5.48-12.84-5.46-14.66C2.93,15.12,10.62,3.81,22.12,2.68c11.67-1.16,21.87,8.69,22.99,19.06.76,7.09-2.92,12.63-3.77,13.85Z"/>
      <path class="st0" d="M5.03,23.22c-.09.39-.12.88-.16,1.43-.05.55-.09,1.16-.06,1.78.03,1.25.2,2.54.39,3.47.37,1.9,1.12,4.16,2.33,6.11,1.2,1.95,2.81,3.57,4.29,4.56,2.34,1.51,3.01,1.61,2.7,1.33,3,1.35,6.44,1.68,9.77,1.24,1.67-.24,3.31-.7,4.89-1.31l1.18-.49,1.14-.57.29-.14.26-.13.22-.1.57-.26c.38-.18.75-.37,1.11-.57.81-.4,1.82-1.05,2.79-1.87.24-.2.48-.42.71-.64l.21-.21s.05-.04.07-.06c.35-.22.85-.44,1.23-.69.57-.38.8-.71,1.62-.69,1.05.02,1.45.75,1.99,1.52.12.28-.38,1.01-.59,1.25-.28.32-.57.63-.9.92-.16.15-.32.29-.49.43l-.13.1-.06.05c-.37.37-.79.74-1.21,1.09-.84.7-1.74,1.34-2.68,1.89-.47.28-.95.54-1.43.78-.24.13-.49.24-.74.35l-.37.16c-.11.05-.32.14-.2.08-3.76,1.99-8.01,3.22-12.35,3.16-4.31-.04-8.69-1.37-12.19-4.01-3.53-2.61-5.97-6.5-7.12-10.57-.59-2.04-.91-4.13-.98-6.23-.04-1.06.06-2.11.13-3.16.16-1.04.27-2.08.55-3.09,1.03-4.5,3.27-8.67,6.4-12.1,1.59-1.69,3.42-3.18,5.45-4.37,2.03-1.19,4.3-1.99,6.62-2.44,4.65-.88,9.61-.08,13.76,2.13,1.06.51,2.03,1.18,3.01,1.83.92.72,1.86,1.43,2.68,2.27,1.67,1.63,3.19,3.46,4.33,5.52,1.16,2.05,2.05,4.26,2.57,6.6.51,2.34.57,4.79.22,7.15-.18,1.18-.43,2.35-.8,3.47-.18.57-.37,1.12-.59,1.67-.11.27-.21.55-.34.82l-.09.19v.02s-.13.33-.13.33c-.17.43-.35.87-.57,1.28-.21.42-.4.78-.77,1.07-.58.45-1.11.44-1.75.32l-.58-.41c-.4-.5-.67-1.23-.53-1.83.15-.6.45-1.25.75-1.91.26-.63.51-1.25.77-1.87,1.25-3.41,1.52-7.07.55-10.43-.86-3.39-2.8-6.42-5.1-8.86-2.38-2.37-5.18-4.18-8.09-5.11-3.18-1-6.62-1.19-9.81-.26-3.92.95-7.35,3.51-9.94,6.69-2.51,3.26-4.28,7.21-4.77,11.3Z"/>
    </g>
    <g>
      <path class="st1" d="M25.29,44.05c.64,0,3.89-.09,7.64-1.68"/>
      <path class="st0" d="M29.38,45.63c-.02-.05-.03-.08-.04-.08-.01-.02-.04-.05-.04-.05,0,0-.02-.03.02.14h-.05c-.03-.08.04-.03-.18-.01-.5.01-1.13-.11-1.65-.17-.78-.09-1.27-.04-1.8-.69-.66-.84-.23-1.61-.04-2.5.12-.25.81-.35,1.08-.38.31-.02.65-.05,1.04-.08.17-.01.35-.02.54-.04h.13s.07-.02.07-.02h0s.02.04.02.04c.05.08.1.17.13.17.05.01.07-.11.1-.21.51-.17,1-.33,1.43-.47.37-.13.68-.24,1.08-.22.63.05,1.02.35,1.49.8l.28.66c.07.62-.15,1.43-.74,1.83-.58.4-1.38.7-2.21.92-.18.05-.36.09-.54.14l-.02.02s-.03.04-.03.09v.1s-.07.01-.07.01Z"/>
    </g>
  </g>
  <path class="st2" d="M38.64,30.62c1.36,1.42.1,4.1-2.1,3.36l-16.33-7.74c-.33-.34-.39-1.01-.44-1.49-.34-3.13-.62-9.94-.36-13.01.14-1.65.47-3.87,2.61-3.67.53.05,1.38.39,1.56.93.64,1.9-.17,8.86.04,11.54.08,1,.3,2,.55,2.97l14.48,7.12Z"/>
</svg>