<?xml version="1.0" encoding="UTF-8"?>
<svg id="Camada_1" xmlns="http://www.w3.org/2000/svg" version="1.1" viewBox="0 0 48 48">
  <!-- Generator: Adobe Illustrator 29.8.6, SVG Export Plug-In . SVG Version: 2.1.1 Build 1)  -->
  <defs>
    <style>
      .st0 {
        fill: #d96213;
      }
    </style>
  </defs>
  <path class="st0" d="M40.22,18.24c2.5-.37,5.13-.21,6.62,2.07,1.18,1.81.98,3.45.15,5.36-1.41,3.22-3.99,5.33-7.57,3.61-4.86-2.33-4.72-10.23.81-11.04Z"/>
  <path class="st0" d="M22.6,18.24c3.03-.44,6.7.29,7.27,3.85.43,2.66-2.07,7.27-4.95,7.71-7.06,1.08-9.79-10.48-2.31-11.56Z"/>
  <path class="st0" d="M4.77,18.24c1.09-.16,3.34-.2,4.32.19,2.31.9,3.33,3.37,2.9,5.71-.25,1.33-1.97,4.3-3.13,5.02-5.13,3.18-11.15-4.39-7.31-9.07.74-.9,2.06-1.68,3.22-1.85Z"/>
</svg>