<?xml version="1.0" encoding="UTF-8"?>
<svg id="Camada_1" xmlns="http://www.w3.org/2000/svg" version="1.1" viewBox="0 0 48 48">
  <!-- Generator: Adobe Illustrator 29.8.6, SVG Export Plug-In . SVG Version: 2.1.1 Build 1)  -->
  <defs>
    <style>
      .st0 {
        fill: #d96213;
        stroke: #d96213;
        stroke-miterlimit: 10;
        stroke-width: .1px;
      }

      .st1 {
        fill: #fad5ce;
      }
    </style>
  </defs>
  <path class="st1" d="M10.56,1.54c.08-.06.15-.12.21-.21-.07.08-.13.16-.21.21Z"/>
  <path class="st1" d="M10.52,1.57s.03-.02.04-.03c-.02.01-.03.03-.04.04-.16.1-.31.19-.46.27.15-.09.3-.18.46-.28Z"/>
  <path class="st1" d="M14.3,17.44c-.2-.32-.34-.6-.39-.83-.17-.73-.16-1.19-.02-1.46-.13.27-.14.72.03,1.46.05.23.19.51.38.83Z"/>
  <path class="st1" d="M21.2,14.48c-.1.26-.24.5-.42.7.17-.21.31-.44.42-.7Z"/>
  <path class="st1" d="M27.21,45.54c-.55-.31-1.12-.66-1.69-1.04.57.37,1.14.72,1.69,1.04Z"/>
  <path class="st1" d="M33.12,29.6c-.18.39-.32.83-.45,1.26.12-.43.26-.87.45-1.26Z"/>
  <path class="st0" d="M6.39,25.2c-1.69-2.36-3.11-4.68-3.94-7.01.82,2.33,2.24,4.65,3.93,7.01.28.4.6.83.95,1.29-.34-.46-.65-.89-.94-1.29ZM8.44,27.92c.39.5.82,1.02,1.26,1.55-.44-.53-.86-1.05-1.26-1.55ZM39.35,28.71c.69.38,1.36.83,1.97,1.31-.62-.49-1.29-.94-1.97-1.31Z"/>
  <path class="st0" d="M44.01,43.42c-.24.25-.49.48-.76.71-3.06,2.59-7.9,3.92-12.13,3-1.2-.26-2.52-.82-3.91-1.59-.55-.32-1.12-.67-1.69-1.04-1.14-.75-2.32-1.63-3.51-2.6-.59-.48-1.19-.99-1.78-1.5-.59-.52-1.18-1.06-1.77-1.61-1.76-1.64-3.48-3.39-5.08-5.12-.4-.44-.8-.88-1.19-1.31-.88-.99-1.72-1.96-2.49-2.89-.44-.53-.86-1.05-1.26-1.55-.39-.5-.76-.98-1.11-1.43-.34-.46-.65-.89-.94-1.29-1.69-2.36-3.11-4.68-3.94-7.01-.83-2.33-1.06-4.68-.38-7.12.09-.32.2-.65.32-.98.06-.16.13-.33.2-.49.21-.49.46-.99.75-1.49.1-.17.2-.34.31-.51.21-.34.45-.67.7-1.02.12-.17.25-.34.39-.51.2-.24.39-.47.56-.68.19-.2.36-.39.52-.56.22-.23.43-.43.64-.63.86-.76,1.68-1.24,2.75-1.86.27-.14.54-.3.84-.48t.01-.01c.15-.08.3-.17.46-.27.1-.06.18-.15.25-.25h0c.08-.11.15-.23.24-.34.03-.02.05-.05.08-.08.22-.23.55-.4,1.22-.3.4.05.97.39,1.61.89.18.14.36.3.55.47.39.34.8.72,1.21,1.13.41.42.83.86,1.23,1.3.1.12.2.23.3.34.4.45.78.9,1.14,1.33.35.44.68.85.96,1.23.14.19.27.37.39.54.06.09.11.17.17.24.1.16.19.3.27.43.04.06.07.12.1.18.91,1.71,1.6,4.18.96,5.79-.11.26-.25.49-.42.7-.06.07-.13.13-.2.2-.13.12-.29.23-.46.33-.53.28-1.25.42-2.19.35-.23-.01-.52-.11-.84-.24-.12-.05-.25-.11-.39-.16t-.01-.01c-.31-.14-.64-.3-.95-.43-.83-.36-1.58-.58-1.85-.07-.14.27-.15.73.02,1.46.05.23.19.51.39.83.11.18.25.38.4.59.09.11.17.23.27.34.17.23.36.45.55.68h.01c.19.24.39.47.59.69.3.33.59.65.86.93.26.29.49.53.67.73.51.56,1.09,1.19,1.71,1.87.41.45.84.93,1.29,1.41,2.43,2.65,5.23,5.6,7.27,7.24,1.03.83,2.48,1.97,3.83,1.16.15-.09.27-.26.38-.48.14-.29.25-.67.36-1.09.07-.21.12-.43.18-.65.13-.43.27-.87.45-1.26.14-.29.31-.55.51-.76,1.6-1.59,3.74-1.2,5.72-.13.69.38,1.36.83,1.97,1.31h.01c.31.24.61.5.88.74.28.25.54.5.78.73.24.24.46.47.66.69,3.86,4.29,3.14,8.38.36,11.24Z"/>
</svg>