<?xml version="1.0" encoding="UTF-8"?>
<svg id="Camada_1" xmlns="http://www.w3.org/2000/svg" version="1.1" viewBox="0 0 48 48">
  <!-- Generator: Adobe Illustrator 29.8.6, SVG Export Plug-In . SVG Version: 2.1.1 Build 1)  -->
  <defs>
    <style>
      .st0 {
        fill: #d96213;
        stroke: #d96213;
        stroke-miterlimit: 10;
        stroke-width: .1px;
      }
    </style>
  </defs>
  <path class="st0" d="M43.65,32.18c-2.11-2.34-7.03-6.32-10.02-3.34-1.09,1.1-1.09,3.76-1.89,4.24-1.35.81-2.79-.33-3.83-1.16-2.97-2.38-7.53-7.54-10.27-10.52-.95-1.05-3.48-3.62-3.74-4.79-.83-3.55,2.62-.65,4.02-.55,4.72.34,3.81-4.56,2.31-7.38-.95-1.78-6.1-7.83-7.93-8.08-1.36-.19-1.35.72-1.79.98-2.59,1.56-3.73,1.9-5.78,4.49-5.45,6.88-2.85,12.83,1.64,19.13,4.57,6.44,17.05,20.27,24.73,21.93,8.92,1.93,20.52-6.07,12.54-14.95ZM41.11,41.65c-10.12,8.74-23.91-7.91-29.7-15.33-4.34-5.56-9.29-11.53-3.88-18.25.58-.7,3.77-3.83,4.5-3.7,1.29.22,6.61,6.58,6.3,8.49-2.51-1.67-5.15-2.38-7.05.55-1.54,2.35-.39,5.09,1.18,7.05,2.35,2.92,5.84,6.36,8.52,9.07,1.64,1.67,5.05,5.53,6.94,6.4,2.31,1.06,5.42.95,6.9-1.38,1.42-2.27.06-5.12,4.02-2.34,3.36,2.38,6.21,6.03,2.27,9.44Z"/>
</svg>