<?xml version="1.0" encoding="UTF-8"?>
<svg id="Camada_1" xmlns="http://www.w3.org/2000/svg" version="1.1" viewBox="0 0 48 48">
  <!-- Generator: Adobe Illustrator 29.8.6, SVG Export Plug-In . SVG Version: 2.1.1 Build 1)  -->
  <defs>
    <style>
      .st0 {
        fill: #dc620b;
      }
    </style>
  </defs>
  <path class="st0" d="M18.45,24.87c-.41.11-1.06.26-1.68.53-.32.13-.64.25-.94.37-.29.15-.56.29-.79.41-1.9.94-4.46,2.8-5.83,4.26-.56.55-.87.92-1.02,1.12-.16.2-.17.24-.06.18-2.39,2.84-3.83,6.38-4.24,10.08-.08.5-.16,1.17-.17,1.88,0,.23-.02.47-.03.71v.05c-.04.22-.14.49-.2.72-.08.35-.07.56-.4.82-.42.33-.8.15-1.25.04-.13-.07-.16-.48-.17-.63,0-.2,0-.4.02-.6l.02-.3v-.08s.01-.04.01-.04l.03-.81c.02-.54.04-1.08.12-1.63.06-.54.11-1.08.23-1.62.72-4.31,2.89-8.4,6.02-11.41,1.55-1.52,3.29-2.8,5.13-3.88,1.88-1.08,3.91-1.87,6.01-2.3,4.68-.94,9.56-.13,13.84,1.95,4.18,2.14,7.95,5.35,10.32,9.54,1.19,2.08,2.02,4.36,2.47,6.7.1.59.21,1.17.29,1.76l.15,1.45.03.17.06.67c.01.22.03.41-.05.62-.12.33-.33.47-.63.6h-.36c-.31-.09-.64-.32-.74-.63-.1-.31-.14-.68-.16-1.06-.04-.37-.07-.74-.11-1.1-.21-2-.67-3.95-1.38-5.75-1.4-3.63-3.87-6.57-6.58-8.65-1.48-1.13-3.14-2.14-4.78-2.91-4.11-1.84-8.88-2.44-13.19-1.22Z"/>
  <path class="st0" d="M17.47,5.42c-.52.47-1.39,1.66-1.74,2.44-.39.77-.74,1.78-.85,2.8-.13,1.01-.03,2.06.17,2.83.33,1.2.5,1.43.5,1.25.58,1.32,1.62,2.38,2.92,3,1.3.63,2.82.82,4.3.63.41-.02.94-.13,1.49-.28.14-.03.28-.09.42-.14l.13-.05s.03,0,.05-.01c.21-.02.48-.03.71-.06.35-.04.52-.16.88.04.47.24.49.66.56,1.12-.01.15-.39.37-.53.43-.19.08-.39.15-.59.22-.1.03-.2.07-.31.09l-.08.02h-.04c-.22.08-.45.18-.69.23-.94.27-1.91.42-2.9.43-1.96.03-3.99-.52-5.61-1.75-1.63-1.22-2.69-3.11-3.06-5.02-.4-1.91-.2-3.94.51-5.72.7-1.79,1.83-3.38,3.27-4.6,1.58-1.37,3.64-2.3,5.84-2.33,2.2-.05,4.28.89,5.92,2.12.84.62,1.57,1.31,2.3,2,.73.7,1.46,1.53,1.97,2.52,1.07,1.99,1.01,4.46.12,6.44-.44,1.01-1.01,1.89-1.73,2.71-.72.81-1.59,1.5-2.54,2.01-.48.25-.96.49-1.47.66-.25.1-.51.17-.76.25l-.49.13-.17.05c-.23.06-.45.13-.68.17-.23.05-.43.08-.66.02-.36-.09-.52-.31-.66-.6v-.36c.06-.31.27-.64.55-.76.28-.13.63-.2.98-.29l.13-.03.76-.22c1.55-.49,2.93-1.38,3.88-2.59,1-1.22,1.63-2.68,1.68-4.08.07-1.42-.43-2.71-1.3-3.74-.47-.57-1.05-1.1-1.67-1.66-.6-.54-1.2-1.03-1.84-1.45-1.53-1.05-3.3-1.63-5.03-1.37-1.73.23-3.39,1.17-4.64,2.51Z"/>
  <path class="st0" d="M20.3,46.45c-.53-.04-1.62-.08-2.25-.1-1.3-.04-3.18-.1-4.39-.14-.95-.02-1.17-.05-1.04.05-2.26-.06-4.55-.1-6.85-.3-.31-.05-.73-.09-1.17-.15-.63-.07-.41-.04-.5-.06-.22-.08-.49-.22-.72-.32-.35-.14-.57-.18-.76-.55-.23-.47.04-.81.24-1.23.09-.11.47-.07.61-.05.18.03.37.07.55.11l.28.07.07.02h.04s.44.06.44.06c.59.07,1.18.13,1.78.18,2.38.2,4.82.24,7.25.33,2.44.07,4.84.14,7.22.21,5.26.11,10.57.22,15.92.33l4,.07,1.82.03h.16s.65-.03.65-.03c.21,0,.4,0,.6.08.31.14.44.36.57.66v.36c-.1.3-.36.62-.68.7-.32.08-.71.1-1.11.1-3.86-.08-7.72-.15-11.06-.22l-3.4-.04-8.27-.2Z"/>
</svg>