<?xml version="1.0" encoding="UTF-8"?>
<svg id="Camada_1" xmlns="http://www.w3.org/2000/svg" version="1.1" viewBox="0 0 48 48">
  <!-- Generator: Adobe Illustrator 29.8.6, SVG Export Plug-In . SVG Version: 2.1.1 Build 1)  -->
  <defs>
    <style>
      .st0 {
        fill: #d96213;
      }
    </style>
  </defs>
  <path class="st0" d="M46.86,43.96c-.26,1.98-1.44,1.3-2.51,1.89-.39.22-.44.76-.82,1-1.83,1.13-18.7.12-22.1.03-6.18-.17-10.51.19-16.65-1.02-1.14-.22-3.37-.01-3.6-1.21-.43-2.19.93-7.48,1.81-9.62,2.84-6.84,10.19-12.47,17.56-13.4C3.18,16.41,16.52-7.27,30.06,3.31c6.48,5.07,6.05,12.09-.75,16.52l-4.26,1.8c6.74-.49,15.29,5.74,18.61,11.31,1.57,2.62,3.6,8.01,3.2,11.02Z"/>
</svg>