<?xml version="1.0" encoding="UTF-8"?>
<svg id="Camada_1" xmlns="http://www.w3.org/2000/svg" version="1.1" viewBox="0 0 48 48">
  <!-- Generator: Adobe Illustrator 29.8.6, SVG Export Plug-In . SVG Version: 2.1.1 Build 1)  -->
  <defs>
    <style>
      .st0 {
        fill: #dc620b;
      }

      .st1 {
        fill: #fad5ce;
      }
    </style>
  </defs>
  <g>
    <path class="st1" d="M2.88,46.04c-.55-9.49,3.74-16.06,10.93-20.3,9.04-5.33,18.09-.7,19.09-.17,7.59,4.06,12.41,10.64,12.43,20.47"/>
    <path class="st0" d="M18.49,24.87c-.41.11-1.05.26-1.67.53-.32.12-.64.25-.93.37-.29.15-.56.29-.78.41-1.89.93-4.43,2.78-5.79,4.23-.55.55-.86.91-1.02,1.12-.16.2-.17.24-.06.18-2.37,2.81-3.8,6.33-4.21,10-.08.5-.16,1.16-.17,1.87,0,.25-.02.51-.03.75-.04.22-.14.49-.2.72-.08.35-.07.56-.4.82-.42.33-.8.15-1.25.04-.13-.07-.16-.48-.17-.63,0-.2,0-.4.02-.6l.02-.3v-.08s.01-.04.01-.04l.03-.8c.02-.54.05-1.08.12-1.61.06-.54.11-1.08.23-1.61.72-4.28,2.88-8.34,5.98-11.33,1.54-1.51,3.27-2.78,5.09-3.85,1.86-1.07,3.88-1.86,5.97-2.28,4.65-.93,9.49-.13,13.75,1.93,4.15,2.13,7.89,5.31,10.25,9.47,1.18,2.06,2.01,4.33,2.46,6.65.1.58.21,1.16.29,1.75l.15,1.44.03.17c.03.22.04.44.06.67.01.22.03.41-.05.62-.12.33-.33.47-.63.6h-.36c-.31-.09-.64-.32-.74-.63-.1-.31-.14-.68-.16-1.06l-.11-1.1c-.21-1.98-.66-3.92-1.37-5.71-1.39-3.6-3.84-6.52-6.53-8.58-1.46-1.12-3.12-2.12-4.75-2.89-4.08-1.83-8.81-2.42-13.09-1.21Z"/>
  </g>
  <g>
    <path class="st1" d="M26.74,18.15c-3.65,2.02-7.82,1.72-10.38-.58-2.5-2.25-2.44-5.52-2.43-6.11.08-4.64,4.04-9.24,8.61-9.49,3.51-.19,6.14,2.27,7.32,3.36,1.11,1.03,2.54,2.38,2.91,4.58.49,2.92-1.25,5.21-1.68,5.77-2.49,3.28-6.5,3.5-7.14,3.53"/>
    <path class="st0" d="M17.53,5.55c-.52.47-1.38,1.65-1.72,2.41-.38.76-.73,1.76-.85,2.78-.13,1-.03,2.04.16,2.81.32,1.19.5,1.42.49,1.24.58,1.31,1.6,2.36,2.89,2.98,1.28.63,2.8.81,4.26.63.4-.02.93-.13,1.48-.28.14-.03.27-.09.41-.14l.13-.05s.03,0,.05-.01c.21-.02.48-.03.71-.06.35-.04.52-.16.88.04.47.24.49.66.56,1.12-.01.15-.39.37-.53.43-.19.08-.39.15-.59.22-.1.04-.2.06-.31.09l-.08.02h-.04c-.22.08-.45.17-.69.23-.93.27-1.9.42-2.88.43-1.95.02-3.97-.52-5.57-1.75-1.62-1.21-2.67-3.09-3.03-4.99-.39-1.89-.2-3.92.51-5.68.69-1.77,1.82-3.35,3.25-4.57,1.57-1.36,3.62-2.28,5.8-2.32,2.19-.05,4.25.88,5.88,2.1.84.62,1.56,1.3,2.28,1.98.73.7,1.45,1.52,1.96,2.5,1.06,1.97,1.01,4.43.13,6.4-.43,1-1,1.88-1.72,2.69-.72.81-1.58,1.49-2.52,2-.47.25-.95.48-1.46.66-.25.1-.5.17-.75.25l-.49.13-.17.05c-.23.06-.45.13-.68.17-.23.05-.43.08-.66.02-.36-.09-.52-.31-.66-.6v-.36c.06-.31.27-.64.55-.76.28-.13.63-.2.98-.29l.13-.03.76-.21c1.54-.48,2.91-1.37,3.84-2.57.99-1.21,1.61-2.65,1.66-4.05.07-1.41-.43-2.69-1.29-3.71-.46-.57-1.04-1.09-1.65-1.65-.59-.54-1.19-1.02-1.82-1.44-1.52-1.04-3.27-1.61-4.99-1.36-1.72.23-3.36,1.16-4.6,2.49Z"/>
  </g>
  <path class="st0" d="M20.33,46.3c-.52-.04-1.61-.08-2.24-.1-1.29-.04-3.15-.1-4.36-.13-.95-.02-1.16-.05-1.03.05-2.24-.06-4.51-.1-6.8-.3-.31-.05-.72-.09-1.16-.14-.63-.07-.4-.04-.5-.06-.22-.08-.49-.22-.72-.32-.35-.14-.57-.18-.76-.55-.23-.47.04-.81.24-1.23.09-.11.47-.07.61-.05.18.03.37.07.55.11l.28.07.07.02h.04s.43.06.43.06c.58.07,1.17.13,1.76.18,2.36.2,4.78.24,7.19.33,2.42.07,4.81.14,7.16.21,5.22.11,10.49.22,15.8.33l3.97.07,1.81.03h.16s.65-.03.65-.03c.21,0,.4,0,.6.08.31.14.44.36.57.66v.36c-.1.3-.36.62-.68.7-.32.08-.71.1-1.11.1-3.83-.07-7.66-.15-10.98-.21l-3.38-.04-8.21-.2Z"/>
</svg>