<?xml version="1.0" encoding="UTF-8"?>
<svg id="Camada_1" xmlns="http://www.w3.org/2000/svg" version="1.1" viewBox="0 0 48 48">
  <!-- Generator: Adobe Illustrator 29.8.6, SVG Export Plug-In . SVG Version: 2.1.1 Build 1)  -->
  <defs>
    <style>
      .st0 {
        fill: #dc620b;
      }
    </style>
  </defs>
  <path class="st0" d="M17.16,13.22c.11-.78.28-2.04.38-2.79.01-.08.05-.11.05-.19-.05-.01-.11,0-.17.02-.22.07-.39.13-.53.18-.18.06-.32.11-.41.15-.18.08-.19.12-.08.18-2.69.98-5.28,2.21-7.73,3.68-.36.16-.8.42-1.26.72-.16.1-.32.21-.47.31-.03.02-.06.04-.09.05-.41.16-.97.28-1.42.45-.67.25-1,.52-1.79.27-1-.31-1.16-1.15-1.47-2.02-.03-.3.6-.83.85-1,.53-.37,1.11-.71,1.71-1.01l.06-.03.38-.24.87-.54c.59-.35,1.17-.69,1.77-1.01,1.2-.65,2.42-1.25,3.67-1.8,1.24-.55,2.51-1.05,3.79-1.49l.96-.32c.58-.19,1.15-.36,1.72-.53.57-.16,1.13-.32,1.69-.46l1.03.41c.15.11.4.25.48.35.08.12.19.17.25.33.17.26.25.68.18,1.21-.06.53-.17,1.07-.24,1.6l-.19,1.4c-.14,1.13-.26,2.26-.33,3.39-.13,2.02-.16,4.05-.08,6.09l.08,1.53.1,1.34c.04.48.09.96.14,1.45l.17,1.47.02.18c0,.05-.05.05-.07.08l-.17.12c-.12.08-.23.16-.3.22l-.25.19-.5.24c-.32.04-.62-.05-.93-.07l-1.08-.13c-.09-.01-.18-.01-.27-.04l-.35-.19-.69-.39-2.31-1.28-3.24-1.77-6.49-3.51-.81-.43-.37-.19-.05-.02-.2-.09-.4-.17-.8-.34c-.21-.1-.44-.23-.71-.46-.26-.24-.64-.66-.77-1.36-.12-.71.12-1.3.33-1.6.22-.33.42-.48.6-.6.57-.33.89-.28,1.2-.22.3.08.55.24.8.45l.31.64c.05.31.05.66.02.98-.01.15-.03.29-.04.43,0,.06,0,.11,0,.15,0,.02.03.04.01.04-.11-.11-.19-.21-.31-.3-.38-.38-.76-.4-.65-.39.13-.02.5-.37.8-1.01l.06-.12h0s0,0,.03,0l.17.07.32.13c.19.09.38.18.56.26l.27.14.81.42c1.41.77,2.81,1.53,4.19,2.28,1.37.75,2.7,1.49,4,2.2.65.35,1.29.7,1.91,1.05.3.17.61.33.91.49l.17.08c.15.07.12.03.13.02,0-.02-.02-.07-.04-.08l-.04-.76c-.05-.94-.08-1.88-.08-2.82-.01-1.88.05-3.76.21-5.64Z"/>
  <path class="st0" d="M42.35,24.38c-.2-.72-.98-2.01-1.52-2.64-.14-.16-.28-.33-.44-.51-.17-.15-.34-.31-.52-.48-.35-.33-.68-.52-1.11-.73-.84-.4-1.96-.62-2.86-.76-1.43-.2-1.78-.25-1.59-.05-1.74-.18-3.59-.31-5.37-.44-1.78-.11-3.56-.18-5.35-.18-.48-.05-1.13-.05-1.81-.04-.23,0-.47.01-.7.02-.03,0-.07,0-.1,0-.44-.08-.99-.28-1.46-.38-.71-.15-1.14-.12-1.66-.76-.66-.82-.32-1.6-.09-2.5.14-.26.94-.36,1.24-.37.39-.01.79,0,1.19.02l.6.04h.15s.08.02.08.02h.75c1-.01,2,0,3,.03,2,.05,4.02.18,5.99.36,1.96.18,3.93.33,5.99.67,1.03.18,2.1.41,3.2.86.55.22,1.09.52,1.61.87.54.36.9.76,1.34,1.14,1.61,1.61,2.66,3.56,3.38,5.56.79,2.22,1.11,4.59.92,6.99-.17,2.37-.99,4.87-2.73,6.87-.88.99-2.04,1.77-3.21,2.25-1.18.5-2.33.76-3.45.97-1.12.21-2.21.35-3.29.49-1.06.13-2.15.27-3.27.36-2.22.19-4.45.24-6.68.13-.56-.02-1.11-.06-1.67-.1l-1.38-.13h-.34c-.45-.04-.9-.07-1.34-.12-.44-.05-.83-.1-1.21-.33-.6-.36-.79-.85-.94-1.48l.14-.7c.29-.56.88-1.11,1.52-1.19.64-.08,1.39,0,2.14.06.43.04.86.08,1.29.13,1.87.18,3.74.24,5.57.19,1.85-.05,3.57-.21,5.37-.44,1.77-.22,3.47-.44,4.87-.83,1.56-.44,2.65-1.08,3.41-2.19,1.02-1.28,1.47-3.16,1.53-5.04,0-1.9-.35-3.87-1.15-5.61Z"/>
</svg>