<?xml version="1.0" encoding="UTF-8"?>
<svg id="Camada_1" xmlns="http://www.w3.org/2000/svg" version="1.1" viewBox="0 0 48 48">
  <!-- Generator: Adobe Illustrator 29.8.6, SVG Export Plug-In . SVG Version: 2.1.1 Build 1)  -->
  <defs>
    <style>
      .st0 {
        fill: #d96213;
      }
    </style>
  </defs>
  <path class="st0" d="M42.49.57c.51-.06.83-.01,1.32.14,1.54.5,1.87,1.26,1.78,2.82-.17,3.09-1.07,6.71-1.39,9.91-.9,8.95-.88,18.11-.14,27.08.07.9.75,5.36.49,5.79-.11.19-1.85,1.09-2.11,1.12-.46.04-1.79-.21-2.25-.39-12.83-7.3-25.87-14.27-38.79-21.38-1.48-1.32-1.36-3.5.07-4.82,2.44-2.25,6.47-4.72,9.37-6.55,8.16-5.13,17.32-9.41,26.55-12.26,1.34-.41,3.83-1.33,5.1-1.46Z"/>
</svg>