<?xml version="1.0" encoding="UTF-8"?>
<svg id="Camada_1" xmlns="http://www.w3.org/2000/svg" version="1.1" viewBox="0 0 48 48">
  <!-- Generator: Adobe Illustrator 29.8.6, SVG Export Plug-In . SVG Version: 2.1.1 Build 1)  -->
  <defs>
    <style>
      .st0 {
        fill: #d96213;
      }
    </style>
  </defs>
  <path class="st0" d="M45.59,3.54c.09-1.56-.24-2.32-1.78-2.82-.49-.16-.81-.2-1.32-.15-1.27.14-3.76,1.05-5.1,1.47-9.23,2.85-18.39,7.13-26.55,12.26-2.9,1.83-6.93,4.29-9.37,6.55-1.42,1.32-1.55,3.5-.07,4.82,12.93,7.11,25.96,14.08,38.79,21.38.45.19,1.79.44,2.25.4.25-.03,1.99-.94,2.1-1.12.27-.44-.41-4.9-.48-5.8-.74-8.97-.76-18.12.14-27.08.32-3.2,1.22-6.83,1.39-9.91ZM39.73,16.53c-.23,2.83-.17,5.68-.43,8.5.01,5.72.24,11.43.71,17.11-11.46-6.17-22.7-12.74-34.26-18.72-.17-.06-.39-.91-.36-.96.1-.14,2.22-.76,2.61-.95,1.03-.53,2.45-1.77,3.54-2.46,6.66-4.22,13.72-8.01,20.96-11.01,2.79-1.16,5.79-1.86,8.62-2.89-.38,3.79-1.08,7.57-1.39,11.38Z"/>
</svg>