<?xml version="1.0" encoding="UTF-8"?>
<svg id="Camada_1" xmlns="http://www.w3.org/2000/svg" version="1.1" viewBox="0 0 48 48">
  <!-- Generator: Adobe Illustrator 29.8.6, SVG Export Plug-In . SVG Version: 2.1.1 Build 1)  -->
  <defs>
    <style>
      .st0 {
        fill: #dc620b;
      }

      .st1 {
        fill: #d96213;
      }

      .st2 {
        fill: #fad5ce;
        stroke: #fad5ce;
        stroke-miterlimit: 10;
        stroke-width: .1px;
      }
    </style>
  </defs>
  <g>
    <path class="st1" d="M10.67,40.56c-1.55-1.14-8.67-6.63-9.42-15.53C.35,14.32,9.03,2.72,21.98,1.49c13.04-1.24,23.23,9.7,24.64,19.73.56,4-.02,9.63-3.33,14.6-.94,1.4-3.15,4.64-7.26,6.64-7.67,3.72-16.99.73-18.86,0-.28-.11-.55-.23-.98-.28-2.23-.26-3.67,1.89-7.59,4.05-.51.28-1.68.93-2.1.55-.38-.34.08-1.37.56-2.65.47-1.24,1.07-2.99,1.61-5.21"/>
    <path class="st0" d="M31.87,4.06c-.88-.41-2.3-.91-3.81-1.22-.76-.14-1.52-.32-2.26-.34-.73-.04-1.42-.15-2-.09-2.39-.03-5.34.5-8.02,1.61-2.7,1.08-5.08,2.76-6.72,4.33-.68.57-1.11,1.15-1.51,1.55-.4.4-.64.75-.81.98-.35.47-.38.54-.19.37-2.56,3.31-4.1,7.41-4.3,11.55-.18,4.15,1.22,8.26,3.73,11.62.64.94,1.62,2.11,2.78,3.22.29.28.59.56.9.82l.27.24s.03.02.04.03c.14.17.27.43.41.62.22.29.39.41.38.82-.01.52-.39.72-.77.98-.14.06-.48-.18-.6-.27-.16-.12-.3-.26-.45-.4l-.22-.22-.05-.05-.03-.03c-.44-.38-.9-.81-1.34-1.22-1.74-1.71-3.27-3.64-4.46-5.79-1.21-2.14-2.03-4.52-2.37-6.97-.32-2.45-.2-4.96.36-7.35.58-2.39,1.55-4.67,2.82-6.75.62-1.06,1.37-2.01,2.12-2.98.82-.9,1.63-1.81,2.57-2.59C11.97,3.29,16.62,1.26,21.42.71c2.4-.22,4.85-.23,7.2.35,2.34.54,4.62,1.38,6.67,2.61,4.55,2.7,8.23,6.78,10.44,11.61,1.09,2.41,1.79,5.05,1.9,7.73.12,2.67-.24,5.35-1.05,7.89-.8,2.54-2.12,4.95-3.75,7.03-1.64,2.12-3.73,3.94-6.15,5.16-2.42,1.25-5.11,1.83-7.77,2.02-2.67.16-5.33-.09-7.92-.64-1.3-.28-2.57-.61-3.84-1.07-.34-.12-.64-.25-.82-.29-.21-.05-.45-.07-.67-.05-.45.03-.92.22-1.42.52-.99.6-2.03,1.44-3.13,2.17-.55.37-1.11.73-1.69,1.06-.29.17-.57.33-.89.49-.49.25-1.11.49-1.62.5-.49.01-.98-.18-1.25-.62-.25-.4-.27-.91-.13-1.49.07-.27.18-.62.26-.83l.17-.47.34-.89c.22-.59.42-1.19.61-1.79l.34-1.13.03-.16.14-.62c.05-.2.09-.38.22-.55.2-.27.45-.34.77-.4l.35.09c.27.16.53.48.54.81,0,.34-.07.73-.17,1.12l-.04.15-.02.07-.08.28c-.17.57-.35,1.15-.55,1.71-.19.57-.4,1.13-.61,1.68l-.3.78s-.02.05-.02.08c-.03.07.05.09.1.06l.04-.02.2-.1.73-.41c.97-.56,1.89-1.19,2.82-1.86.94-.65,1.84-1.43,3.2-1.9.69-.22,1.46-.26,2.19-.09.39.1.67.24.9.31.24.09.51.18.76.26,1.03.33,2.1.6,3.16.82,2.12.44,4.26.64,6.34.59,4.17-.08,8.1-1.39,10.95-3.9,1.58-1.34,2.88-3,3.98-4.8,1.09-1.78,1.86-3.74,2.35-5.77.58-2.47.73-5.06.38-7.56-.37-2.49-1.28-4.92-2.53-7.14-2.52-4.45-6.5-8.09-11.18-10.08Z"/>
  </g>
  <path class="st2" d="M35.86,27.02c-1.29-1.43-4.3-3.86-6.13-2.05-.66.67-.66,2.3-1.15,2.59-.82.5-1.71-.2-2.34-.71-1.82-1.46-4.6-4.61-6.28-6.43-.58-.64-2.13-2.21-2.29-2.93-.51-2.17,1.6-.4,2.46-.34,2.89.21,2.33-2.79,1.41-4.51-.58-1.09-3.73-4.79-4.85-4.94-.83-.12-.82.44-1.09.6-1.58.95-2.28,1.16-3.54,2.74-3.33,4.21-1.74,7.84,1,11.7,2.79,3.94,10.43,12.4,15.13,13.41,5.45,1.18,12.55-3.71,7.67-9.14ZM34.3,32.81c-6.19,5.34-14.62-4.84-18.16-9.38-2.65-3.4-5.68-7.05-2.37-11.16.35-.43,2.31-2.34,2.75-2.26.79.13,4.04,4.02,3.86,5.19-1.53-1.02-3.15-1.46-4.31.34-.94,1.44-.24,3.11.72,4.31,1.44,1.78,3.57,3.89,5.21,5.55,1,1.02,3.09,3.38,4.24,3.91,1.41.65,3.32.58,4.22-.84.87-1.39.03-3.13,2.46-1.43,2.05,1.46,3.8,3.69,1.39,5.77Z"/>
</svg>