<?xml version="1.0" encoding="UTF-8"?>
<svg id="Camada_3" xmlns="http://www.w3.org/2000/svg" version="1.1" xmlns:xlink="http://www.w3.org/1999/xlink" viewBox="0 0 1000 2800">
  <!-- Generator: Adobe Illustrator 29.8.6, SVG Export Plug-In . SVG Version: 2.1.1 Build 1)  -->
  <defs>
    <style>
      .st0 {
        stroke: #1c3e71;
        stroke-width: 90px;
      }

      .st0, .st1, .st2 {
        fill: none;
      }

      .st0, .st2 {
        stroke-miterlimit: 10;
      }

      .st2 {
        stroke: #7b6e27;
        stroke-width: 15px;
      }

      .st3 {
        clip-path: url(#clippath);
      }
    </style>
    <clipPath id="clippath">
      <rect class="st1" y="-61.1" width="1260.51" height="2861.1"/>
    </clipPath>
  </defs>
  <g class="st3">
    <path class="st0" d="M-138.41,164.41C50.99,368.38,231.59,465.43,357.56,516.21c303.24,122.24,588.85,96.91,657.46,271.06,20.68,52.5,12.46,99.84,5.77,138.41-47.37,272.82-385.46,282.56-519.04,530.58-142.9,265.3,124.54,475.85,11.53,767.03-54.05,139.26-202.99,317.25-651.69,432.54"/>
    <path class="st2" d="M-109.58-61.1C-23.29,23.56,117.24,160.14,294.12,325.89c427.86,400.93,523.42,461.8,519.04,576.72-10.3,270.63-553.74,287.64-611.32,628.62-37.59,222.59,175.42,325.29,167.25,720.89-1.73,83.58-5.27,200.33-63.44,328.73-128.37,283.38-417.62,391.35-507.51,421"/>
  </g>
</svg>