<?xml version="1.0" encoding="UTF-8"?>
<svg id="Camada_2" xmlns="http://www.w3.org/2000/svg" version="1.1" xmlns:xlink="http://www.w3.org/1999/xlink" viewBox="0 0 1000 1000">
  <!-- Generator: Adobe Illustrator 29.8.6, SVG Export Plug-In . SVG Version: 2.1.1 Build 1)  -->
  <defs>
    <style>
      .st0, .st1, .st2 {
        fill: none;
      }

      .st1 {
        stroke: #7b6e27;
        stroke-width: 15px;
      }

      .st1, .st2 {
        stroke-miterlimit: 10;
      }

      .st2 {
        stroke: #1b3e70;
        stroke-width: 90px;
      }

      .st3 {
        clip-path: url(#clippath);
      }
    </style>
    <clipPath id="clippath">
      <rect class="st0" x="-14.17" y="-14.17" width="980.02" height="1353.81"/>
    </clipPath>
  </defs>
  <g class="st3">
    <path class="st2" d="M-60.53,213.68C212.19,78.07,343.39,63.15,405.62,66.04c5.52.26,11.02.67,11.02.67,50.77,3.55,222.95,22.36,263.05,136.36,17.28,49.13,13.46,124-31.4,171.29-108.64,114.52-348.89-47.69-456.77,65.66-43.21,45.41-50.07,119.15-59.95,225.53-9.33,100.39,8.35,138.67-17.13,196.98-31.64,72.41-101.97,111.98-157.01,134.18"/>
    <path class="st1" d="M-45.44,557.07C-5.76,481.52,146.09,211.65,388.49,183.09c38.62-4.55,138.03-16.26,185.56,42.82,45.39,56.42,24.2,153.42-14.27,214.11-65.44,103.22-158.41,65.97-227.6,150.82-92.24,113.12,16.88,248.15-46.46,422.99-27.32,75.4-91.61,171.75-256.63,256.45"/>
  </g>
</svg>