<?xml version="1.0" encoding="UTF-8"?>
<svg id="Camada_1" xmlns="http://www.w3.org/2000/svg" version="1.1" xmlns:xlink="http://www.w3.org/1999/xlink" viewBox="0 0 700 1167.82">
  <!-- Generator: Adobe Illustrator 30.4.0, SVG Export Plug-In . SVG Version: 2.1.4 Build 226)  -->
  <defs>
    <style>
      .st0, .st1, .st2 {
        fill: none;
      }

      .st1 {
        stroke: #da6116;
        stroke-width: 15px;
      }

      .st1, .st2 {
        stroke-miterlimit: 10;
      }

      .st2 {
        stroke: #552677;
        stroke-width: 90px;
      }

      .st3 {
        clip-path: url(#clippath);
      }
    </style>
    <clipPath id="clippath">
      <polygon class="st0" points="-.7 -15.94 700.7 -13.22 700.7 1172.82 -.7 1165.26 -.7 -15.94"/>
    </clipPath>
  </defs>
  <g class="st3">
    <g>
      <path class="st2" d="M-43.57,194.75C208.61,69.36,329.93,55.56,387.47,58.23c5.1.24,10.19.62,10.19.62,46.95,3.28,206.16,20.68,243.24,126.09,15.98,45.43,12.45,114.66-29.04,158.39-100.46,105.89-322.61-44.1-422.37,60.71-39.96,41.99-46.3,110.18-55.43,208.54-8.63,92.83,7.72,128.23-15.84,182.14-29.26,66.96-94.29,103.55-145.18,124.07"/>
      <path class="st1" d="M-29.61,512.28C7.08,442.42,147.49,192.88,371.63,166.47c35.71-4.21,127.63-15.04,171.58,39.6,41.97,52.17,22.38,141.87-13.2,197.98-60.51,95.45-146.48,61-210.46,139.46-88.78,108.88,23.72,244.95-42.96,391.13-28.83,63.2-98.5,144.48-289.32,196.42"/>
    </g>
  </g>
</svg>