<?xml version="1.0" encoding="UTF-8"?>
<svg id="Camada_3" xmlns="http://www.w3.org/2000/svg" version="1.1" xmlns:xlink="http://www.w3.org/1999/xlink" viewBox="0 0 1000 2800">
  <!-- Generator: Adobe Illustrator 29.8.6, SVG Export Plug-In . SVG Version: 2.1.1 Build 1)  -->
  <defs>
    <style>
      .st0, .st1, .st2 {
        fill: none;
      }

      .st1 {
        stroke: #7b6e27;
        stroke-width: 15px;
      }

      .st1, .st2 {
        stroke-miterlimit: 10;
      }

      .st2 {
        stroke: #1b3e70;
        stroke-width: 90px;
      }

      .st3 {
        clip-path: url(#clippath);
      }
    </style>
    <clipPath id="clippath">
      <rect class="st0" x="-35.51" y="-14.17" width="1049.68" height="2847.68"/>
    </clipPath>
  </defs>
  <g class="st3">
    <path class="st1" d="M1147.26-277.91c-56.24,309.84-179.04,484.95-287.07,589.13-126.29,121.79-245.03,158.81-349.48,332.84-40.71,67.82-117.9,196.44-109.01,356.14,15.17,272.47,263.58,324.04,318.7,652.37,10.53,62.74,28.19,167.89-9.99,289.57-89.3,284.66-383.34,338.53-392.75,572.48-1.01,25.06-.99,107.83,53.25,173.08,112.3,135.09,364.09,72.27,419.38,56.58,151.52-42.99,249.71-138.34,299.56-196.38"/>
    <path class="st2" d="M232.49-112.51c52.38,147.81,104.68,365.79,62.41,614.09-53.25,312.79-200.87,346.4-187.22,554.18,24.96,379.83,531.18,466.93,517.86,806.31-9.18,233.8-259.18,380.3-178.07,566.01,3.52,8.07,33.45,74.05,103.18,109.84,127.45,65.4,323.85-2.96,485.95-179.73"/>
  </g>
</svg>