<?xml version="1.0" encoding="UTF-8"?>
<svg id="Camada_1" xmlns="http://www.w3.org/2000/svg" version="1.1" viewBox="0 0 1500 480">
  <!-- Generator: Adobe Illustrator 29.8.6, SVG Export Plug-In . SVG Version: 2.1.1 Build 1)  -->
  <defs>
    <style>
      .st0 {
        fill: #f2f2f2;
      }

      .st1 {
        fill: #db6112;
      }
    </style>
  </defs>
  <g>
    <path class="st1" d="M1418.94,77.55c20.65-19.9,48.11-68.42,15.93-62.56-13.5,3.51-66.77,27.45-66.77,41.88,0,27.32,32.57,39.02,50.84,20.68Z"/>
    <path class="st1" d="M1446.46,202.86c-1.19-7.07,0-14.14-1.19-21.22-.4-3.35-.8-6.7-1.2-10.05-.79-6.7.4-13.77-.79-20.84-1.2-8.93,1.19-18.24-4.38-28.29-4.77-10.42-17.5-17.12-29.42-16.75-11.93.74-23.47,8.19-27.44,19.36-3.58,9.68-2.78,19.73-2.78,29.78,0,4.09.79,7.82.79,11.54.4,5.96-.4,11.54.4,17.12.4,6.33,1.2,12.66,1.99,18.61l1.99,32.39,5.96,41.69c8.75,30.9,55.67,29.78,61.64-3.72,1.59-7.44-1.59-14.52-1.59-21.96l-3.98-47.65Z"/>
    <path class="st1" d="M1156.94,89.4c17.91,1.68,35.3,16.26,39.52,35.32,3.16,10.65.53,22.98-4.75,32.51-6.85,10.09-16.86,17.94-28.45,20.74-8.43,1.68-17.39,2.8-24.77,8.41-7.37,5.61-14.22,11.77-18.96,19.62-11.06,19.62-16.86,43.72-12.12,66.15,1.06,3.92,2.11,8.41,5.27,11.21,4.21,4.49,10.54,5.61,15.8,6.17,11.59,1.68,97.77-12.7,108.84-9.33,11.59,2.8,21.6,11.77,26.87,22.98,4.22,8.41,4.22,17.94,3.16,26.91-2.63,13.45-12.11,25.22-23.71,31.39-12.11,6.17-100.93,17.18-113.58,17.74-8.43,0-17.39-1.12-25.82-2.24-19.49-3.36-46.89-16.82-59.01-34.19-7.37-9.53-14.22-20.18-18.44-32.51-2.1-6.16-3.69-12.89-5.27-19.62-1.58-8.41-1.06-16.82-2.11-24.67-1.05-8.41.53-17.38,1.05-25.78,0-9.53,2.64-19.06,4.22-28.59,2.63-11.77,6.32-22.98,10.54-34.19,4.21-9.53,8.43-19.06,14.22-26.91,4.21-5.61,7.37-11.21,12.12-15.7,5.27-6.16,10.54-12.33,16.86-17.38,7.37-6.73,16.33-11.21,24.76-15.7,10.54-5.61,21.07-10.09,32.67-11.77,6.85-1.12,13.7-.56,21.07-.56Z"/>
    <path class="st1" d="M1006.82,256.19c-1.59-10.34-2.78-20.68-5.17-30.62-3.18-21.08-6.36-41.76-8.35-62.83-.4-4.77,1.19-9.54.8-14.32-1.19-10.34-5.97-21.08-15.11-26.64-5.57-4.37-12.73-4.37-18.69-8.35-10.34-6.36-22.67-9.94-34.6-8.35-5.97.8-12.33.4-18.29,1.99-8.75,1.99-17.1,6.36-24.66,10.74-11.93,6.76-21.87,16.7-31.02,27.44-3.58,3.58-5.57,8.75-8.75,13.12-6.36,8.35-9.94,18.29-13.12,28.24-2.39,9.54-2.78,19.49-2.78,29.03,0,5.57,0,11.14,1.19,16.3,1.19,6.76,4.37,13.12,7.95,19.09,7.56,12.33,19.49,21.87,33.4,26.25,4.77,1.59,9.54,2.39,14.71,3.18,6.36.4,12.33-.8,18.69-2.39,14.71-3.58,28.63-10.74,39.77-21.08,2.39,9.15,3.58,19.09,8.35,27.44,5.17,9.94,16.3,15.91,27.44,15.51,14.32,0,27.04-11.53,28.63-25.45.8-6.36.4-12.33-.4-18.29ZM931.8,191.67c-1.19,6.1-5.13,11.22-9.19,15.82-3.76,4.77-8.75,6.63-13.79,8.44-5.66,1.41-11.84,1.68-17.23.04-.04,0-.04.04-.09.04v-.09c-3.89-1.15-7.38-3.31-9.94-6.76-2.12-5.17.09-11.67,3.36-16.26,4.29-5.79,8.75-11.97,14.71-15.55,7.29-6.05,16.53-9.72,25.67-9.37.13-.22.44-.18.75-.09h.04c.13.09.26.18.35.22,2.08,2.92,3.31,6.72,4.91,9.81,1.9,4.15,1.72,9.01.44,13.74Z"/>
    <path class="st1" d="M1374.25,254.75c-1.59-10.34-2.78-20.68-5.17-30.62-3.18-21.08-6.36-41.76-8.35-62.83-.4-4.77,1.19-9.54.8-14.32-1.19-10.34-5.97-21.08-15.11-26.64-5.57-4.37-12.73-4.37-18.69-8.35-10.34-6.36-22.67-9.94-34.6-8.35-5.97.8-12.33.4-18.29,1.99-8.75,1.99-17.1,6.36-24.66,10.74-11.93,6.76-21.87,16.7-31.02,27.44-3.58,3.58-5.57,8.75-8.75,13.12-6.36,8.35-9.94,18.29-13.12,28.24-2.39,9.54-2.78,19.49-2.78,29.03,0,5.57,0,11.14,1.19,16.3,1.19,6.76,4.37,13.12,7.95,19.09,7.56,12.33,19.49,21.87,33.4,26.25,4.77,1.59,9.54,2.39,14.71,3.18,6.36.4,12.33-.8,18.69-2.39,14.71-3.58,28.63-10.74,39.77-21.08,2.39,9.15,3.58,19.09,8.35,27.44,5.17,9.94,16.3,15.91,27.44,15.51,14.32,0,27.04-11.53,28.63-25.45.8-6.36.4-12.33-.4-18.29ZM1299.22,190.24c-1.19,6.1-5.13,11.22-9.19,15.82-3.76,4.77-8.75,6.63-13.79,8.44-5.66,1.41-11.84,1.68-17.23.04-.04,0-.04.04-.09.04v-.09c-3.89-1.15-7.38-3.31-9.94-6.76-2.12-5.17.09-11.67,3.36-16.26,4.29-5.79,8.75-11.97,14.71-15.55,7.29-6.05,16.53-9.72,25.67-9.37.13-.22.44-.18.75-.09h.04c.13.09.26.18.35.22,2.08,2.92,3.31,6.72,4.91,9.81,1.9,4.15,1.72,9.01.44,13.74Z"/>
    <path class="st1" d="M1137.19,463.76c26.44-10.29,66.63-41.48,61.19-57.89-1.93-5.82-9.16-7.76-13.32-8.93-15.41-4.33-26.37,5.01-45.5,11.25-31.26,10.19-46.58-.23-50.62,7.91-5.7,11.51,19.08,59.01,48.25,47.66Z"/>
  </g>
  <g>
    <path class="st0" d="M387.24,143.76c13.57,1.27,26.74,12.32,29.94,26.76,2.4,8.07.4,17.41-3.6,24.63-5.19,7.65-12.77,13.59-21.55,15.71-6.39,1.27-13.17,2.12-18.76,6.37-5.59,4.25-10.78,8.92-14.37,14.86-8.38,14.86-12.77,33.13-9.18,50.12.8,2.97,1.6,6.37,3.99,8.49,3.19,3.4,7.98,4.25,11.97,4.67,8.78,1.27,74.08-9.62,82.46-7.07,8.78,2.12,16.37,8.92,20.36,17.41,3.2,6.37,3.2,13.59,2.4,20.39-1.99,10.19-9.18,19.11-17.96,23.78-9.18,4.67-76.47,13.02-86.05,13.44-6.39,0-13.17-.85-19.56-1.7-14.77-2.55-35.53-12.74-44.71-25.91-5.59-7.22-10.78-15.29-13.97-24.63-1.59-4.67-2.79-9.77-3.99-14.86-1.2-6.37-.8-12.74-1.6-18.69-.8-6.37.4-13.16.8-19.54,0-7.22,2-14.44,3.2-21.66,1.99-8.92,4.79-17.41,7.98-25.91,3.19-7.22,6.38-14.44,10.78-20.39,3.19-4.25,5.59-8.49,9.18-11.89,3.99-4.67,7.98-9.34,12.77-13.16,5.59-5.1,12.37-8.5,18.76-11.89,7.98-4.25,15.97-7.65,24.75-8.92,5.19-.85,10.38-.42,15.97-.42Z"/>
    <path class="st0" d="M79.94,89.46c6.61.35,13.23,2.78,18.1,6.96,5.57,4.88,8.36,42.32,9.4,49.28.35,4.88,0,9.4.7,13.93,1.04,9.05,2.09,17.76,2.78,26.81.35,6.61,1.05,13.23,2.09,19.84.7,5.22.35,10.44,1.05,15.67,1.39,6.61,1.04,13.23,2.44,19.84.7,4.87.35,10.1,1.04,14.97.7,8.7,1.74,17.41,2.44,26.11.7,4.88,0,9.75.7,14.27.7,4.53.7,9.05.35,13.58,11.84-.7,22.98-4.18,34.81-3.83,9.4.35,72.37-.7,81.42,1.74,6.61,1.39,12.18,5.92,16.36,11.49,2.78,3.13,3.83,7.31,4.87,11.14.7,2.78.7,5.57.35,8.35-1.39,7.66-5.57,15.32-12.53,19.5-4.53,3.13-10.1,5.22-15.67,5.22h-70.63c-3.48,0-6.61.7-10.09,1.04-4.18,0-8.36-.35-12.53,0-8.01,1.39-16.01,3.48-24.37,4.53-10.09,1.04-20.19,2.78-30.29,4.18-7.66,1.39-15.32,2.09-22.63.7-7.66-1.39-4.92-5.57-8.75-12.53-4.53-7.66-5.22-17.76-1.05-25.76,2.44-5.22,6.61-9.75,11.84-12.53,3.83-2.09-1.69-2.78,2.49-4.53.35-3.83,0-7.66-.35-11.14-.7-4.87-.35-9.75-1.04-14.27-.7-5.22,0-10.79-.7-16.36-.7-5.22-.35-10.45-1.04-15.67-1.05-8.36-1.05-16.71-2.09-25.07-.7-5.92-.7-12.19-1.74-18.45-1.04-5.92-.35-12.19-1.04-18.1-1.39-8.35-1.39-16.71-2.44-25.07-.7-5.22-.35-10.79-1.05-16.36-.7-7.31-1.04-45.1,1.74-52.06,1.74-4.87,5.22-9.05,9.4-11.84,4.18-3.83,10.1-4.87,15.67-5.57Z"/>
    <path class="st0" d="M235.9,158.26c2.41,1.2,5.42,2.11,8.13,2.71,6.03,1.81,11.45,5.12,16.27,9.34,2.41,2.11,5.12,3.92,7.53,6.33,4.82,5.42,8.74,12.05,11.15,18.98,1.5,4.52,3.31,9.34,3.61,14.46.3,4.82,1.21,9.64.6,14.46-.6,6.33-1.21,12.95-3.62,18.68-1.51,3.62-3.01,6.93-4.52,10.24-1.51,4.22-4.52,7.83-6.63,11.75-3.01,5.12-7.83,9.04-12.35,12.65-2.41,1.81-4.52,3.92-7.23,5.72-6.03,4.22-12.66,7.23-19.28,9.64-7.53,2.41-15.07,3.31-22.9,3.01-7.23.3-14.76-.9-21.69-3.92-4.82-2.41-9.64-4.82-14.16-7.53-5.42-3.31-9.34-8.43-12.66-13.56-6.03-8.74-8.43-18.98-9.64-29.22-.3-6.93-.6-13.86.9-20.79.91-5.12,2.41-10.24,4.52-15.06,2.11-4.52,3.62-9.34,6.33-13.56,3.32-6.03,8.43-10.85,12.66-16.27,3.92-4.52,8.74-8.14,13.56-11.45,3.62-2.71,7.83-5.42,12.35-6.63,5.72-1.81,11.45-3.92,17.78-4.22,6.63,0,13.26,1.51,19.28,4.22ZM202.75,218.52c-3.01,4.52-3.92,10.24-4.82,15.67-.6,4.22.3,9.34,3.92,12.05,7.83,3.32,16.57,0,22.9-5.12,3.01-3.01,6.03-6.03,6.93-10.55,1.21-4.52,2.11-9.34.6-13.86-.9-3.62-2.71-6.93-5.72-9.04-2.41-1.51-4.82-3.62-7.53-4.82-.3,0-.91,0-.91.3-6.93,3.01-12.35,8.74-15.37,15.37Z"/>
    <path class="st0" d="M592.32,114.7c4.57,3.5,7.81,8.94,8.96,14.58.34,3.6.66,6.9.4,10.55-.23,3.96.47,8.13.84,12.03.66,6.9,1.29,13.5,1.94,20.39.37,3.9,1.64,7.71,2.01,11.61.46,4.8-.58,9.74.47,14.48.91,3.24,1.53,6.51,1.57,10.14-.44,4.88.34,9.95.8,14.75.4,4.2,1.67,8.01,2.07,12.21.5,8.43,1.63,17.1,2.43,25.49.34,3.6-.21,7.28.13,10.88.49,5.1.97,10.2,1.46,15.3.31,3.3,0,6.36.32,9.65.15,4.83,1.24,9.87.8,14.76.27,6.03.22,11.78.16,17.54.1,4.23.8,8.4.57,12.35-.57,6.71-3.6,13.05-8.98,16.9-2.8,2.39-6.23,4.53-9.8,5.17-11.85,2.64-23.67-3.8-27.75-14.91-1.66-4.68-2.12-9.48-1.95-14.04.36-5.78-.76-11.13-.67-16.58-.6-6.3-.9-12.63-1.17-18.65-.07-3.93-.14-7.86-.51-11.75-1.42-11.67-2.23-23.39-3.65-35.06-.4-4.2.07-8.79-.36-13.28-1.03-10.8-2.06-21.6-3.12-32.69-.43-4.5-.59-9.33-1.64-14.07-.86-2.64-1.12-5.34-.77-8.1.08-5.46-.73-10.83-1.24-16.23-.66-6.9-1.61-13.77-1.35-20.45-.6-6.3-.3-12.68.93-18.85,1.04-4.94,3.61-9.73,7.52-13.13,3.34-3.04,7.73-4.67,11.87-5.67,6.27-.9,12.77.6,17.69,4.67Z"/>
    <path class="st0" d="M660.33,132.1c-13.86,14.16-38.57,5.12-38.57-15.97,0-11.15,6.93-19.58,17.17-22.3,24.41-4.52,37.06,22.9,21.39,38.26Z"/>
    <path class="st0" d="M667.86,165.06c4.22,7.31,2.41,14.08,3.32,20.58.9,5.15,0,10.29.6,15.16.3,2.44.6,4.88.91,7.31.9,5.15,0,10.29.9,15.43l3.01,34.66c0,5.42,2.41,10.56,1.2,15.98-4.52,24.37-40.07,25.18-46.7,2.71l-4.52-30.33-1.51-23.56c-.6-4.33-1.21-8.94-1.51-13.54-.6-4.06,0-8.12-.3-12.46,0-2.71-.6-5.42-.6-8.4,0-7.31-.6-14.62,2.11-21.66,3.01-8.12,11.75-13.54,20.79-14.08,9.04-.27,18.68,4.6,22.29,12.19Z"/>
    <path class="st0" d="M728.77,140.29c5.94-.63,11.57,1.88,17.52,2.19,8.13.31,16.58,1.25,24.71,3.44,5.63,1.25,11.26,3.13,15.64,6.88,7.19,5.32,13.45,13.45,14.7,22.52.94,9.7.31,19.7-3.44,28.77-3.13,7.82-6.57,15.32-10.63,22.83-2.19,4.38-74.78,87.95-76.34,92.64,6.25.31,12.51,1.25,18.76,1.88,5.01.94,207.26,2.19,211.33,5.63,4.07,3.44,8.13,7.51,9.38,13.14,3.13,8.76-21.2,18.45-27.45,25.02-5.63,4.69-188.88,7.51-196.07,7.19-5.63-.31-11.26-.31-16.89-.31-3.75,0-7.82-.94-11.89-.62-2.5.31-4.69.31-7.19.31-6.57-.94-13.14,0-19.7-.94-10.01-.94-20.33-6.25-25.33-15.64-4.38-7.82-5.63-17.83-1.56-26.27,1.88-5,21.22-24.97,24.35-29.35,2.19-3.75,58.57-70.8,60.76-74.56,2.82-5.32,6.88-10.01,10.01-15.33,3.13-5.63,6.57-11.26,9.07-17.51-6.25-1.25-12.83-.94-19.39-1.56-7.19-.62-37.82-4.07-42.51-9.69-3.75-4.07-5.63-9.7-6.25-15.01,0-6.88,2.82-13.76,7.82-18.77,4.69-4.07,34.38-6.25,40.64-6.88Z"/>
    <path class="st0" d="M551.9,266.01c-1.21-7.83-2.11-15.67-3.92-23.2-2.41-15.97-4.82-31.64-6.33-47.61-.3-3.62.9-7.23.6-10.85-.9-7.83-4.52-15.97-11.45-20.19-4.22-3.31-9.64-3.31-14.16-6.33-7.83-4.82-17.17-7.53-26.21-6.33-4.52.6-9.34.3-13.86,1.51-6.63,1.51-12.96,4.82-18.68,8.14-9.04,5.12-16.57,12.65-23.5,20.79-2.71,2.71-4.22,6.63-6.63,9.94-4.82,6.33-7.53,13.86-9.94,21.39-1.81,7.23-2.11,14.76-2.11,22,0,4.22,0,8.44.9,12.35.9,5.12,3.31,9.94,6.03,14.46,5.72,9.34,14.76,16.57,25.31,19.89,3.62,1.21,7.23,1.81,11.15,2.41,4.82.3,9.34-.6,14.16-1.81,11.15-2.71,21.69-8.14,30.13-15.97,1.81,6.93,2.71,14.46,6.33,20.79,3.92,7.53,12.35,12.05,20.79,11.75,10.85,0,20.49-8.74,21.69-19.28.6-4.82.3-9.34-.3-13.86ZM495.05,217.13c-.9,4.62-3.88,8.5-6.96,11.99-2.85,3.62-6.63,5.02-10.45,6.39-4.29,1.07-8.97,1.27-13.06.03-.03,0-.03.03-.07.03v-.07c-2.95-.87-5.59-2.51-7.53-5.12-1.61-3.92.07-8.84,2.54-12.32,3.25-4.39,6.63-9.07,11.15-11.78,5.52-4.59,12.52-7.37,19.45-7.1.1-.17.34-.13.57-.07h.03c.1.07.2.13.27.17,1.57,2.21,2.51,5.09,3.72,7.43,1.44,3.15,1.31,6.83.33,10.41Z"/>
  </g>
</svg>