<?xml version="1.0" encoding="UTF-8"?>
<svg id="Camada_1" xmlns="http://www.w3.org/2000/svg" version="1.1" viewBox="0 0 566.93 283.46">
  <!-- Generator: Adobe Illustrator 29.8.6, SVG Export Plug-In . SVG Version: 2.1.1 Build 1)  -->
  <defs>
    <style>
      .st0 {
        fill: #f2f2f2;
      }

      .st1 {
        fill: #87751a;
      }
    </style>
  </defs>
  <g>
    <path class="st1" d="M548.71,77.54c8.16-7.86,19.01-27.04,6.3-24.72-5.34,1.39-26.39,10.85-26.39,16.55,0,10.79,12.87,15.42,20.09,8.17Z"/>
    <path class="st1" d="M559.58,127.06c-.47-2.8,0-5.59-.47-8.38-.16-1.32-.32-2.65-.47-3.97-.31-2.65.16-5.44-.31-8.24-.47-3.53.47-7.21-1.73-11.18-1.89-4.12-6.91-6.77-11.63-6.62-4.71.29-9.27,3.24-10.84,7.65-1.42,3.82-1.1,7.8-1.1,11.77,0,1.62.31,3.09.31,4.56.16,2.35-.16,4.56.16,6.77.16,2.5.47,5,.79,7.36l.79,12.8,2.36,16.48c3.46,12.21,22,11.77,24.36-1.47.63-2.94-.63-5.74-.63-8.68l-1.57-18.83Z"/>
    <path class="st1" d="M445.17,82.22c7.08.66,13.95,6.42,15.62,13.96,1.25,4.21.21,9.08-1.88,12.85-2.71,3.99-6.66,7.09-11.24,8.2-3.33.66-6.87,1.11-9.79,3.32-2.91,2.22-5.62,4.65-7.49,7.75-4.37,7.75-6.66,17.28-4.79,26.14.42,1.55.83,3.32,2.08,4.43,1.67,1.77,4.16,2.22,6.24,2.44,4.58.66,38.64-5.02,43.01-3.69,4.58,1.11,8.54,4.65,10.62,9.08,1.67,3.32,1.67,7.09,1.25,10.63-1.04,5.32-4.79,9.97-9.37,12.4-4.79,2.44-39.88,6.79-44.88,7.01-3.33,0-6.87-.44-10.2-.89-7.7-1.33-18.53-6.65-23.32-13.51-2.91-3.77-5.62-7.97-7.29-12.85-.83-2.44-1.46-5.09-2.08-7.75-.63-3.32-.42-6.65-.83-9.75-.42-3.32.21-6.87.42-10.19,0-3.77,1.04-7.53,1.67-11.3,1.04-4.65,2.5-9.08,4.16-13.51,1.67-3.77,3.33-7.53,5.62-10.63,1.67-2.22,2.91-4.43,4.79-6.2,2.08-2.44,4.16-4.87,6.66-6.87,2.91-2.66,6.45-4.43,9.78-6.2,4.16-2.22,8.33-3.99,12.91-4.65,2.71-.44,5.41-.22,8.33-.22Z"/>
    <path class="st1" d="M385.85,148.13c-.63-4.09-1.1-8.17-2.04-12.1-1.26-8.33-2.51-16.5-3.3-24.83-.16-1.89.47-3.77.31-5.66-.47-4.09-2.36-8.33-5.97-10.53-2.2-1.73-5.03-1.73-7.39-3.3-4.09-2.51-8.96-3.93-13.67-3.3-2.36.31-4.87.16-7.23.79-3.46.79-6.76,2.51-9.74,4.24-4.71,2.67-8.64,6.6-12.26,10.84-1.41,1.41-2.2,3.46-3.46,5.19-2.51,3.3-3.93,7.23-5.19,11.16-.94,3.77-1.1,7.7-1.1,11.47,0,2.2,0,4.4.47,6.44.47,2.67,1.73,5.19,3.14,7.54,2.99,4.87,7.7,8.64,13.2,10.37,1.89.63,3.77.94,5.81,1.26,2.51.16,4.87-.31,7.39-.94,5.81-1.41,11.32-4.24,15.72-8.33.94,3.61,1.41,7.54,3.3,10.84,2.04,3.93,6.44,6.29,10.84,6.13,5.66,0,10.69-4.56,11.31-10.06.31-2.51.16-4.87-.16-7.23ZM356.2,122.64c-.47,2.41-2.03,4.44-3.63,6.25-1.48,1.89-3.46,2.62-5.45,3.34-2.24.56-4.68.66-6.81.02-.02,0-.02.02-.03.02v-.03c-1.54-.45-2.92-1.31-3.93-2.67-.84-2.04.03-4.61,1.33-6.43,1.69-2.29,3.46-4.73,5.81-6.15,2.88-2.39,6.53-3.84,10.14-3.7.05-.09.17-.07.3-.03h.02c.05.03.1.07.14.09.82,1.15,1.31,2.65,1.94,3.88.75,1.64.68,3.56.17,5.43Z"/>
    <path class="st1" d="M531.05,147.56c-.63-4.09-1.1-8.17-2.04-12.1-1.26-8.33-2.51-16.5-3.3-24.83-.16-1.89.47-3.77.31-5.66-.47-4.09-2.36-8.33-5.97-10.53-2.2-1.73-5.03-1.73-7.39-3.3-4.09-2.51-8.96-3.93-13.67-3.3-2.36.31-4.87.16-7.23.79-3.46.79-6.76,2.51-9.74,4.24-4.71,2.67-8.64,6.6-12.26,10.84-1.41,1.41-2.2,3.46-3.46,5.19-2.51,3.3-3.93,7.23-5.19,11.16-.94,3.77-1.1,7.7-1.1,11.47,0,2.2,0,4.4.47,6.44.47,2.67,1.73,5.19,3.14,7.54,2.99,4.87,7.7,8.64,13.2,10.37,1.89.63,3.77.94,5.81,1.26,2.51.16,4.87-.31,7.39-.94,5.81-1.41,11.32-4.24,15.72-8.33.94,3.61,1.41,7.54,3.3,10.84,2.04,3.93,6.44,6.29,10.84,6.13,5.66,0,10.69-4.56,11.31-10.06.31-2.51.16-4.87-.16-7.23ZM501.4,122.07c-.47,2.41-2.03,4.44-3.63,6.25-1.48,1.89-3.46,2.62-5.45,3.34-2.24.56-4.68.66-6.81.02-.02,0-.02.02-.03.02v-.03c-1.54-.45-2.92-1.31-3.93-2.67-.84-2.04.03-4.61,1.33-6.43,1.69-2.29,3.46-4.73,5.81-6.15,2.88-2.39,6.53-3.84,10.14-3.7.05-.09.17-.07.3-.03h.02c.05.03.1.07.14.09.82,1.15,1.31,2.65,1.94,3.88.75,1.64.68,3.56.17,5.43Z"/>
    <path class="st1" d="M437.37,230.16c10.45-4.07,26.33-16.39,24.18-22.88-.76-2.3-3.62-3.07-5.26-3.53-6.09-1.71-10.42,1.98-17.98,4.45-12.35,4.03-18.41-.09-20,3.13-2.25,4.55,7.54,23.32,19.07,18.83Z"/>
  </g>
  <g>
    <path class="st0" d="M141,103.7c5.36.5,10.57,4.87,11.83,10.57.95,3.19.16,6.88-1.42,9.73-2.05,3.02-5.05,5.37-8.52,6.21-2.52.5-5.21.84-7.42,2.52-2.21,1.68-4.26,3.52-5.68,5.87-3.31,5.87-5.05,13.09-3.63,19.8.32,1.17.63,2.52,1.58,3.36,1.26,1.34,3.15,1.68,4.73,1.85,3.47.5,29.27-3.8,32.59-2.79,3.47.84,6.47,3.52,8.04,6.88,1.26,2.52,1.26,5.37.95,8.06-.79,4.03-3.63,7.55-7.1,9.4-3.63,1.85-30.22,5.14-34.01,5.31-2.52,0-5.21-.34-7.73-.67-5.84-1.01-14.04-5.03-17.67-10.24-2.21-2.85-4.26-6.04-5.52-9.73-.63-1.85-1.1-3.86-1.58-5.87-.47-2.52-.32-5.03-.63-7.38-.31-2.52.16-5.2.31-7.72,0-2.85.79-5.71,1.26-8.56.79-3.52,1.89-6.88,3.15-10.24,1.26-2.85,2.52-5.71,4.26-8.06,1.26-1.68,2.21-3.36,3.63-4.7,1.58-1.85,3.15-3.69,5.05-5.2,2.21-2.01,4.89-3.36,7.41-4.7,3.15-1.68,6.31-3.02,9.78-3.52,2.05-.34,4.1-.17,6.31-.17Z"/>
    <path class="st0" d="M19.57,82.24c2.61.14,5.23,1.1,7.15,2.75,2.2,1.93,3.3,16.72,3.72,19.47.14,1.93,0,3.72.27,5.5.41,3.58.83,7.02,1.1,10.59.14,2.61.41,5.23.83,7.84.27,2.06.14,4.13.41,6.19.55,2.61.41,5.23.96,7.84.27,1.93.14,3.99.41,5.92.27,3.44.69,6.88.96,10.32.28,1.93,0,3.85.28,5.64.27,1.79.27,3.58.14,5.37,4.68-.27,9.08-1.65,13.76-1.51,3.72.14,28.6-.28,32.17.69,2.61.55,4.81,2.34,6.47,4.54,1.1,1.24,1.51,2.89,1.93,4.4.28,1.1.28,2.2.14,3.3-.55,3.03-2.2,6.05-4.95,7.7-1.79,1.24-3.99,2.06-6.19,2.06h-27.91c-1.37,0-2.61.27-3.99.41-1.65,0-3.3-.14-4.95,0-3.16.55-6.33,1.38-9.63,1.79-3.99.41-7.98,1.1-11.97,1.65-3.03.55-6.05.83-8.94.28-3.03-.55-1.95-2.2-3.46-4.95-1.79-3.03-2.06-7.02-.41-10.18.96-2.06,2.61-3.85,4.68-4.95,1.51-.83-.67-1.1.98-1.79.14-1.51,0-3.03-.14-4.4-.27-1.93-.14-3.85-.41-5.64-.28-2.06,0-4.26-.28-6.47-.27-2.06-.14-4.13-.41-6.19-.41-3.3-.41-6.6-.83-9.91-.27-2.34-.27-4.82-.69-7.29-.41-2.34-.14-4.82-.41-7.15-.55-3.3-.55-6.6-.96-9.91-.28-2.06-.14-4.27-.41-6.47-.27-2.89-.41-17.82.69-20.57.69-1.93,2.06-3.58,3.71-4.68,1.65-1.51,3.99-1.93,6.19-2.2Z"/>
    <path class="st0" d="M81.2,109.43c.95.48,2.14.83,3.21,1.07,2.38.71,4.52,2.02,6.43,3.69.95.83,2.02,1.55,2.98,2.5,1.9,2.14,3.45,4.76,4.41,7.5.59,1.79,1.31,3.69,1.43,5.72.12,1.91.48,3.81.24,5.72-.24,2.5-.48,5.12-1.43,7.38-.6,1.43-1.19,2.74-1.79,4.05-.6,1.67-1.79,3.1-2.62,4.64-1.19,2.02-3.1,3.57-4.88,5-.95.71-1.79,1.55-2.86,2.26-2.38,1.67-5,2.86-7.62,3.81-2.98.95-5.95,1.31-9.05,1.19-2.86.12-5.83-.36-8.57-1.55-1.91-.95-3.81-1.91-5.6-2.98-2.14-1.31-3.69-3.33-5-5.36-2.38-3.45-3.33-7.5-3.81-11.55-.12-2.74-.24-5.48.36-8.22.36-2.02.95-4.05,1.79-5.95.83-1.79,1.43-3.69,2.5-5.36,1.31-2.38,3.33-4.29,5-6.43,1.55-1.79,3.45-3.22,5.36-4.52,1.43-1.07,3.1-2.14,4.88-2.62,2.26-.71,4.52-1.55,7.02-1.67,2.62,0,5.24.59,7.62,1.67ZM68.1,133.24c-1.19,1.79-1.55,4.05-1.9,6.19-.24,1.67.12,3.69,1.55,4.76,3.1,1.31,6.55,0,9.05-2.02,1.19-1.19,2.38-2.38,2.74-4.17.48-1.79.83-3.69.24-5.48-.36-1.43-1.07-2.74-2.26-3.57-.95-.59-1.9-1.43-2.98-1.91-.12,0-.36,0-.36.12-2.74,1.19-4.88,3.45-6.07,6.07Z"/>
    <path class="st0" d="M222.04,92.22c1.81,1.38,3.09,3.53,3.54,5.76.14,1.42.26,2.73.16,4.17-.09,1.56.19,3.21.33,4.75.26,2.73.51,5.33.77,8.06.15,1.54.65,3.05.8,4.59.18,1.9-.23,3.85.19,5.72.36,1.28.6,2.57.62,4.01-.17,1.93.14,3.93.32,5.83.16,1.66.66,3.17.82,4.83.2,3.33.64,6.76.96,10.07.14,1.42-.08,2.88.05,4.3.19,2.01.38,4.03.58,6.04.12,1.3,0,2.51.12,3.82.06,1.91.49,3.9.32,5.83.11,2.38.09,4.66.06,6.93.04,1.67.32,3.32.23,4.88-.22,2.65-1.42,5.16-3.55,6.68-1.11.94-2.46,1.79-3.87,2.04-4.68,1.04-9.35-1.5-10.97-5.89-.66-1.85-.84-3.75-.77-5.55.14-2.29-.3-4.4-.27-6.55-.24-2.49-.36-4.99-.46-7.37-.03-1.55-.06-3.1-.2-4.65-.56-4.61-.88-9.24-1.44-13.86-.16-1.66.03-3.47-.14-5.25-.41-4.27-.81-8.53-1.23-12.92-.17-1.78-.23-3.69-.65-5.56-.34-1.04-.44-2.11-.3-3.2.03-2.16-.29-4.28-.49-6.41-.26-2.73-.64-5.44-.53-8.08-.24-2.49-.12-5.01.37-7.45.41-1.95,1.43-3.84,2.97-5.19,1.32-1.2,3.05-1.85,4.69-2.24,2.48-.36,5.05.24,6.99,1.84Z"/>
    <path class="st0" d="M248.92,99.09c-5.48,5.6-15.24,2.02-15.24-6.31,0-4.4,2.74-7.74,6.79-8.81,9.64-1.79,14.64,9.05,8.45,15.12Z"/>
    <path class="st0" d="M251.9,112.12c1.67,2.89.95,5.56,1.31,8.13.36,2.03,0,4.07.24,5.99.12.96.24,1.93.36,2.89.36,2.03,0,4.07.36,6.1l1.19,13.7c0,2.14.95,4.17.48,6.31-1.79,9.63-15.83,9.95-18.45,1.07l-1.79-11.99-.6-9.31c-.24-1.71-.48-3.53-.6-5.35-.24-1.61,0-3.21-.12-4.92,0-1.07-.24-2.14-.24-3.32,0-2.89-.24-5.78.83-8.56,1.19-3.21,4.64-5.35,8.22-5.56,3.57-.11,7.38,1.82,8.81,4.82Z"/>
    <path class="st0" d="M275.97,102.33c2.35-.25,4.57.74,6.92.87,3.21.12,6.55.49,9.76,1.36,2.22.49,4.45,1.24,6.18,2.72,2.84,2.1,5.31,5.31,5.81,8.9.37,3.83.12,7.79-1.36,11.37-1.24,3.09-2.6,6.06-4.2,9.02-.87,1.73-29.55,34.76-30.17,36.61,2.47.12,4.94.49,7.42.74,1.98.37,81.9.87,83.51,2.22,1.61,1.36,3.21,2.97,3.71,5.19,1.24,3.46-8.38,7.29-10.85,9.89-2.22,1.85-74.64,2.97-77.48,2.84-2.22-.12-4.45-.12-6.67-.12-1.48,0-3.09-.37-4.7-.25-.99.12-1.85.12-2.84.12-2.6-.37-5.19,0-7.79-.37-3.96-.37-8.03-2.47-10.01-6.18-1.73-3.09-2.22-7.04-.62-10.38.74-1.98,8.38-9.87,9.62-11.6.87-1.48,23.14-27.98,24.01-29.46,1.11-2.1,2.72-3.96,3.96-6.06,1.24-2.22,2.6-4.45,3.58-6.92-2.47-.49-5.07-.37-7.66-.62-2.84-.25-14.95-1.61-16.8-3.83-1.48-1.61-2.22-3.83-2.47-5.93,0-2.72,1.11-5.44,3.09-7.42,1.85-1.61,13.59-2.47,16.06-2.72Z"/>
    <path class="st0" d="M206.07,152.01c-.48-3.1-.83-6.19-1.55-9.17-.95-6.31-1.91-12.5-2.5-18.81-.12-1.43.36-2.86.24-4.29-.36-3.1-1.79-6.31-4.52-7.98-1.67-1.31-3.81-1.31-5.6-2.5-3.1-1.91-6.79-2.98-10.36-2.5-1.79.24-3.69.12-5.48.6-2.62.6-5.12,1.91-7.38,3.21-3.57,2.02-6.55,5-9.29,8.22-1.07,1.07-1.67,2.62-2.62,3.93-1.91,2.5-2.98,5.48-3.93,8.45-.71,2.86-.83,5.83-.83,8.69,0,1.67,0,3.33.36,4.88.36,2.02,1.31,3.93,2.38,5.72,2.26,3.69,5.83,6.55,10,7.86,1.43.48,2.86.71,4.41.95,1.91.12,3.69-.24,5.6-.71,4.41-1.07,8.57-3.21,11.91-6.31.71,2.74,1.07,5.72,2.5,8.22,1.55,2.98,4.88,4.76,8.22,4.64,4.29,0,8.1-3.45,8.57-7.62.24-1.91.12-3.69-.12-5.48ZM183.61,132.69c-.36,1.83-1.53,3.36-2.75,4.74-1.12,1.43-2.62,1.98-4.13,2.53-1.69.42-3.55.5-5.16.01-.01,0-.01.01-.03.01v-.03c-1.16-.34-2.21-.99-2.98-2.02-.64-1.55.03-3.49,1.01-4.87,1.28-1.73,2.62-3.59,4.41-4.66,2.18-1.81,4.95-2.91,7.69-2.8.04-.07.13-.05.22-.03h.01s.08.05.11.07c.62.87.99,2.01,1.47,2.94.57,1.24.52,2.7.13,4.11Z"/>
  </g>
</svg>