<?xml version="1.0" encoding="UTF-8"?>
<svg id="Camada_1" xmlns="http://www.w3.org/2000/svg" version="1.1" viewBox="0 0 283.46 283.46">
  <!-- Generator: Adobe Illustrator 30.4.0, SVG Export Plug-In . SVG Version: 2.1.4 Build 226)  -->
  <defs>
    <style>
      .st0 {
        fill: #db6006;
      }

      .st1 {
        fill: #f2f2f2;
      }
    </style>
  </defs>
  <g>
    <path class="st0" d="M269.98,102.36c3.96-3.82,9.22-13.12,3.05-12-2.59.67-12.8,5.26-12.8,8.03,0,5.24,6.24,7.48,9.75,3.97Z"/>
    <path class="st0" d="M275.26,126.39c-.23-1.36,0-2.71-.23-4.07-.08-.64-.15-1.28-.23-1.93-.15-1.28.08-2.64-.15-4-.23-1.71.23-3.5-.84-5.42-.92-2-3.35-3.28-5.64-3.21-2.29.14-4.5,1.57-5.26,3.71-.69,1.86-.53,3.78-.53,5.71,0,.78.15,1.5.15,2.21.08,1.14-.08,2.21.08,3.28.08,1.21.23,2.43.38,3.57l.38,6.21,1.14,7.99c1.68,5.92,10.67,5.71,11.82-.71.31-1.43-.3-2.78-.3-4.21l-.76-9.14h0Z"/>
    <path class="st0" d="M219.75,104.64c3.43.32,6.77,3.12,7.58,6.77.61,2.04.1,4.41-.91,6.23-1.31,1.93-3.23,3.44-5.45,3.98-1.62.32-3.33.54-4.75,1.61-1.41,1.07-2.73,2.26-3.64,3.76-2.12,3.76-3.23,8.38-2.32,12.68.2.75.4,1.61,1.01,2.15.81.86,2.02,1.07,3.03,1.18,2.22.32,18.75-2.43,20.87-1.79,2.22.54,4.14,2.26,5.15,4.41.81,1.61.81,3.44.61,5.16-.5,2.58-2.32,4.84-4.55,6.02-2.32,1.18-19.35,3.29-21.78,3.4-1.62,0-3.33-.22-4.95-.43-3.74-.64-8.99-3.22-11.31-6.56-1.41-1.83-2.73-3.87-3.54-6.23-.4-1.18-.71-2.47-1.01-3.76-.3-1.61-.2-3.22-.4-4.73-.2-1.61.1-3.33.2-4.94,0-1.83.51-3.65.81-5.48.5-2.26,1.21-4.41,2.02-6.56.81-1.83,1.62-3.65,2.73-5.16.81-1.07,1.41-2.15,2.32-3.01,1.01-1.18,2.02-2.36,3.23-3.33,1.41-1.29,3.13-2.15,4.75-3.01,2.02-1.07,4.04-1.93,6.26-2.26,1.31-.21,2.63-.11,4.04-.11h0Z"/>
    <path class="st0" d="M190.97,136.61c-.3-1.98-.53-3.96-.99-5.87-.61-4.04-1.22-8.01-1.6-12.05-.08-.91.23-1.83.15-2.74-.23-1.98-1.14-4.04-2.9-5.11-1.07-.84-2.44-.84-3.58-1.6-1.98-1.22-4.35-1.91-6.63-1.6-1.14.15-2.36.08-3.51.38-1.68.38-3.28,1.22-4.73,2.06-2.29,1.3-4.19,3.2-5.95,5.26-.69.69-1.07,1.68-1.68,2.52-1.22,1.6-1.91,3.51-2.52,5.41-.46,1.83-.53,3.74-.53,5.57,0,1.07,0,2.13.23,3.13.23,1.3.84,2.52,1.52,3.66,1.45,2.36,3.74,4.19,6.4,5.03.91.3,1.83.46,2.82.61,1.22.08,2.36-.15,3.58-.46,2.82-.69,5.49-2.06,7.62-4.04.46,1.75.69,3.66,1.6,5.26.99,1.91,3.13,3.05,5.26,2.97,2.74,0,5.18-2.21,5.49-4.88.15-1.22.08-2.36-.08-3.51h.03ZM176.59,124.24c-.23,1.17-.98,2.15-1.76,3.03-.72.91-1.68,1.27-2.64,1.62-1.08.27-2.27.32-3.3,0h-.02v-.02c-.75-.22-1.41-.64-1.91-1.3-.41-.99.02-2.24.64-3.12.82-1.11,1.68-2.3,2.82-2.98,1.4-1.16,3.17-1.86,4.92-1.8.03-.04.08-.03.14-.02h0s.05.03.07.04c.4.56.64,1.29.94,1.88.36.8.33,1.73.08,2.63l.02.04Z"/>
    <path class="st0" d="M261.42,136.34c-.3-1.98-.53-3.96-.99-5.87-.61-4.04-1.22-8.01-1.6-12.05-.08-.91.23-1.83.15-2.74-.23-1.98-1.14-4.04-2.9-5.11-1.07-.84-2.44-.84-3.58-1.6-1.98-1.22-4.35-1.91-6.63-1.6-1.14.15-2.36.08-3.51.38-1.68.38-3.28,1.22-4.73,2.06-2.29,1.3-4.19,3.2-5.95,5.26-.69.69-1.07,1.68-1.68,2.52-1.22,1.6-1.91,3.51-2.52,5.41-.46,1.83-.53,3.74-.53,5.57,0,1.07,0,2.13.23,3.13.23,1.3.84,2.52,1.52,3.66,1.45,2.36,3.74,4.19,6.4,5.03.91.3,1.83.46,2.82.61,1.22.08,2.36-.15,3.58-.46,2.82-.69,5.49-2.06,7.62-4.04.46,1.75.69,3.66,1.6,5.26.99,1.91,3.13,3.05,5.26,2.97,2.74,0,5.18-2.21,5.49-4.88.15-1.22.08-2.36-.08-3.51h.03ZM247.03,123.97c-.23,1.17-.98,2.15-1.76,3.03-.72.91-1.68,1.27-2.64,1.62-1.08.27-2.27.32-3.3,0h-.02v-.02c-.75-.22-1.41-.64-1.91-1.3-.41-.99.02-2.24.64-3.12.82-1.11,1.68-2.3,2.82-2.98,1.4-1.16,3.17-1.86,4.92-1.8.03-.04.08-.03.14-.02h0s.05.03.07.04c.4.56.64,1.29.94,1.88.36.8.33,1.73.08,2.63l.02.04Z"/>
    <path class="st0" d="M215.97,176.41c5.07-1.97,12.77-7.95,11.73-11.1-.37-1.12-1.76-1.49-2.55-1.71-2.95-.83-5.06.96-8.72,2.16-5.99,1.95-8.93-.04-9.7,1.52-1.09,2.21,3.66,11.31,9.25,9.14h0Z"/>
  </g>
  <g>
    <path class="st1" d="M72.18,115.06c2.6.24,5.13,2.36,5.74,5.13.46,1.55.08,3.34-.69,4.72-.99,1.47-2.45,2.61-4.13,3.01-1.22.24-2.53.41-3.6,1.22s-2.07,1.71-2.75,2.85c-1.61,2.85-2.45,6.35-1.76,9.61.15.57.31,1.22.77,1.63.61.65,1.53.81,2.3.9,1.68.24,14.2-1.84,15.81-1.36,1.68.41,3.14,1.71,3.9,3.34.61,1.22.61,2.61.46,3.91-.38,1.95-1.76,3.66-3.44,4.56-1.76.9-14.66,2.5-16.5,2.58-1.22,0-2.53-.16-3.75-.33-2.83-.49-6.81-2.44-8.57-4.97-1.07-1.38-2.07-2.93-2.68-4.72-.31-.9-.54-1.87-.76-2.85-.23-1.22-.15-2.44-.31-3.58-.15-1.22.08-2.52.15-3.75,0-1.38.38-2.77.61-4.15.38-1.71.92-3.34,1.53-4.97.61-1.38,1.22-2.77,2.07-3.91.61-.81,1.07-1.63,1.76-2.28.76-.9,1.53-1.79,2.45-2.52,1.07-.98,2.37-1.63,3.6-2.28,1.53-.81,3.06-1.47,4.75-1.71.99-.16,1.99-.08,3.06-.08h-.02Z"/>
    <path class="st1" d="M13.27,104.65c1.27.07,2.54.53,3.47,1.33,1.07.93,1.6,8.11,1.8,9.45.07.93,0,1.8.13,2.67.2,1.74.4,3.4.53,5.14.07,1.27.2,2.54.4,3.8.13,1,.07,2,.2,3,.27,1.27.2,2.54.47,3.8.13.93.07,1.94.2,2.87.13,1.67.33,3.34.47,5.01.13.93,0,1.87.13,2.74.13.87.13,1.74.07,2.6,2.27-.13,4.41-.8,6.67-.73,1.8.07,13.87-.13,15.61.33,1.27.27,2.34,1.13,3.14,2.2.53.6.73,1.4.93,2.14.13.53.13,1.07.07,1.6-.27,1.47-1.07,2.94-2.4,3.74-.87.6-1.94,1-3,1h-13.54c-.67,0-1.27.13-1.94.2-.8,0-1.6-.07-2.4,0-1.54.27-3.07.67-4.67.87-1.94.2-3.87.53-5.81.8-1.47.27-2.94.4-4.34.13-1.47-.27-.94-1.07-1.68-2.4-.87-1.47-1-3.4-.2-4.94.47-1,1.27-1.87,2.27-2.4.73-.4-.32-.53.48-.87.07-.73,0-1.47-.07-2.14-.13-.93-.07-1.87-.2-2.74-.13-1,0-2.07-.13-3.14-.13-1-.07-2-.2-3-.2-1.6-.2-3.2-.4-4.81-.13-1.13-.13-2.34-.33-3.54-.2-1.13-.07-2.34-.2-3.47-.27-1.6-.27-3.2-.47-4.81-.13-1-.07-2.07-.2-3.14-.13-1.4-.2-8.65.33-9.98.33-.93,1-1.74,1.8-2.27.8-.73,1.94-.93,3-1.07v.03Z"/>
    <path class="st1" d="M43.17,117.84c.46.23,1.04.4,1.56.52,1.16.35,2.2.98,3.12,1.79.46.4.98.75,1.44,1.21.92,1.04,1.67,2.31,2.14,3.64.29.87.63,1.79.69,2.77.06.92.23,1.85.12,2.77-.12,1.21-.23,2.48-.69,3.58-.29.69-.58,1.33-.87,1.96-.29.81-.87,1.5-1.27,2.25-.58.98-1.5,1.73-2.37,2.43-.46.35-.87.75-1.39,1.1-1.16.81-2.43,1.39-3.7,1.85-1.44.46-2.89.64-4.39.58-1.39.06-2.83-.17-4.16-.75-.92-.46-1.85-.92-2.71-1.44-1.04-.64-1.79-1.62-2.43-2.6-1.16-1.68-1.62-3.64-1.85-5.6-.06-1.33-.12-2.66.17-3.99.17-.98.46-1.96.87-2.89.4-.87.69-1.79,1.21-2.6.64-1.16,1.62-2.08,2.43-3.12.75-.87,1.67-1.56,2.6-2.2.69-.52,1.5-1.04,2.37-1.27,1.1-.35,2.2-.75,3.41-.81,1.27,0,2.54.29,3.7.81h0ZM36.81,129.39c-.58.87-.75,1.96-.92,3-.12.81.06,1.79.75,2.31,1.5.64,3.18,0,4.39-.98.58-.58,1.16-1.16,1.33-2.02.23-.87.4-1.79.12-2.66-.17-.69-.52-1.33-1.1-1.73-.46-.29-.92-.69-1.44-.92-.06,0-.17,0-.17.06-1.33.58-2.37,1.68-2.95,2.95h-.01Z"/>
    <path class="st1" d="M111.5,109.49c.88.67,1.5,1.71,1.72,2.8.07.69.13,1.32.08,2.02-.04.76.09,1.56.16,2.31.13,1.32.25,2.59.37,3.91.07.75.31,1.48.39,2.23.09.92-.11,1.87.09,2.78.18.62.29,1.25.3,1.94-.08.94.07,1.91.15,2.83.08.8.32,1.54.4,2.34.1,1.62.31,3.28.47,4.89.07.69-.04,1.4.03,2.09.09.98.19,1.95.28,2.93.06.63,0,1.22.06,1.85.03.93.24,1.89.15,2.83.05,1.16.04,2.26.03,3.36.02.81.15,1.61.11,2.37-.11,1.29-.69,2.5-1.72,3.24-.54.46-1.19.87-1.88.99-2.27.51-4.54-.73-5.32-2.86-.32-.9-.41-1.82-.37-2.69.07-1.11-.14-2.13-.13-3.18-.12-1.21-.17-2.42-.22-3.58-.01-.75-.03-1.51-.1-2.25-.27-2.24-.43-4.49-.7-6.72-.08-.81.01-1.68-.07-2.55-.2-2.07-.39-4.14-.6-6.27-.08-.86-.11-1.79-.31-2.7-.16-.51-.21-1.02-.15-1.55.02-1.05-.14-2.08-.24-3.11-.13-1.32-.31-2.64-.26-3.92-.12-1.21-.06-2.43.18-3.61.2-.95.69-1.86,1.44-2.52.64-.58,1.48-.9,2.28-1.09,1.2-.17,2.45.11,3.39.9h-.01Z"/>
    <path class="st1" d="M124.54,112.82c-2.66,2.72-7.39.98-7.39-3.06,0-2.14,1.33-3.75,3.29-4.27,4.68-.87,7.1,4.39,4.1,7.34h0Z"/>
    <path class="st1" d="M125.98,119.14c.81,1.4.46,2.7.64,3.95.17.99,0,1.97.12,2.91.06.47.12.93.17,1.4.17.99,0,1.97.17,2.96l.58,6.65c0,1.04.46,2.03.23,3.06-.87,4.67-7.68,4.83-8.95.52l-.87-5.82-.29-4.52c-.12-.83-.23-1.71-.29-2.6-.12-.78,0-1.56-.06-2.39,0-.52-.12-1.04-.12-1.61,0-1.4-.12-2.8.4-4.15.58-1.56,2.25-2.6,3.99-2.7,1.73-.05,3.58.88,4.27,2.34h.01Z"/>
    <path class="st1" d="M137.66,114.39c1.14-.12,2.22.36,3.36.42,1.56.06,3.18.24,4.74.66,1.08.24,2.16.6,3,1.32,1.38,1.02,2.58,2.58,2.82,4.32.18,1.86.06,3.78-.66,5.52-.6,1.5-1.26,2.94-2.04,4.38-.42.84-14.34,16.86-14.64,17.76,1.2.06,2.4.24,3.6.36.96.18,39.74.42,40.52,1.08s1.56,1.44,1.8,2.52c.6,1.68-4.06,3.54-5.26,4.8-1.08.9-36.21,1.44-37.59,1.38-1.08-.06-2.16-.06-3.24-.06-.72,0-1.5-.18-2.28-.12-.48.06-.9.06-1.38.06-1.26-.18-2.52,0-3.78-.18-1.92-.18-3.9-1.2-4.86-3-.84-1.5-1.08-3.42-.3-5.04.36-.96,4.07-4.79,4.67-5.63.42-.72,11.23-13.57,11.65-14.29.54-1.02,1.32-1.92,1.92-2.94.6-1.08,1.26-2.16,1.74-3.36-1.2-.24-2.46-.18-3.72-.3-1.38-.12-7.25-.78-8.15-1.86-.72-.78-1.08-1.86-1.2-2.88,0-1.32.54-2.64,1.5-3.6.9-.78,6.59-1.2,7.79-1.32h-.01Z"/>
    <path class="st1" d="M103.75,138.5c-.23-1.5-.4-3-.75-4.45-.46-3.06-.92-6.07-1.21-9.13-.06-.69.17-1.39.12-2.08-.17-1.5-.87-3.06-2.2-3.87-.81-.64-1.85-.64-2.72-1.21-1.5-.92-3.29-1.44-5.03-1.21-.87.12-1.79.06-2.66.29-1.27.29-2.48.92-3.58,1.56-1.73.98-3.18,2.43-4.51,3.99-.52.52-.81,1.27-1.27,1.91-.92,1.21-1.44,2.66-1.91,4.1-.35,1.39-.4,2.83-.4,4.22,0,.81,0,1.62.17,2.37.17.98.64,1.91,1.16,2.77,1.1,1.79,2.83,3.18,4.85,3.81.69.23,1.39.35,2.14.46.92.06,1.79-.12,2.72-.35,2.14-.52,4.16-1.56,5.78-3.06.35,1.33.52,2.77,1.21,3.99.75,1.44,2.37,2.31,3.99,2.25,2.08,0,3.93-1.68,4.16-3.7.12-.92.06-1.79-.06-2.66h0ZM92.85,129.12c-.17.89-.74,1.63-1.33,2.3-.55.69-1.27.96-2,1.23-.82.21-1.72.24-2.5,0h-.01c-.56-.18-1.07-.49-1.44-.99-.31-.75.01-1.69.49-2.36.62-.84,1.27-1.74,2.14-2.26,1.06-.88,2.4-1.41,3.73-1.36.02-.03.06-.03.11-.01h0s.04.03.05.03c.3.42.48.98.71,1.42.28.6.25,1.31.06,2h0Z"/>
  </g>
</svg>