<?xml version="1.0" encoding="UTF-8"?>
<svg id="Camada_1" xmlns="http://www.w3.org/2000/svg" version="1.1" viewBox="0 0 283.46 283.46">
  <!-- Generator: Adobe Illustrator 29.8.6, SVG Export Plug-In . SVG Version: 2.1.1 Build 1)  -->
  <defs>
    <style>
      .st0 {
        fill: #c74f07;
        font-family: Poppins-Medium, Poppins;
        font-size: 11.94px;
        font-weight: 500;
      }

      .st1 {
        fill: #db6006;
      }

      .st2 {
        fill: #57217a;
      }
    </style>
  </defs>
  <g>
    <path class="st2" d="M272.63,91.6c4.04-3.89,9.41-13.39,3.12-12.24-2.64.69-13.07,5.37-13.07,8.2,0,5.35,6.37,7.64,9.95,4.05Z"/>
    <path class="st2" d="M278.02,116.12c-.23-1.38,0-2.77-.23-4.15-.08-.66-.16-1.31-.23-1.97-.16-1.31.08-2.69-.16-4.08-.23-1.75.23-3.57-.86-5.54-.93-2.04-3.42-3.35-5.76-3.28-2.33.15-4.59,1.6-5.37,3.79-.7,1.89-.54,3.86-.54,5.83,0,.8.16,1.53.16,2.26.08,1.17-.08,2.26.08,3.35.08,1.24.23,2.48.39,3.64l.39,6.34,1.17,8.16c1.71,6.05,10.89,5.83,12.06-.73.31-1.46-.31-2.84-.31-4.3l-.78-9.32Z"/>
    <path class="st2" d="M221.36,93.92c3.5.33,6.91,3.18,7.73,6.91.62,2.08.1,4.5-.93,6.36-1.34,1.97-3.3,3.51-5.57,4.06-1.65.33-3.4.55-4.85,1.65-1.44,1.1-2.78,2.3-3.71,3.84-2.16,3.84-3.3,8.56-2.37,12.94.21.77.41,1.65,1.03,2.19.82.88,2.06,1.1,3.09,1.21,2.27.33,19.13-2.48,21.3-1.83,2.27.55,4.23,2.3,5.26,4.5.83,1.64.83,3.51.62,5.27-.51,2.63-2.37,4.94-4.64,6.14-2.37,1.21-19.75,3.36-22.22,3.47-1.65,0-3.4-.22-5.05-.44-3.81-.66-9.18-3.29-11.55-6.69-1.44-1.86-2.78-3.95-3.61-6.36-.41-1.21-.72-2.52-1.03-3.84-.31-1.64-.21-3.29-.41-4.83-.21-1.64.1-3.4.21-5.05,0-1.86.52-3.73.83-5.59.51-2.3,1.24-4.5,2.06-6.69.82-1.86,1.65-3.73,2.78-5.27.82-1.1,1.44-2.19,2.37-3.07,1.03-1.21,2.06-2.41,3.3-3.4,1.44-1.32,3.2-2.19,4.85-3.07,2.06-1.1,4.12-1.97,6.39-2.3,1.34-.22,2.68-.11,4.12-.11Z"/>
    <path class="st2" d="M191.99,126.56c-.31-2.02-.54-4.05-1.01-5.99-.62-4.12-1.25-8.17-1.63-12.3-.08-.93.23-1.87.16-2.8-.23-2.02-1.17-4.12-2.96-5.21-1.09-.86-2.49-.86-3.66-1.63-2.02-1.25-4.44-1.95-6.77-1.63-1.17.16-2.41.08-3.58.39-1.71.39-3.35,1.25-4.82,2.1-2.33,1.32-4.28,3.27-6.07,5.37-.7.7-1.09,1.71-1.71,2.57-1.25,1.63-1.95,3.58-2.57,5.53-.47,1.87-.54,3.81-.54,5.68,0,1.09,0,2.18.23,3.19.23,1.32.86,2.57,1.56,3.74,1.48,2.41,3.81,4.28,6.54,5.14.93.31,1.87.47,2.88.62,1.25.08,2.41-.16,3.66-.47,2.88-.7,5.6-2.1,7.78-4.12.47,1.79.7,3.74,1.63,5.37,1.01,1.95,3.19,3.11,5.37,3.03,2.8,0,5.29-2.26,5.6-4.98.16-1.25.08-2.41-.08-3.58ZM177.31,113.93c-.23,1.19-1,2.2-1.8,3.1-.74.93-1.71,1.3-2.7,1.65-1.11.28-2.32.33-3.37,0,0,0,0,0-.02,0v-.02c-.76-.22-1.44-.65-1.95-1.32-.42-1.01.02-2.28.66-3.18.84-1.13,1.71-2.34,2.88-3.04,1.43-1.18,3.23-1.9,5.02-1.83.03-.04.09-.03.15-.02h0s.05.03.07.04c.41.57.65,1.31.96,1.92.37.81.34,1.76.09,2.69Z"/>
    <path class="st2" d="M263.89,126.28c-.31-2.02-.54-4.05-1.01-5.99-.62-4.12-1.25-8.17-1.63-12.3-.08-.93.23-1.87.16-2.8-.23-2.02-1.17-4.12-2.96-5.21-1.09-.86-2.49-.86-3.66-1.63-2.02-1.25-4.44-1.95-6.77-1.63-1.17.16-2.41.08-3.58.39-1.71.39-3.35,1.25-4.82,2.1-2.33,1.32-4.28,3.27-6.07,5.37-.7.7-1.09,1.71-1.71,2.57-1.25,1.63-1.95,3.58-2.57,5.53-.47,1.87-.54,3.81-.54,5.68,0,1.09,0,2.18.23,3.19.23,1.32.86,2.57,1.56,3.74,1.48,2.41,3.81,4.28,6.54,5.14.93.31,1.87.47,2.88.62,1.25.08,2.41-.16,3.66-.47,2.88-.7,5.6-2.1,7.78-4.12.47,1.79.7,3.74,1.63,5.37,1.01,1.95,3.19,3.11,5.37,3.03,2.8,0,5.29-2.26,5.6-4.98.16-1.25.08-2.41-.08-3.58ZM249.2,113.65c-.23,1.19-1,2.2-1.8,3.1-.74.93-1.71,1.3-2.7,1.65-1.11.28-2.32.33-3.37,0,0,0,0,0-.02,0v-.02c-.76-.22-1.44-.65-1.95-1.32-.42-1.01.02-2.28.66-3.18.84-1.13,1.71-2.34,2.88-3.04,1.43-1.18,3.23-1.9,5.02-1.83.03-.04.09-.03.15-.02h0s.05.03.07.04c.41.57.65,1.31.96,1.92.37.81.34,1.76.09,2.69Z"/>
    <path class="st2" d="M217.5,167.17c5.17-2.01,13.04-8.12,11.97-11.33-.38-1.14-1.79-1.52-2.61-1.75-3.02-.85-5.16.98-8.9,2.2-6.12,1.99-9.12-.05-9.91,1.55-1.12,2.25,3.73,11.55,9.44,9.33Z"/>
  </g>
  <g>
    <path class="st1" d="M70.75,104.56c2.66.25,5.23,2.41,5.86,5.24.47,1.58.08,3.41-.7,4.82-1.02,1.5-2.5,2.66-4.22,3.07-1.25.25-2.58.42-3.67,1.25-1.09.83-2.11,1.75-2.81,2.91-1.64,2.91-2.5,6.48-1.8,9.81.16.58.31,1.25.78,1.66.62.67,1.56.83,2.34.91,1.72.25,14.5-1.88,16.14-1.38,1.72.42,3.2,1.74,3.98,3.41.63,1.25.63,2.66.47,3.99-.39,1.99-1.8,3.74-3.51,4.65-1.8.91-14.96,2.55-16.84,2.63-1.25,0-2.58-.17-3.83-.33-2.89-.5-6.95-2.49-8.75-5.07-1.09-1.41-2.11-2.99-2.73-4.82-.31-.91-.55-1.91-.78-2.91-.23-1.25-.16-2.49-.31-3.66-.16-1.25.08-2.58.16-3.82,0-1.41.39-2.83.63-4.24.39-1.74.94-3.41,1.56-5.07.62-1.41,1.25-2.83,2.11-3.99.62-.83,1.09-1.66,1.8-2.33.78-.91,1.56-1.83,2.5-2.58,1.09-1,2.42-1.66,3.67-2.33,1.56-.83,3.12-1.5,4.84-1.75,1.02-.17,2.03-.08,3.12-.08Z"/>
    <path class="st1" d="M10.62,93.93c1.29.07,2.59.54,3.54,1.36,1.09.95,1.64,8.28,1.84,9.64.07.95,0,1.84.14,2.73.2,1.77.41,3.47.54,5.25.07,1.29.2,2.59.41,3.88.14,1.02.07,2.04.2,3.07.27,1.29.2,2.59.48,3.88.14.95.07,1.98.2,2.93.14,1.7.34,3.41.48,5.11.14.95,0,1.91.14,2.79.14.89.14,1.77.07,2.66,2.32-.14,4.5-.82,6.81-.75,1.84.07,14.16-.14,15.93.34,1.29.27,2.38,1.16,3.2,2.25.54.61.75,1.43.95,2.18.14.54.14,1.09.07,1.63-.27,1.5-1.09,3-2.45,3.82-.89.61-1.98,1.02-3.07,1.02h-13.82c-.68,0-1.29.14-1.98.2-.82,0-1.64-.07-2.45,0-1.57.27-3.13.68-4.77.89-1.98.2-3.95.54-5.93.82-1.5.27-3,.41-4.43.14-1.5-.27-.96-1.09-1.71-2.45-.89-1.5-1.02-3.47-.2-5.04.48-1.02,1.29-1.91,2.32-2.45.75-.41-.33-.54.49-.89.07-.75,0-1.5-.07-2.18-.14-.95-.07-1.91-.2-2.79-.14-1.02,0-2.11-.14-3.2-.14-1.02-.07-2.04-.2-3.07-.2-1.64-.2-3.27-.41-4.91-.14-1.16-.14-2.38-.34-3.61-.2-1.16-.07-2.38-.2-3.54-.27-1.63-.27-3.27-.48-4.9-.14-1.02-.07-2.11-.2-3.2-.14-1.43-.2-8.83.34-10.19.34-.95,1.02-1.77,1.84-2.32.82-.75,1.98-.95,3.07-1.09Z"/>
    <path class="st1" d="M41.13,107.39c.47.24,1.06.41,1.59.53,1.18.35,2.24,1,3.18,1.83.47.41,1,.77,1.47,1.24.94,1.06,1.71,2.36,2.18,3.71.29.88.65,1.83.71,2.83.06.94.24,1.89.12,2.83-.12,1.24-.24,2.54-.71,3.66-.29.71-.59,1.36-.88,2-.29.83-.88,1.53-1.3,2.3-.59,1-1.53,1.77-2.42,2.48-.47.35-.88.77-1.42,1.12-1.18.83-2.48,1.41-3.77,1.89-1.47.47-2.95.65-4.48.59-1.42.06-2.89-.18-4.24-.77-.94-.47-1.89-.94-2.77-1.47-1.06-.65-1.83-1.65-2.48-2.65-1.18-1.71-1.65-3.71-1.89-5.72-.06-1.36-.12-2.71.18-4.07.18-1,.47-2,.88-2.95.41-.88.71-1.83,1.24-2.65.65-1.18,1.65-2.12,2.48-3.18.77-.88,1.71-1.59,2.65-2.24.71-.53,1.53-1.06,2.42-1.3,1.12-.35,2.24-.77,3.48-.83,1.3,0,2.59.29,3.77.83ZM34.65,119.18c-.59.88-.77,2-.94,3.07-.12.83.06,1.83.77,2.36,1.53.65,3.24,0,4.48-1,.59-.59,1.18-1.18,1.36-2.06.24-.88.41-1.83.12-2.71-.18-.71-.53-1.36-1.12-1.77-.47-.29-.94-.71-1.47-.94-.06,0-.18,0-.18.06-1.36.59-2.42,1.71-3.01,3.01Z"/>
    <path class="st1" d="M110.88,98.87c.89.68,1.53,1.75,1.75,2.85.07.7.13,1.35.08,2.07-.04.77.09,1.59.17,2.35.13,1.35.25,2.64.38,3.99.07.76.32,1.51.39,2.27.09.94-.11,1.91.09,2.83.18.63.3,1.27.31,1.98-.09.96.07,1.95.16,2.89.08.82.33,1.57.41,2.39.1,1.65.32,3.35.48,4.99.07.7-.04,1.43.03,2.13.1,1,.19,2,.29,2.99.06.65,0,1.24.06,1.89.03.95.24,1.93.16,2.89.05,1.18.04,2.31.03,3.43.02.83.16,1.64.11,2.42-.11,1.31-.7,2.55-1.76,3.31-.55.47-1.22.89-1.92,1.01-2.32.52-4.63-.74-5.43-2.92-.32-.92-.41-1.86-.38-2.75.07-1.13-.15-2.18-.13-3.24-.12-1.23-.18-2.47-.23-3.65-.01-.77-.03-1.54-.1-2.3-.28-2.28-.44-4.58-.71-6.86-.08-.82.01-1.72-.07-2.6-.2-2.11-.4-4.23-.61-6.4-.08-.88-.11-1.83-.32-2.75-.17-.52-.22-1.05-.15-1.58.02-1.07-.14-2.12-.24-3.17-.13-1.35-.32-2.69-.26-4-.12-1.23-.06-2.48.18-3.69.2-.97.71-1.9,1.47-2.57.65-.6,1.51-.91,2.32-1.11,1.23-.18,2.5.12,3.46.91Z"/>
    <path class="st1" d="M124.19,102.27c-2.71,2.77-7.55,1-7.55-3.12,0-2.18,1.36-3.83,3.36-4.36,4.78-.88,7.25,4.48,4.19,7.49Z"/>
    <path class="st1" d="M125.66,108.72c.83,1.43.47,2.76.65,4.03.18,1.01,0,2.01.12,2.97.06.48.12.95.18,1.43.18,1.01,0,2.01.18,3.02l.59,6.78c0,1.06.47,2.07.24,3.13-.88,4.77-7.84,4.93-9.14.53l-.88-5.94-.29-4.61c-.12-.85-.24-1.75-.29-2.65-.12-.79,0-1.59-.06-2.44,0-.53-.12-1.06-.12-1.64,0-1.43-.12-2.86.41-4.24.59-1.59,2.3-2.65,4.07-2.76,1.77-.05,3.65.9,4.36,2.38Z"/>
    <path class="st1" d="M137.58,103.88c1.16-.12,2.26.37,3.43.43,1.59.06,3.24.25,4.83.67,1.1.24,2.2.61,3.06,1.35,1.41,1.04,2.63,2.63,2.88,4.41.18,1.9.06,3.86-.67,5.63-.61,1.53-1.29,3-2.08,4.47-.43.86-14.63,17.21-14.94,18.13,1.22.06,2.45.24,3.67.37.98.18,40.56.43,41.35,1.1.8.67,1.59,1.47,1.84,2.57.61,1.71-4.15,3.61-5.37,4.9-1.1.92-36.96,1.47-38.37,1.41-1.1-.06-2.2-.06-3.31-.06-.73,0-1.53-.18-2.33-.12-.49.06-.92.06-1.41.06-1.29-.18-2.57,0-3.86-.18-1.96-.18-3.98-1.22-4.96-3.06-.86-1.53-1.1-3.49-.31-5.14.37-.98,4.15-4.89,4.76-5.74.43-.73,11.46-13.85,11.89-14.59.55-1.04,1.35-1.96,1.96-3,.61-1.1,1.29-2.2,1.78-3.43-1.22-.24-2.51-.18-3.79-.31-1.41-.12-7.4-.8-8.32-1.9-.73-.8-1.1-1.9-1.22-2.94,0-1.35.55-2.69,1.53-3.67.92-.8,6.73-1.22,7.95-1.35Z"/>
    <path class="st1" d="M102.97,128.48c-.24-1.53-.41-3.07-.77-4.54-.47-3.12-.94-6.19-1.24-9.32-.06-.71.18-1.42.12-2.12-.18-1.53-.88-3.12-2.24-3.95-.83-.65-1.89-.65-2.77-1.24-1.53-.94-3.36-1.47-5.13-1.24-.88.12-1.83.06-2.71.29-1.3.29-2.54.94-3.66,1.59-1.77,1-3.24,2.48-4.6,4.07-.53.53-.83,1.3-1.3,1.95-.94,1.24-1.47,2.71-1.95,4.19-.35,1.42-.41,2.89-.41,4.3,0,.83,0,1.65.18,2.42.18,1,.65,1.95,1.18,2.83,1.12,1.83,2.89,3.24,4.95,3.89.71.24,1.42.35,2.18.47.94.06,1.83-.12,2.77-.35,2.18-.53,4.25-1.59,5.9-3.12.35,1.36.53,2.83,1.24,4.07.77,1.47,2.42,2.36,4.07,2.3,2.12,0,4.01-1.71,4.25-3.77.12-.94.06-1.83-.06-2.71ZM91.84,118.91c-.18.9-.76,1.66-1.36,2.35-.56.71-1.3.98-2.04,1.25-.84.21-1.76.25-2.55,0,0,0,0,0-.01,0h0c-.58-.18-1.09-.5-1.47-1.02-.31-.77.01-1.73.5-2.41.64-.86,1.3-1.78,2.18-2.31,1.08-.9,2.45-1.44,3.81-1.39.02-.03.07-.03.11-.01h0s.04.03.05.03c.31.43.49,1,.73,1.45.28.62.26,1.34.07,2.04Z"/>
  </g>
  <text class="st0" transform="translate(34.66 180.58)"><tspan x="0" y="0" xml:space="preserve">ENCONTRE UM PONTO DE  VENDA DE </tspan><tspan x="18.21" y="14.33">AÇAÍ SEGURO PERTO DE VOCÊ</tspan></text>
</svg>