<?xml version="1.0" encoding="UTF-8"?>
<svg id="Camada_2" xmlns="http://www.w3.org/2000/svg" version="1.1" xmlns:xlink="http://www.w3.org/1999/xlink" viewBox="0 0 1000 2800">
  <!-- Generator: Adobe Illustrator 29.8.6, SVG Export Plug-In . SVG Version: 2.1.1 Build 1)  -->
  <defs>
    <style>
      .st0, .st1, .st2 {
        fill: none;
      }

      .st1 {
        stroke: #7b6e27;
        stroke-width: 15px;
      }

      .st1, .st2 {
        stroke-miterlimit: 10;
      }

      .st2 {
        stroke: #1b3e70;
        stroke-width: 90px;
      }

      .st3 {
        clip-path: url(#clippath);
      }
    </style>
    <clipPath id="clippath">
      <rect class="st0" x="-14.17" y="-14.17" width="1028.53" height="2839.51"/>
    </clipPath>
  </defs>
  <g class="st3">
    <path class="st2" d="M475.13-91.43c6.88,110.84,25.82,197.19,40.85,253.28,64.98,242.49,170.28,342.85,241.02,645.45,5.45,23.31,11.35,48.54,16.34,77.62,81.74,475.98-301.37,688.21-269.62,1111.15,15.99,213.05,115.98,196.2,212.43,625.02,37.01,164.56,52.91,303.19,60.55,396.26"/>
    <path class="st1" d="M319.89-14.17c-24.13,46.87-53.57,119.17-57.19,208.71-7.19,177.8,92.65,294.89,232.85,494.3,289.57,411.85,433.42,621.68,388.09,812.94-15.25,64.33-45.28,107.96-81.7,261.45-21.76,91.72-43.75,184.37-44.94,277.79-2.46,193.45,85.75,273.86,216.51,600.51,49.47,123.57,83.75,229.23,106.21,304.42"/>
  </g>
</svg>