<?xml version="1.0" encoding="UTF-8"?>
<svg id="Camada_2" xmlns="http://www.w3.org/2000/svg" version="1.1" viewBox="0 0 1000 1000">
  <!-- Generator: Adobe Illustrator 29.8.6, SVG Export Plug-In . SVG Version: 2.1.1 Build 1)  -->
  <defs>
    <style>
      .st0, .st1 {
        fill: #efd0ba;
      }

      .st2 {
        fill: #3bac8d;
      }

      .st1 {
        font-family: Poppins-Bold, Poppins;
        font-size: 40px;
        font-weight: 700;
      }

      .st3 {
        fill: #1b3e70;
      }

      .st4 {
        fill: none;
        stroke: #1b3e70;
        stroke-linecap: round;
        stroke-linejoin: round;
        stroke-width: 70px;
      }
    </style>
  </defs>
  <path class="st4" d="M103.38,111.04c11.01,18.46,30.09,44.89,61.28,65.87,54.59,36.72,113.67,34.8,156.26,33.7,201.1-5.2,302.66-7.27,352.34,18.38,11.43,5.9,112.77,60.16,119.49,157.79,3.35,48.71-17.35,100.94-55.15,133.28-47.03,40.22-104.95,36.36-208.34,30.64-318.33-17.6-374.15-14.38-407.49,24.51-34.4,40.13-29.61,100.46-18.38,134.81,28.21,86.34,132.54,117.05,202.21,137.56,196.1,57.73,366.98-16.04,409.02-34.92,23.97-10.76,43.26-21.3,56.68-29.11"/>
  <polyline class="st4" points="699.3 728.4 837.17 757.51 768.23 852.49"/>
  <rect class="st3" x="255.04" y="98.79" width="416.68" height="209.87" rx="73.53" ry="73.53"/>
  <rect class="st3" x="166.19" y="418.96" width="416.68" height="209.87" rx="73.53" ry="73.53"/>
  <rect class="st3" x="265.77" y="747.55" width="416.68" height="209.87" rx="73.53" ry="73.53"/>
  <g>
    <path class="st0" d="M389.24,167.5c-1.63-.67-2.93-1.65-3.9-2.96-.97-1.31-1.49-2.88-1.54-4.72h7.28c.11,1.04.47,1.83,1.08,2.38.61.55,1.41.82,2.4.82s1.81-.23,2.4-.7c.59-.47.88-1.11.88-1.94,0-.69-.23-1.27-.7-1.72-.47-.45-1.04-.83-1.72-1.12-.68-.29-1.65-.63-2.9-1-1.81-.56-3.29-1.12-4.44-1.68-1.15-.56-2.13-1.39-2.96-2.48-.83-1.09-1.24-2.52-1.24-4.28,0-2.61.95-4.66,2.84-6.14,1.89-1.48,4.36-2.22,7.4-2.22s5.59.74,7.48,2.22c1.89,1.48,2.91,3.54,3.04,6.18h-7.4c-.05-.91-.39-1.62-1-2.14-.61-.52-1.4-.78-2.36-.78-.83,0-1.49.22-2,.66-.51.44-.76,1.07-.76,1.9,0,.91.43,1.61,1.28,2.12.85.51,2.19,1.05,4,1.64,1.81.61,3.29,1.2,4.42,1.76,1.13.56,2.11,1.37,2.94,2.44.83,1.07,1.24,2.44,1.24,4.12s-.41,3.05-1.22,4.36c-.81,1.31-1.99,2.35-3.54,3.12-1.55.77-3.37,1.16-5.48,1.16s-3.89-.33-5.52-1Z"/>
    <path class="st0" d="M430.12,158.7h-15.48c.11,1.39.55,2.45,1.34,3.18s1.75,1.1,2.9,1.1c1.71,0,2.89-.72,3.56-2.16h7.28c-.37,1.47-1.05,2.79-2.02,3.96-.97,1.17-2.19,2.09-3.66,2.76-1.47.67-3.11,1-4.92,1-2.19,0-4.13-.47-5.84-1.4-1.71-.93-3.04-2.27-4-4-.96-1.73-1.44-3.76-1.44-6.08s.47-4.35,1.42-6.08c.95-1.73,2.27-3.07,3.98-4,1.71-.93,3.67-1.4,5.88-1.4s4.08.45,5.76,1.36c1.68.91,2.99,2.2,3.94,3.88.95,1.68,1.42,3.64,1.42,5.88,0,.64-.04,1.31-.12,2ZM423.24,154.9c0-1.17-.4-2.11-1.2-2.8-.8-.69-1.8-1.04-3-1.04s-2.11.33-2.9,1c-.79.67-1.27,1.61-1.46,2.84h8.56Z"/>
    <path class="st0" d="M440.68,138.62v29.6h-6.84v-29.6h6.84Z"/>
    <path class="st0" d="M466.56,158.7h-15.48c.11,1.39.55,2.45,1.34,3.18s1.75,1.1,2.9,1.1c1.71,0,2.89-.72,3.56-2.16h7.28c-.37,1.47-1.05,2.79-2.02,3.96-.97,1.17-2.19,2.09-3.66,2.76-1.47.67-3.11,1-4.92,1-2.19,0-4.13-.47-5.84-1.4-1.71-.93-3.04-2.27-4-4-.96-1.73-1.44-3.76-1.44-6.08s.47-4.35,1.42-6.08c.95-1.73,2.27-3.07,3.98-4,1.71-.93,3.67-1.4,5.88-1.4s4.08.45,5.76,1.36c1.68.91,2.99,2.2,3.94,3.88.95,1.68,1.42,3.64,1.42,5.88,0,.64-.04,1.31-.12,2ZM459.68,154.9c0-1.17-.4-2.11-1.2-2.8-.8-.69-1.8-1.04-3-1.04s-2.11.33-2.9,1c-.79.67-1.27,1.61-1.46,2.84h8.56Z"/>
    <path class="st0" d="M483.56,160.14h7.28c-.51,2.27-1.52,4.12-3.04,5.56s-3.41,2.33-5.68,2.68v1.48c1.39,0,2.6.38,3.64,1.14,1.04.76,1.56,1.9,1.56,3.42s-.55,2.67-1.64,3.46c-1.09.79-2.4,1.18-3.92,1.18h-6.16v-3.76h5.24c.53,0,.93-.08,1.2-.24.27-.16.4-.43.4-.8s-.13-.63-.4-.78c-.27-.15-.67-.22-1.2-.22h-2.84v-4.88c-2.75-.43-4.95-1.65-6.6-3.66-1.65-2.01-2.48-4.57-2.48-7.66,0-2.32.47-4.35,1.42-6.08.95-1.73,2.27-3.07,3.96-4,1.69-.93,3.63-1.4,5.82-1.4,2.8,0,5.14.73,7.02,2.2,1.88,1.47,3.11,3.53,3.7,6.2h-7.28c-.61-1.71-1.8-2.56-3.56-2.56-1.25,0-2.25.49-3,1.46-.75.97-1.12,2.37-1.12,4.18s.37,3.21,1.12,4.18c.75.97,1.75,1.46,3,1.46,1.76,0,2.95-.85,3.56-2.56Z"/>
    <path class="st0" d="M494.42,150.98c.87-1.73,2.04-3.07,3.54-4,1.49-.93,3.16-1.4,5-1.4,1.57,0,2.95.32,4.14.96,1.19.64,2.1,1.48,2.74,2.52v-3.16h6.84v22.32h-6.84v-3.16c-.67,1.04-1.59,1.88-2.78,2.52-1.19.64-2.57.96-4.14.96-1.81,0-3.47-.47-4.96-1.42-1.49-.95-2.67-2.29-3.54-4.04-.87-1.75-1.3-3.77-1.3-6.06s.43-4.31,1.3-6.04ZM503.24,138.1c.59,0,1.1.09,1.54.26.44.17.98.43,1.62.78.48.27.87.46,1.16.58.29.12.6.18.92.18.98,0,1.56-.6,1.72-1.8h3.52c-.64,3.95-2.48,5.92-5.52,5.92-.59,0-1.1-.09-1.54-.26-.44-.17-.98-.43-1.62-.78-.48-.27-.87-.46-1.16-.58-.29-.12-.6-.18-.92-.18-.99,0-1.57.6-1.76,1.8h-3.48c.64-3.95,2.48-5.92,5.52-5.92ZM508.42,153.02c-.95-.99-2.1-1.48-3.46-1.48s-2.51.49-3.46,1.46c-.95.97-1.42,2.31-1.42,4.02s.47,3.06,1.42,4.06c.95,1,2.1,1.5,3.46,1.5s2.51-.49,3.46-1.48c.95-.99,1.42-2.33,1.42-4.04s-.47-3.05-1.42-4.04Z"/>
    <path class="st0" d="M525.9,167.14c-1.75-.93-3.12-2.27-4.12-4-1-1.73-1.5-3.76-1.5-6.08s.51-4.31,1.52-6.06c1.01-1.75,2.4-3.09,4.16-4.02,1.76-.93,3.73-1.4,5.92-1.4s4.16.47,5.92,1.4c1.76.93,3.15,2.27,4.16,4.02,1.01,1.75,1.52,3.77,1.52,6.06s-.51,4.31-1.54,6.06c-1.03,1.75-2.43,3.09-4.2,4.02-1.77.93-3.75,1.4-5.94,1.4s-4.15-.47-5.9-1.4ZM535.14,161.18c.92-.96,1.38-2.33,1.38-4.12s-.45-3.16-1.34-4.12c-.89-.96-1.99-1.44-3.3-1.44s-2.44.47-3.32,1.42c-.88.95-1.32,2.33-1.32,4.14s.43,3.16,1.3,4.12c.87.96,1.95,1.44,3.26,1.44s2.42-.48,3.34-1.44Z"/>
    <path class="st0" d="M345.62,215.5c-1.63-.67-2.93-1.65-3.9-2.96-.97-1.31-1.49-2.88-1.54-4.72h7.28c.11,1.04.47,1.83,1.08,2.38.61.55,1.41.82,2.4.82s1.81-.23,2.4-.7c.59-.47.88-1.11.88-1.94,0-.69-.23-1.27-.7-1.72-.47-.45-1.04-.83-1.72-1.12-.68-.29-1.65-.63-2.9-1-1.81-.56-3.29-1.12-4.44-1.68-1.15-.56-2.13-1.39-2.96-2.48-.83-1.09-1.24-2.52-1.24-4.28,0-2.61.95-4.66,2.84-6.14,1.89-1.48,4.36-2.22,7.4-2.22s5.59.74,7.48,2.22c1.89,1.48,2.91,3.54,3.04,6.18h-7.4c-.05-.91-.39-1.62-1-2.14-.61-.52-1.4-.78-2.36-.78-.83,0-1.49.22-2,.66-.51.44-.76,1.07-.76,1.9,0,.91.43,1.61,1.28,2.12.85.51,2.19,1.05,4,1.64,1.81.61,3.29,1.2,4.42,1.76,1.13.56,2.11,1.37,2.94,2.44.83,1.07,1.24,2.44,1.24,4.12s-.41,3.05-1.22,4.36c-.81,1.31-1.99,2.35-3.54,3.12-1.55.77-3.37,1.16-5.48,1.16s-3.89-.33-5.52-1Z"/>
    <path class="st0" d="M372.42,186.62v29.6h-6.84v-29.6h6.84Z"/>
    <path class="st0" d="M377.32,198.98c.87-1.73,2.05-3.07,3.54-4,1.49-.93,3.16-1.4,5-1.4,1.57,0,2.95.32,4.14.96,1.19.64,2.1,1.48,2.74,2.52v-3.16h6.84v22.32h-6.84v-3.16c-.67,1.04-1.59,1.88-2.78,2.52-1.19.64-2.57.96-4.14.96-1.81,0-3.47-.47-4.96-1.42-1.49-.95-2.67-2.29-3.54-4.04-.87-1.75-1.3-3.77-1.3-6.06s.43-4.31,1.3-6.04ZM391.32,201.02c-.95-.99-2.1-1.48-3.46-1.48s-2.51.49-3.46,1.46c-.95.97-1.42,2.31-1.42,4.02s.47,3.06,1.42,4.06c.95,1,2.1,1.5,3.46,1.5s2.51-.49,3.46-1.48c.95-.99,1.42-2.33,1.42-4.04s-.47-3.05-1.42-4.04Z"/>
    <path class="st0" d="M411.38,186.62v29.6h-6.84v-29.6h6.84Z"/>
    <path class="st0" d="M416.84,190.52c-.76-.71-1.14-1.58-1.14-2.62s.38-1.95,1.14-2.66c.76-.71,1.74-1.06,2.94-1.06s2.14.35,2.9,1.06c.76.71,1.14,1.59,1.14,2.66s-.38,1.91-1.14,2.62c-.76.71-1.73,1.06-2.9,1.06s-2.18-.35-2.94-1.06ZM423.18,193.9v22.32h-6.84v-22.32h6.84Z"/>
    <path class="st0" d="M448,196.2c1.56,1.69,2.34,4.02,2.34,6.98v13.04h-6.8v-12.12c0-1.49-.39-2.65-1.16-3.48-.77-.83-1.81-1.24-3.12-1.24s-2.35.41-3.12,1.24c-.77.83-1.16,1.99-1.16,3.48v12.12h-6.84v-22.32h6.84v2.96c.69-.99,1.63-1.77,2.8-2.34,1.17-.57,2.49-.86,3.96-.86,2.61,0,4.7.85,6.26,2.54Z"/>
    <path class="st0" d="M455.6,190.52c-.76-.71-1.14-1.58-1.14-2.62s.38-1.95,1.14-2.66c.76-.71,1.74-1.06,2.94-1.06s2.14.35,2.9,1.06c.76.71,1.14,1.59,1.14,2.66s-.38,1.91-1.14,2.62c-.76.71-1.73,1.06-2.9,1.06s-2.18-.35-2.94-1.06ZM461.94,193.9v22.32h-6.84v-22.32h6.84Z"/>
    <path class="st0" d="M473.3,210.58h9.68v5.64h-17.32v-5.44l9.28-11.24h-9.2v-5.64h17.04v5.44l-9.48,11.24Z"/>
    <path class="st0" d="M486.68,198.98c.87-1.73,2.05-3.07,3.54-4,1.49-.93,3.16-1.4,5-1.4,1.57,0,2.95.32,4.14.96,1.19.64,2.1,1.48,2.74,2.52v-3.16h6.84v22.32h-6.84v-3.16c-.67,1.04-1.59,1.88-2.78,2.52-1.19.64-2.57.96-4.14.96-1.81,0-3.47-.47-4.96-1.42-1.49-.95-2.67-2.29-3.54-4.04-.87-1.75-1.3-3.77-1.3-6.06s.43-4.31,1.3-6.04ZM500.68,201.02c-.95-.99-2.1-1.48-3.46-1.48s-2.51.49-3.46,1.46c-.95.97-1.42,2.31-1.42,4.02s.47,3.06,1.42,4.06c.95,1,2.1,1.5,3.46,1.5s2.51-.49,3.46-1.48c.95-.99,1.42-2.33,1.42-4.04s-.47-3.05-1.42-4.04Z"/>
    <path class="st0" d="M527.18,208.14h7.28c-.51,2.27-1.52,4.12-3.04,5.56s-3.41,2.33-5.68,2.68v1.48c1.39,0,2.6.38,3.64,1.14,1.04.76,1.56,1.9,1.56,3.42s-.55,2.67-1.64,3.46c-1.09.79-2.4,1.18-3.92,1.18h-6.16v-3.76h5.24c.53,0,.93-.08,1.2-.24.27-.16.4-.43.4-.8s-.13-.63-.4-.78c-.27-.15-.67-.22-1.2-.22h-2.84v-4.88c-2.75-.43-4.95-1.65-6.6-3.66-1.65-2.01-2.48-4.57-2.48-7.66,0-2.32.47-4.35,1.42-6.08.95-1.73,2.27-3.07,3.96-4,1.69-.93,3.63-1.4,5.82-1.4,2.8,0,5.14.73,7.02,2.2,1.88,1.47,3.11,3.53,3.7,6.2h-7.28c-.61-1.71-1.8-2.56-3.56-2.56-1.25,0-2.25.49-3,1.46-.75.97-1.12,2.37-1.12,4.18s.37,3.21,1.12,4.18c.75.97,1.75,1.46,3,1.46,1.76,0,2.95-.85,3.56-2.56Z"/>
    <path class="st0" d="M538.04,198.98c.87-1.73,2.05-3.07,3.54-4,1.49-.93,3.16-1.4,5-1.4,1.57,0,2.95.32,4.14.96,1.19.64,2.1,1.48,2.74,2.52v-3.16h6.84v22.32h-6.84v-3.16c-.67,1.04-1.59,1.88-2.78,2.52-1.19.64-2.57.96-4.14.96-1.81,0-3.47-.47-4.96-1.42-1.49-.95-2.67-2.29-3.54-4.04-.87-1.75-1.3-3.77-1.3-6.06s.43-4.31,1.3-6.04ZM546.86,186.1c.59,0,1.1.09,1.54.26.44.17.98.43,1.62.78.48.27.87.46,1.16.58.29.12.6.18.92.18.99,0,1.56-.6,1.72-1.8h3.52c-.64,3.95-2.48,5.92-5.52,5.92-.59,0-1.1-.09-1.54-.26-.44-.17-.98-.43-1.62-.78-.48-.27-.87-.46-1.16-.58-.29-.12-.6-.18-.92-.18-.99,0-1.57.6-1.76,1.8h-3.48c.64-3.95,2.48-5.92,5.52-5.92ZM552.04,201.02c-.95-.99-2.1-1.48-3.46-1.48s-2.51.49-3.46,1.46c-.95.97-1.42,2.31-1.42,4.02s.47,3.06,1.42,4.06c.95,1,2.1,1.5,3.46,1.5s2.51-.49,3.46-1.48c.95-.99,1.42-2.33,1.42-4.04s-.47-3.05-1.42-4.04Z"/>
    <path class="st0" d="M569.52,215.14c-1.75-.93-3.12-2.27-4.12-4-1-1.73-1.5-3.76-1.5-6.08s.51-4.31,1.52-6.06c1.01-1.75,2.4-3.09,4.16-4.02,1.76-.93,3.73-1.4,5.92-1.4s4.16.47,5.92,1.4c1.76.93,3.15,2.27,4.16,4.02,1.01,1.75,1.52,3.77,1.52,6.06s-.51,4.31-1.54,6.06c-1.03,1.75-2.43,3.09-4.2,4.02-1.77.93-3.75,1.4-5.94,1.4s-4.15-.47-5.9-1.4ZM578.76,209.18c.92-.96,1.38-2.33,1.38-4.12s-.45-3.16-1.34-4.12c-.89-.96-1.99-1.44-3.3-1.44s-2.44.47-3.32,1.42c-.88.95-1.32,2.33-1.32,4.14s.43,3.16,1.3,4.12c.87.96,1.95,1.44,3.26,1.44s2.42-.48,3.34-1.44Z"/>
    <path class="st0" d="M377.56,254.7h-15.48c.11,1.39.55,2.45,1.34,3.18s1.75,1.1,2.9,1.1c1.71,0,2.89-.72,3.56-2.16h7.28c-.37,1.47-1.05,2.79-2.02,3.96-.97,1.17-2.19,2.09-3.66,2.76-1.47.67-3.11,1-4.92,1-2.19,0-4.13-.47-5.84-1.4-1.71-.93-3.04-2.27-4-4-.96-1.73-1.44-3.76-1.44-6.08s.47-4.35,1.42-6.08c.95-1.73,2.27-3.07,3.98-4,1.71-.93,3.67-1.4,5.88-1.4s4.08.45,5.76,1.36c1.68.91,2.99,2.2,3.94,3.88.95,1.68,1.42,3.64,1.42,5.88,0,.64-.04,1.31-.12,2ZM370.68,250.9c0-1.17-.4-2.11-1.2-2.8-.8-.69-1.8-1.04-3-1.04s-2.11.33-2.9,1c-.79.67-1.27,1.61-1.46,2.84h8.56Z"/>
    <path class="st0" d="M396.6,234.62v29.6h-6.84v-29.6h6.84Z"/>
    <path class="st0" d="M401.5,246.98c.87-1.73,2.05-3.07,3.54-4,1.49-.93,3.16-1.4,5-1.4,1.57,0,2.95.32,4.14.96,1.19.64,2.1,1.48,2.74,2.52v-3.16h6.84v22.32h-6.84v-3.16c-.67,1.04-1.59,1.88-2.78,2.52-1.19.64-2.57.96-4.14.96-1.81,0-3.47-.47-4.96-1.42-1.49-.95-2.67-2.29-3.54-4.04-.87-1.75-1.3-3.77-1.3-6.06s.43-4.31,1.3-6.04ZM415.5,249.02c-.95-.99-2.1-1.48-3.46-1.48s-2.51.49-3.46,1.46c-.95.97-1.42,2.31-1.42,4.02s.47,3.06,1.42,4.06c.95,1,2.1,1.5,3.46,1.5s2.51-.49,3.46-1.48c.95-.99,1.42-2.33,1.42-4.04s-.47-3.05-1.42-4.04Z"/>
    <path class="st0" d="M438.76,257.82l4.84-15.92h7.28l-7.92,22.32h-8.44l-7.92-22.32h7.32l4.84,15.92Z"/>
    <path class="st0" d="M453.7,246.98c.87-1.73,2.05-3.07,3.54-4,1.49-.93,3.16-1.4,5-1.4,1.57,0,2.95.32,4.14.96,1.19.64,2.1,1.48,2.74,2.52v-3.16h6.84v22.32h-6.84v-3.16c-.67,1.04-1.59,1.88-2.78,2.52-1.19.64-2.57.96-4.14.96-1.81,0-3.47-.47-4.96-1.42-1.49-.95-2.67-2.29-3.54-4.04-.87-1.75-1.3-3.77-1.3-6.06s.43-4.31,1.3-6.04ZM467.7,249.02c-.95-.99-2.1-1.48-3.46-1.48s-2.51.49-3.46,1.46c-.95.97-1.42,2.31-1.42,4.02s.47,3.06,1.42,4.06c.95,1,2.1,1.5,3.46,1.5s2.51-.49,3.46-1.48c.95-.99,1.42-2.33,1.42-4.04s-.47-3.05-1.42-4.04Z"/>
    <path class="st0" d="M493.54,242.54c1.19.64,2.1,1.48,2.74,2.52v-3.16h6.84v22.28c0,2.05-.41,3.91-1.22,5.58-.81,1.67-2.05,2.99-3.72,3.98-1.67.99-3.74,1.48-6.22,1.48-3.31,0-5.99-.78-8.04-2.34-2.05-1.56-3.23-3.67-3.52-6.34h6.76c.21.85.72,1.53,1.52,2.02.8.49,1.79.74,2.96.74,1.41,0,2.54-.41,3.38-1.22s1.26-2.11,1.26-3.9v-3.16c-.67,1.04-1.59,1.89-2.76,2.54-1.17.65-2.55.98-4.12.98-1.84,0-3.51-.47-5-1.42-1.49-.95-2.67-2.29-3.54-4.04-.87-1.75-1.3-3.77-1.3-6.06s.43-4.31,1.3-6.04c.87-1.73,2.05-3.07,3.54-4,1.49-.93,3.16-1.4,5-1.4,1.57,0,2.95.32,4.14.96ZM494.86,249.02c-.95-.99-2.1-1.48-3.46-1.48s-2.51.49-3.46,1.46c-.95.97-1.42,2.31-1.42,4.02s.47,3.06,1.42,4.06c.95,1,2.1,1.5,3.46,1.5s2.51-.49,3.46-1.48c.95-.99,1.42-2.33,1.42-4.04s-.47-3.05-1.42-4.04Z"/>
    <path class="st0" d="M529,254.7h-15.48c.11,1.39.55,2.45,1.34,3.18.79.73,1.75,1.1,2.9,1.1,1.71,0,2.89-.72,3.56-2.16h7.28c-.37,1.47-1.05,2.79-2.02,3.96-.97,1.17-2.19,2.09-3.66,2.76-1.47.67-3.11,1-4.92,1-2.19,0-4.13-.47-5.84-1.4-1.71-.93-3.04-2.27-4-4-.96-1.73-1.44-3.76-1.44-6.08s.47-4.35,1.42-6.08c.95-1.73,2.27-3.07,3.98-4,1.71-.93,3.67-1.4,5.88-1.4s4.08.45,5.76,1.36c1.68.91,2.99,2.2,3.94,3.88.95,1.68,1.42,3.64,1.42,5.88,0,.64-.04,1.31-.12,2ZM522.12,250.9c0-1.17-.4-2.11-1.2-2.8-.8-.69-1.8-1.04-3-1.04s-2.11.33-2.9,1c-.79.67-1.27,1.61-1.46,2.84h8.56Z"/>
    <path class="st0" d="M567.82,244.18c1.64,1.68,2.46,4.01,2.46,7v13.04h-6.8v-12.12c0-1.44-.38-2.55-1.14-3.34-.76-.79-1.81-1.18-3.14-1.18s-2.38.39-3.14,1.18c-.76.79-1.14,1.9-1.14,3.34v12.12h-6.8v-12.12c0-1.44-.38-2.55-1.14-3.34-.76-.79-1.81-1.18-3.14-1.18s-2.38.39-3.14,1.18c-.76.79-1.14,1.9-1.14,3.34v12.12h-6.84v-22.32h6.84v2.8c.69-.93,1.6-1.67,2.72-2.22,1.12-.55,2.39-.82,3.8-.82,1.68,0,3.18.36,4.5,1.08s2.35,1.75,3.1,3.08c.77-1.23,1.83-2.23,3.16-3,1.33-.77,2.79-1.16,4.36-1.16,2.77,0,4.98.84,6.62,2.52Z"/>
  </g>
  <g>
    <path class="st0" d="M236.75,508.7h-10.48l-1.68,4.96h-7.16l10.16-28.08h7.92l10.16,28.08h-7.24l-1.68-4.96ZM236.19,479.94l-9.64,4.04v-4.72l9.64-4.64v5.32ZM234.99,503.42l-3.48-10.28-3.44,10.28h6.92Z"/>
    <path class="st0" d="M261.37,491.98c1.19.64,2.1,1.48,2.74,2.52v-3.16h6.84v22.28c0,2.05-.41,3.91-1.22,5.58-.81,1.67-2.05,2.99-3.72,3.98-1.67.99-3.74,1.48-6.22,1.48-3.31,0-5.99-.78-8.04-2.34-2.05-1.56-3.23-3.67-3.52-6.34h6.76c.21.85.72,1.53,1.52,2.02.8.49,1.79.74,2.96.74,1.41,0,2.54-.41,3.38-1.22s1.26-2.11,1.26-3.9v-3.16c-.67,1.04-1.59,1.89-2.76,2.54-1.17.65-2.55.98-4.12.98-1.84,0-3.51-.47-5-1.42-1.49-.95-2.67-2.29-3.54-4.04-.87-1.75-1.3-3.77-1.3-6.06s.43-4.31,1.3-6.04c.87-1.73,2.05-3.07,3.54-4,1.49-.93,3.16-1.4,5-1.4,1.57,0,2.95.32,4.14.96ZM262.69,498.46c-.95-.99-2.1-1.48-3.46-1.48s-2.51.49-3.46,1.46c-.95.97-1.42,2.31-1.42,4.02s.47,3.06,1.42,4.06c.95,1,2.1,1.5,3.46,1.5s2.51-.49,3.46-1.48c.95-.99,1.42-2.33,1.42-4.04s-.47-3.05-1.42-4.04Z"/>
    <path class="st0" d="M297.95,491.34v22.32h-6.84v-3.04c-.69.99-1.63,1.78-2.82,2.38s-2.5.9-3.94.9c-1.71,0-3.21-.38-4.52-1.14-1.31-.76-2.32-1.86-3.04-3.3-.72-1.44-1.08-3.13-1.08-5.08v-13.04h6.8v12.12c0,1.49.39,2.65,1.16,3.48.77.83,1.81,1.24,3.12,1.24s2.39-.41,3.16-1.24c.77-.83,1.16-1.99,1.16-3.48v-12.12h6.84Z"/>
    <path class="st0" d="M302.81,496.42c.87-1.73,2.05-3.07,3.54-4,1.49-.93,3.16-1.4,5-1.4,1.57,0,2.95.32,4.14.96,1.19.64,2.1,1.48,2.74,2.52v-3.16h6.84v22.32h-6.84v-3.16c-.67,1.04-1.59,1.88-2.78,2.52-1.19.64-2.57.96-4.14.96-1.81,0-3.47-.47-4.96-1.42-1.49-.95-2.67-2.29-3.54-4.04-.87-1.75-1.3-3.77-1.3-6.06s.43-4.31,1.3-6.04ZM316.81,498.46c-.95-.99-2.1-1.48-3.46-1.48s-2.51.49-3.46,1.46c-.95.97-1.42,2.31-1.42,4.02s.47,3.06,1.42,4.06c.95,1,2.1,1.5,3.46,1.5s2.51-.49,3.46-1.48c.95-.99,1.42-2.33,1.42-4.04s-.47-3.05-1.42-4.04Z"/>
    <path class="st0" d="M338.45,496.42c.87-1.73,2.05-3.07,3.54-4,1.49-.93,3.16-1.4,5-1.4,1.57,0,2.95.32,4.14.96,1.19.64,2.1,1.48,2.74,2.52v-3.16h6.84v22.32h-6.84v-3.16c-.67,1.04-1.59,1.88-2.78,2.52-1.19.64-2.57.96-4.14.96-1.81,0-3.47-.47-4.96-1.42-1.49-.95-2.67-2.29-3.54-4.04-.87-1.75-1.3-3.77-1.3-6.06s.43-4.31,1.3-6.04ZM352.45,498.46c-.95-.99-2.1-1.48-3.46-1.48s-2.51.49-3.46,1.46c-.95.97-1.42,2.31-1.42,4.02s.47,3.06,1.42,4.06c.95,1,2.1,1.5,3.46,1.5s2.51-.49,3.46-1.48c.95-.99,1.42-2.33,1.42-4.04s-.47-3.05-1.42-4.04Z"/>
    <path class="st0" d="M365.69,496.62c.92-1.73,2.16-3.09,3.72-4.06,1.56-.97,3.26-1.46,5.1-1.46,1.41,0,2.68.25,3.8.74,1.12.49,2.03,1.18,2.72,2.06v-2.56h6.84v32.96h-6.84v-13.44c-.77.93-1.71,1.68-2.82,2.24-1.11.56-2.37.84-3.78.84-1.81,0-3.49-.48-5.04-1.44-1.55-.96-2.78-2.31-3.7-4.04s-1.38-3.71-1.38-5.92.46-4.19,1.38-5.92ZM380.33,499.48c-.47-.81-1.07-1.43-1.82-1.84-.75-.41-1.53-.62-2.36-.62s-1.57.21-2.32.62c-.75.41-1.36,1.03-1.84,1.86-.48.83-.72,1.84-.72,3.04s.24,2.21.72,3.02c.48.81,1.09,1.43,1.84,1.84.75.41,1.52.62,2.32.62s1.58-.21,2.34-.62c.76-.41,1.37-1.03,1.84-1.86.47-.83.7-1.84.7-3.04s-.23-2.21-.7-3.02Z"/>
    <path class="st0" d="M414.87,491.34v22.32h-6.84v-3.04c-.69.99-1.63,1.78-2.82,2.38-1.19.6-2.5.9-3.94.9-1.71,0-3.21-.38-4.52-1.14-1.31-.76-2.32-1.86-3.04-3.3-.72-1.44-1.08-3.13-1.08-5.08v-13.04h6.8v12.12c0,1.49.39,2.65,1.16,3.48.77.83,1.81,1.24,3.12,1.24s2.39-.41,3.16-1.24c.77-.83,1.16-1.99,1.16-3.48v-12.12h6.84Z"/>
    <path class="st0" d="M440.71,504.14h-15.48c.11,1.39.55,2.45,1.34,3.18.79.73,1.75,1.1,2.9,1.1,1.71,0,2.89-.72,3.56-2.16h7.28c-.37,1.47-1.05,2.79-2.02,3.96-.97,1.17-2.19,2.09-3.66,2.76-1.47.67-3.11,1-4.92,1-2.19,0-4.13-.47-5.84-1.4-1.71-.93-3.04-2.27-4-4s-1.44-3.76-1.44-6.08.47-4.35,1.42-6.08c.95-1.73,2.27-3.07,3.98-4,1.71-.93,3.67-1.4,5.88-1.4s4.08.45,5.76,1.36c1.68.91,2.99,2.2,3.94,3.88.95,1.68,1.42,3.64,1.42,5.88,0,.64-.04,1.31-.12,2ZM433.83,500.34c0-1.17-.4-2.11-1.2-2.8-.8-.69-1.8-1.04-3-1.04s-2.11.33-2.9,1c-.79.67-1.27,1.61-1.46,2.84h8.56Z"/>
    <path class="st0" d="M444.49,496.42c.95-1.73,2.27-3.07,3.96-4,1.69-.93,3.63-1.4,5.82-1.4,2.8,0,5.14.73,7.02,2.2,1.88,1.47,3.11,3.53,3.7,6.2h-7.28c-.61-1.71-1.8-2.56-3.56-2.56-1.25,0-2.25.49-3,1.46-.75.97-1.12,2.37-1.12,4.18s.37,3.21,1.12,4.18c.75.97,1.75,1.46,3,1.46,1.76,0,2.95-.85,3.56-2.56h7.28c-.59,2.61-1.83,4.67-3.72,6.16-1.89,1.49-4.23,2.24-7,2.24-2.19,0-4.13-.47-5.82-1.4s-3.01-2.27-3.96-4c-.95-1.73-1.42-3.76-1.42-6.08s.47-4.35,1.42-6.08Z"/>
    <path class="st0" d="M469.13,487.96c-.76-.71-1.14-1.58-1.14-2.62s.38-1.95,1.14-2.66c.76-.71,1.74-1.06,2.94-1.06s2.14.35,2.9,1.06c.76.71,1.14,1.59,1.14,2.66s-.38,1.91-1.14,2.62c-.76.71-1.73,1.06-2.9,1.06s-2.18-.35-2.94-1.06ZM475.47,491.34v22.32h-6.84v-22.32h6.84Z"/>
    <path class="st0" d="M480.37,496.42c.87-1.73,2.05-3.07,3.54-4,1.49-.93,3.16-1.4,5-1.4,1.47,0,2.81.31,4.02.92,1.21.61,2.17,1.44,2.86,2.48v-10.36h6.84v29.6h-6.84v-3.2c-.64,1.07-1.55,1.92-2.74,2.56-1.19.64-2.57.96-4.14.96-1.84,0-3.51-.47-5-1.42-1.49-.95-2.67-2.29-3.54-4.04-.87-1.75-1.3-3.77-1.3-6.06s.43-4.31,1.3-6.04ZM494.37,498.46c-.95-.99-2.1-1.48-3.46-1.48s-2.51.49-3.46,1.46c-.95.97-1.42,2.31-1.42,4.02s.47,3.06,1.42,4.06c.95,1,2.1,1.5,3.46,1.5s2.51-.49,3.46-1.48c.95-.99,1.42-2.33,1.42-4.04s-.47-3.05-1.42-4.04Z"/>
    <path class="st0" d="M507.53,496.42c.87-1.73,2.05-3.07,3.54-4,1.49-.93,3.16-1.4,5-1.4,1.57,0,2.95.32,4.14.96,1.19.64,2.1,1.48,2.74,2.52v-3.16h6.84v22.32h-6.84v-3.16c-.67,1.04-1.59,1.88-2.78,2.52-1.19.64-2.57.96-4.14.96-1.81,0-3.47-.47-4.96-1.42-1.49-.95-2.67-2.29-3.54-4.04-.87-1.75-1.3-3.77-1.3-6.06s.43-4.31,1.3-6.04ZM521.53,498.46c-.95-.99-2.1-1.48-3.46-1.48s-2.51.49-3.46,1.46c-.95.97-1.42,2.31-1.42,4.02s.47,3.06,1.42,4.06c.95,1,2.1,1.5,3.46,1.5s2.51-.49,3.46-1.48c.95-.99,1.42-2.33,1.42-4.04s-.47-3.05-1.42-4.04Z"/>
    <path class="st2" d="M333.39,556.26c1.41,0,2.41-.63,3-1.88.59-1.25.88-3.29.88-6.12-.59.83-1.39,1.47-2.4,1.92-1.01.45-2.15.68-3.4.68-1.71,0-3.23-.35-4.56-1.06-1.33-.71-2.38-1.76-3.14-3.16-.76-1.4-1.14-3.1-1.14-5.1s.41-3.69,1.22-5.16c.81-1.47,1.97-2.6,3.48-3.4,1.51-.8,3.29-1.2,5.34-1.2,3.95,0,6.71,1.23,8.28,3.68,1.57,2.45,2.36,6.07,2.36,10.84,0,3.47-.31,6.33-.94,8.58-.63,2.25-1.68,3.97-3.16,5.14-1.48,1.17-3.5,1.76-6.06,1.76-2.03,0-3.75-.4-5.18-1.2-1.43-.8-2.52-1.85-3.28-3.16-.76-1.31-1.19-2.75-1.3-4.32h6.32c.4,2.11,1.63,3.16,3.68,3.16ZM335.71,544.44c.67-.68,1-1.61,1-2.78,0-1.28-.35-2.27-1.04-2.96-.69-.69-1.63-1.04-2.8-1.04s-2.1.35-2.78,1.06c-.68.71-1.02,1.67-1.02,2.9,0,1.15.34,2.07,1.02,2.78.68.71,1.66,1.06,2.94,1.06,1.12,0,2.01-.34,2.68-1.02Z"/>
    <path class="st2" d="M349.61,535.82c1.77-2.64,4.63-3.96,8.58-3.96s6.81,1.32,8.58,3.96c1.77,2.64,2.66,6.25,2.66,10.84s-.89,8.28-2.66,10.92c-1.77,2.64-4.63,3.96-8.58,3.96s-6.81-1.32-8.58-3.96c-1.77-2.64-2.66-6.28-2.66-10.92s.89-8.2,2.66-10.84ZM361.83,540.44c-.59-1.45-1.8-2.18-3.64-2.18s-3.05.73-3.64,2.18c-.59,1.45-.88,3.53-.88,6.22,0,1.81.11,3.31.32,4.5s.65,2.15,1.3,2.88c.65.73,1.62,1.1,2.9,1.1s2.25-.37,2.9-1.1c.65-.73,1.09-1.69,1.3-2.88.21-1.19.32-2.69.32-4.5,0-2.69-.29-4.77-.88-6.22Z"/>
    <path class="st2" d="M373.25,536.76c.68-1.08,1.64-1.93,2.88-2.54,1.24-.61,2.66-.92,4.26-.92s3.02.31,4.26.92c1.24.61,2.2,1.46,2.88,2.54.68,1.08,1.02,2.33,1.02,3.74s-.35,2.67-1.04,3.76c-.69,1.09-1.66,1.95-2.9,2.58-1.24.63-2.66.94-4.26.94s-3.01-.31-4.24-.94c-1.23-.63-2.18-1.49-2.86-2.58-.68-1.09-1.02-2.35-1.02-3.76s.34-2.66,1.02-3.74ZM382.43,538.1c-.56-.56-1.25-.84-2.08-.84s-1.47.28-2.02.84c-.55.56-.82,1.37-.82,2.44s.27,1.84.8,2.4c.53.56,1.21.84,2.04.84s1.52-.29,2.08-.86c.56-.57.84-1.37.84-2.38,0-1.07-.28-1.88-.84-2.44Z"/>
    <path class="st2" d="M401.15,540.16c1.2-2.17,2.87-3.87,5.02-5.08,2.15-1.21,4.58-1.82,7.3-1.82,3.33,0,6.19.88,8.56,2.64,2.37,1.76,3.96,4.16,4.76,7.2h-7.52c-.56-1.17-1.35-2.07-2.38-2.68-1.03-.61-2.19-.92-3.5-.92-2.11,0-3.81.73-5.12,2.2-1.31,1.47-1.96,3.43-1.96,5.88s.65,4.41,1.96,5.88c1.31,1.47,3.01,2.2,5.12,2.2,1.31,0,2.47-.31,3.5-.92,1.03-.61,1.82-1.51,2.38-2.68h7.52c-.8,3.04-2.39,5.43-4.76,7.18-2.37,1.75-5.23,2.62-8.56,2.62-2.72,0-5.15-.61-7.3-1.82-2.15-1.21-3.82-2.9-5.02-5.06-1.2-2.16-1.8-4.63-1.8-7.4s.6-5.25,1.8-7.42Z"/>
  </g>
  <text class="st1" transform="translate(334.51 862.56)"><tspan x="0" y="0">Resfriamento</tspan></text>
</svg>